TF2CBuild.sfdir
StartChar: exclam
Encoding: 33 33 1
AltUni2: 0001c3.ffffffff.0
Width: 504
GlyphClass: 2
Flags: W
LayerCount: 2
Fore
SplineSet
0 150 m 0,0,1
 0 180 0 180 11.5 209.5 c 128,-1,2
 23 239 23 239 44.5 262 c 128,-1,3
 66 285 66 285 96.5 299.5 c 128,-1,4
 127 314 127 314 166 315 c 0,5,6
 208 316 208 316 240.5 301 c 128,-1,7
 273 286 273 286 295 262 c 128,-1,8
 317 238 317 238 327 208.5 c 128,-1,9
 337 179 337 179 336 150 c 0,10,11
 334 117 334 117 319.5 90 c 128,-1,12
 305 63 305 63 281.5 43.5 c 128,-1,13
 258 24 258 24 228 13 c 128,-1,14
 198 2 198 2 166 2 c 0,15,16
 135 2 135 2 105.5 13 c 128,-1,17
 76 24 76 24 52.5 43.5 c 128,-1,18
 29 63 29 63 14.5 90 c 128,-1,19
 0 117 0 117 0 150 c 0,0,1
315 471 m 1,20,-1
 72 485 l 1,21,-1
 109 1415 l 1,22,-1
 399 1401 l 1,23,-1
 315 471 l 1,20,-1
EndSplineSet
EndChar
StartChar: quotedbl
Encoding: 34 34 2
Width: 483
GlyphClass: 2
Flags: W
LayerCount: 2
Fore
SplineSet
2 1522 m 1,0,-1
 172 1524 l 1,1,-1
 137 1171 l 1,2,-1
 29 1167 l 1,3,-1
 2 1522 l 1,0,-1
190 1534 m 1,4,-1
 375 1534 l 1,5,-1
 328 1171 l 1,6,-1
 207 1188 l 1,7,-1
 190 1534 l 1,4,-1
EndSplineSet
EndChar
StartChar: numbersign
Encoding: 35 35 3
Width: 1352
GlyphClass: 2
Flags: W
LayerCount: 2
Fore
SplineSet
516 539 m 1,0,-1
 811 563 l 1,1,-1
 836 784 l 1,2,-1
 516 760 l 1,3,-1
 516 539 l 1,0,-1
1180 588 m 1,4,-1
 1204 342 l 1,5,-1
 1008 342 l 1,6,-1
 983 121 l 1,7,-1
 786 145 l 1,8,-1
 786 317 l 1,9,-1
 516 317 l 1,10,-1
 516 96 l 1,11,-1
 270 96 l 1,12,-1
 270 293 l 1,13,-1
 74 293 l 1,14,-1
 49 489 l 1,15,-1
 270 514 l 1,16,-1
 270 760 l 1,17,-1
 0 760 l 1,18,-1
 0 981 l 1,19,-1
 270 981 l 1,20,-1
 246 1325 l 1,21,-1
 516 1325 l 1,22,-1
 516 1006 l 1,23,-1
 836 1006 l 1,24,-1
 860 1276 l 1,25,-1
 1106 1251 l 1,26,-1
 1081 1006 l 1,27,-1
 1253 1006 l 1,28,-1
 1253 784 l 1,29,-1
 1057 784 l 1,30,-1
 1032 563 l 1,31,-1
 1180 588 l 1,4,-1
EndSplineSet
EndChar
StartChar: dollar
Encoding: 36 36 4
Width: 799
GlyphClass: 2
Flags: W
LayerCount: 2
Fore
SplineSet
282 1374 m 1,0,-1
 444 1374 l 1,1,-1
 413 1130 l 1,2,-1
 444 1128 l 2,3,4
 462 1128 462 1128 493 1122.5 c 128,-1,5
 524 1117 524 1117 561 1105 c 128,-1,6
 598 1093 598 1093 635.5 1075 c 128,-1,7
 673 1057 673 1057 704 1032 c 1,8,-1
 590 838 l 1,9,10
 562 862 562 862 526.5 881.5 c 128,-1,11
 491 901 491 901 454.5 913 c 128,-1,12
 418 925 418 925 382.5 928.5 c 128,-1,13
 347 932 347 932 318.5 924 c 128,-1,14
 290 916 290 916 271 895 c 128,-1,15
 252 874 252 874 248 838 c 1,16,17
 248 793 248 793 272 760.5 c 128,-1,18
 296 728 296 728 331.5 701 c 128,-1,19
 367 674 367 674 408.5 647.5 c 128,-1,20
 450 621 450 621 484.5 587 c 128,-1,21
 519 553 519 553 540.5 507.5 c 128,-1,22
 562 462 562 462 559 397 c 1,23,24
 545 335 545 335 501 299 c 128,-1,25
 457 263 457 263 395 252 c 1,26,-1
 403 39 l 1,27,-1
 256 39 l 1,28,-1
 282 252 l 1,29,30
 239 257 239 257 197.5 272.5 c 128,-1,31
 156 288 156 288 124 305 c 0,32,33
 85 324 85 324 51 348 c 1,34,-1
 133 494 l 1,35,36
 207 432 207 432 266 418.5 c 128,-1,37
 325 405 325 405 362 430 c 0,38,39
 374 442 374 442 365.5 459.5 c 128,-1,40
 357 477 357 477 336 497 c 128,-1,41
 315 517 315 517 286.5 538.5 c 128,-1,42
 258 560 258 560 228.5 581 c 128,-1,43
 199 602 199 602 173 621 c 128,-1,44
 147 640 147 640 133 655 c 0,45,46
 125 662 125 662 102 681.5 c 128,-1,47
 79 701 79 701 56.5 733.5 c 128,-1,48
 34 766 34 766 21 812 c 128,-1,49
 8 858 8 858 20 920 c 0,50,51
 32 962 32 962 57 998 c 128,-1,52
 82 1034 82 1034 118.5 1061 c 128,-1,53
 155 1088 155 1088 201.5 1105.5 c 128,-1,54
 248 1123 248 1123 303 1128 c 1,55,-1
 282 1374 l 1,0,-1
EndSplineSet
EndChar
StartChar: percent
Encoding: 37 37 5
Width: 1167
GlyphClass: 2
Flags: W
LayerCount: 2
Fore
SplineSet
238 949 m 0,0,1
 281 949 281 949 308.5 975.5 c 128,-1,2
 336 1002 336 1002 336 1038 c 0,3,4
 336 1077 336 1077 308.5 1101.5 c 128,-1,5
 281 1126 281 1126 238 1126 c 0,6,7
 200 1126 200 1126 173.5 1101.5 c 128,-1,8
 147 1077 147 1077 147 1038 c 0,9,10
 147 1020 147 1020 154 1004 c 128,-1,11
 161 988 161 988 173.5 975.5 c 128,-1,12
 186 963 186 963 202.5 956 c 128,-1,13
 219 949 219 949 238 949 c 0,0,1
238 1280 m 0,14,15
 289 1280 289 1280 332 1262 c 128,-1,16
 375 1244 375 1244 407 1213 c 128,-1,17
 439 1182 439 1182 457 1140.5 c 128,-1,18
 475 1099 475 1099 475 1051 c 0,19,20
 475 1004 475 1004 457 963 c 128,-1,21
 439 922 439 922 407 891 c 128,-1,22
 375 860 375 860 332 842.5 c 128,-1,23
 289 825 289 825 238 825 c 0,24,25
 190 825 190 825 148.5 842.5 c 128,-1,26
 107 860 107 860 75.5 891 c 128,-1,27
 44 922 44 922 26 963 c 128,-1,28
 8 1004 8 1004 8 1051 c 0,29,30
 8 1099 8 1099 26 1140.5 c 128,-1,31
 44 1182 44 1182 75.5 1213 c 128,-1,32
 107 1244 107 1244 148.5 1262 c 128,-1,33
 190 1280 190 1280 238 1280 c 0,14,15
826 466 m 0,34,35
 791 466 791 466 767 442 c 128,-1,36
 743 418 743 418 743 385 c 0,37,38
 743 350 743 350 767 327 c 128,-1,39
 791 304 791 304 826 304 c 0,40,41
 866 304 866 304 891 327 c 128,-1,42
 916 350 916 350 916 385 c 0,43,44
 916 418 916 418 891 442 c 128,-1,45
 866 466 866 466 826 466 c 0,34,35
825 147 m 0,46,47
 778 147 778 147 737 165 c 128,-1,48
 696 183 696 183 665.5 214 c 128,-1,49
 635 245 635 245 617.5 286 c 128,-1,50
 600 327 600 327 600 373 c 128,-1,51
 600 419 600 419 617.5 459.5 c 128,-1,52
 635 500 635 500 665.5 530 c 128,-1,53
 696 560 696 560 737 577 c 128,-1,54
 778 594 778 594 825 594 c 0,55,56
 875 594 875 594 917.5 577 c 128,-1,57
 960 560 960 560 991.5 530 c 128,-1,58
 1023 500 1023 500 1041 459.5 c 128,-1,59
 1059 419 1059 419 1059 373 c 128,-1,60
 1059 327 1059 327 1041 286 c 128,-1,61
 1023 245 1023 245 991.5 214 c 128,-1,62
 960 183 960 183 917.5 165 c 128,-1,63
 875 147 875 147 825 147 c 0,46,47
989 1219 m 1,64,-1
 223 86 l 1,65,-1
 51 209 l 1,66,-1
 838 1329 l 1,67,-1
 989 1219 l 1,64,-1
EndSplineSet
EndChar
StartChar: ampersand
Encoding: 38 38 6
Width: 1266
GlyphClass: 2
Flags: W
LayerCount: 2
Fore
SplineSet
315 309 m 0,0,1
 362 261 362 261 435 280.5 c 128,-1,2
 508 300 508 300 592 385 c 1,3,4
 570 413 570 413 546.5 440 c 128,-1,5
 523 467 523 467 501 492.5 c 128,-1,6
 479 518 479 518 459.5 541.5 c 128,-1,7
 440 565 440 565 426 586 c 1,8,9
 391 552 391 552 359.5 515.5 c 128,-1,10
 328 479 328 479 309 442.5 c 128,-1,11
 290 406 290 406 289 371.5 c 128,-1,12
 288 337 288 337 315 309 c 0,0,1
518 1067 m 0,13,14
 518 1100 518 1100 504.5 1121.5 c 128,-1,15
 491 1143 491 1143 472 1153 c 128,-1,16
 453 1163 453 1163 431 1161 c 128,-1,17
 409 1159 409 1159 392 1143.5 c 128,-1,18
 375 1128 375 1128 366.5 1099.5 c 128,-1,19
 358 1071 358 1071 366 1028 c 0,20,21
 369 1011 369 1011 383 984 c 128,-1,22
 397 957 397 957 426 913 c 1,23,24
 468 942 468 942 493 982 c 128,-1,25
 518 1022 518 1022 518 1067 c 0,13,14
981 -74 m 1,26,27
 956 -43 956 -43 923 -3 c 0,28,29
 895 31 895 31 857 76.5 c 128,-1,30
 819 122 819 122 772 178 c 1,31,32
 676 100 676 100 579 56.5 c 128,-1,33
 482 13 482 13 370 10 c 0,34,35
 327 9 327 9 280.5 17.5 c 128,-1,36
 234 26 234 26 191 45 c 128,-1,37
 148 64 148 64 111.5 93 c 128,-1,38
 75 122 75 122 50 162 c 128,-1,39
 25 202 25 202 15 253.5 c 128,-1,40
 5 305 5 305 16 369 c 0,41,42
 31 440 31 440 60.5 499.5 c 128,-1,43
 90 559 90 559 125 608 c 128,-1,44
 160 657 160 657 197 696.5 c 128,-1,45
 234 736 234 736 266 768 c 1,46,47
 187 873 187 873 156 960.5 c 128,-1,48
 125 1048 125 1048 129.5 1118 c 128,-1,49
 134 1188 134 1188 167.5 1240.5 c 128,-1,50
 201 1293 201 1293 250.5 1328 c 128,-1,51
 300 1363 300 1363 360 1380 c 128,-1,52
 420 1397 420 1397 477 1397 c 0,53,54
 541 1396 541 1396 592 1376 c 128,-1,55
 643 1356 643 1356 679.5 1320 c 128,-1,56
 716 1284 716 1284 738 1234 c 128,-1,57
 760 1184 760 1184 766 1124 c 0,58,59
 770 1076 770 1076 754.5 1032 c 128,-1,60
 739 988 739 988 711.5 945.5 c 128,-1,61
 684 903 684 903 647 862.5 c 128,-1,62
 610 822 610 822 571 782 c 1,63,64
 595 750 595 750 618 723.5 c 128,-1,65
 641 697 641 697 666 670.5 c 128,-1,66
 691 644 691 644 717.5 617 c 128,-1,67
 744 590 744 590 776 559 c 1,68,69
 786 574 786 574 799.5 592 c 128,-1,70
 813 610 813 610 826 626.5 c 128,-1,71
 839 643 839 643 849 657 c 128,-1,72
 859 671 859 671 862 680 c 1,73,-1
 1044 514 l 1,74,75
 1016 474 1016 474 987.5 435.5 c 128,-1,76
 959 397 959 397 938 369 c 1,77,78
 986 321 986 321 1028 275.5 c 128,-1,79
 1070 230 1070 230 1102 194 c 0,80,81
 1139 152 1139 152 1171 115 c 1,82,-1
 981 -74 l 1,26,27
EndSplineSet
EndChar
StartChar: quotesingle
Encoding: 39 39 7
Width: 324
GlyphClass: 2
Flags: W
LayerCount: 2
Fore
SplineSet
2 1536 m 1,0,-1
 221 1536 l 1,1,-1
 166 1106 l 1,2,-1
 23 1124 l 1,3,-1
 2 1536 l 1,0,-1
EndSplineSet
EndChar
StartChar: parenleft
Encoding: 40 40 8
Width: 801
GlyphClass: 2
Flags: W
LayerCount: 2
Fore
SplineSet
634 1536 m 1,0,-1
 701 1319 l 1,1,2
 660 1305 660 1305 610 1281.5 c 128,-1,3
 560 1258 560 1258 509 1222.5 c 128,-1,4
 458 1187 458 1187 410 1139.5 c 128,-1,5
 362 1092 362 1092 325 1029 c 128,-1,6
 288 966 288 966 265.5 887 c 128,-1,7
 243 808 243 808 243 711 c 0,8,9
 243 635 243 635 262.5 566.5 c 128,-1,10
 282 498 282 498 313.5 439 c 128,-1,11
 345 380 345 380 385.5 330 c 128,-1,12
 426 280 426 280 468 240 c 128,-1,13
 510 200 510 200 551 170.5 c 128,-1,14
 592 141 592 141 624 123 c 1,15,-1
 509 -76 l 1,16,17
 265 57 265 57 135 258 c 128,-1,18
 5 459 5 459 3 729 c 0,19,20
 2 859 2 859 43.5 983.5 c 128,-1,21
 85 1108 85 1108 165.5 1214.5 c 128,-1,22
 246 1321 246 1321 364 1404.5 c 128,-1,23
 482 1488 482 1488 634 1536 c 1,0,-1
EndSplineSet
EndChar
StartChar: parenright
Encoding: 41 41 9
Width: 799
GlyphClass: 2
Flags: W
LayerCount: 2
Fore
SplineSet
68 1536 m 1,0,1
 220 1488 220 1488 337.5 1404.5 c 128,-1,2
 455 1321 455 1321 535.5 1214.5 c 128,-1,3
 616 1108 616 1108 657.5 983.5 c 128,-1,4
 699 859 699 859 698 729 c 0,5,6
 697 595 697 595 662 479 c 128,-1,7
 627 363 627 363 561.5 263.5 c 128,-1,8
 496 164 496 164 403 80 c 128,-1,9
 310 -4 310 -4 193 -76 c 1,10,-1
 78 123 l 1,11,12
 110 141 110 141 151 170.5 c 128,-1,13
 192 200 192 200 234 240 c 128,-1,14
 276 280 276 280 316.5 330 c 128,-1,15
 357 380 357 380 388.5 439 c 128,-1,16
 420 498 420 498 439.5 566.5 c 128,-1,17
 459 635 459 635 459 711 c 0,18,19
 459 808 459 808 436.5 887 c 128,-1,20
 414 966 414 966 377 1029 c 128,-1,21
 340 1092 340 1092 292 1139.5 c 128,-1,22
 244 1187 244 1187 193 1222.5 c 128,-1,23
 142 1258 142 1258 91.5 1281.5 c 128,-1,24
 41 1305 41 1305 0 1319 c 1,25,-1
 68 1536 l 1,0,1
EndSplineSet
EndChar
StartChar: asterisk
Encoding: 42 42 10
Width: 799
GlyphClass: 2
Flags: W
LayerCount: 2
Fore
SplineSet
285.09409454 1286.54782849 m 1,0,-1
 283 1534 l 1,1,-1
 391 1534 l 1,2,-1
 397.943685574 1275.62180521 l 1,3,-1
 627 1434 l 1,4,-1
 694 1337 l 1,5,-1
 441.321248712 1156.9870334 l 1,6,-1
 668 969 l 1,7,-1
 592 883 l 1,8,-1
 404.461381728 1033.09490097 l 1,9,-1
 410 827 l 1,10,-1
 289 825 l 1,11,-1
 287.120185832 1047.13137422 l 1,12,-1
 82 901 l 1,13,-1
 8 1006 l 1,14,-1
 238.86482271 1165.62866578 l 1,15,-1
 6 1352 l 1,16,-1
 88 1450 l 1,17,-1
 285.09409454 1286.54782849 l 1,0,-1
EndSplineSet
EndChar
StartChar: plus
Encoding: 43 43 11
Width: 860
GlyphClass: 2
Flags: W
LayerCount: 2
Fore
SplineSet
469.694157372 816.483106518 m 5,0,-1
 752 821 l 5,1,-1
 754 606 l 5,2,-1
 466.99282235 605.238707752 l 5,3,-1
 463 293 l 5,4,-1
 260 295 l 5,5,-1
 259.205929362 604.687548884 l 5,6,-1
 0 604 l 5,7,-1
 2 809 l 5,8,-1
 258.671521168 813.106744339 l 5,9,-1
 258 1075 l 5,10,-1
 473 1075 l 5,11,-1
 469.694157372 816.483106518 l 5,0,-1
EndSplineSet
EndChar
StartChar: comma
Encoding: 44 44 12
Width: 399
GlyphClass: 2
Flags: W
LayerCount: 2
Fore
SplineSet
300 195 m 0,0,1
 303 179 303 179 305 160.5 c 128,-1,2
 307 142 307 142 304.5 121 c 128,-1,3
 302 100 302 100 293.5 76 c 128,-1,4
 285 52 285 52 267 25 c 0,5,6
 252 1 252 1 232 -22.5 c 128,-1,7
 212 -46 212 -46 190 -67.5 c 128,-1,8
 168 -89 168 -89 145 -108.5 c 128,-1,9
 122 -128 122 -128 101 -143 c 1,10,-1
 28 -72 l 1,11,12
 54 -52 54 -52 73.5 -34.5 c 128,-1,13
 93 -17 93 -17 106 -3 c 0,14,15
 121 12 121 12 130 25 c 1,16,17
 83 40 83 40 49 67.5 c 128,-1,18
 15 95 15 95 7 147 c 0,19,20
 2 178 2 178 10 206 c 128,-1,21
 18 234 18 234 35.5 256.5 c 128,-1,22
 53 279 53 279 77 294 c 128,-1,23
 101 309 101 309 130 313 c 0,24,25
 192 321 192 321 238 288.5 c 128,-1,26
 284 256 284 256 300 195 c 0,0,1
EndSplineSet
EndChar
StartChar: hyphen
Encoding: 45 45 13
Width: 733
GlyphClass: 2
Flags: W
LayerCount: 2
Fore
SplineSet
645 553 m 5,0,-1
 0 553 l 5,1,-1
 2 772 l 5,2,-1
 649 760 l 5,3,-1
 645 553 l 5,0,-1
EndSplineSet
EndChar
StartChar: period
Encoding: 46 46 14
Width: 444
GlyphClass: 2
Flags: W
LayerCount: 2
Fore
SplineSet
0 150 m 4,0,1
 0 180 0 180 11.5 209.5 c 132,-1,2
 23 239 23 239 44.5 262 c 132,-1,3
 66 285 66 285 96.5 299.5 c 132,-1,4
 127 314 127 314 166 315 c 4,5,6
 208 316 208 316 240.5 301 c 132,-1,7
 273 286 273 286 295 262 c 132,-1,8
 317 238 317 238 327 208.5 c 132,-1,9
 337 179 337 179 336 150 c 4,10,11
 334 117 334 117 319.5 90 c 132,-1,12
 305 63 305 63 281.5 43.5 c 132,-1,13
 258 24 258 24 228 13 c 132,-1,14
 198 2 198 2 166 2 c 4,15,16
 135 2 135 2 105.5 13 c 132,-1,17
 76 24 76 24 52.5 43.5 c 132,-1,18
 29 63 29 63 14.5 90 c 132,-1,19
 0 117 0 117 0 150 c 4,0,1
EndSplineSet
EndChar
StartChar: slash
Encoding: 47 47 15
Width: 877
GlyphClass: 2
Flags: W
LayerCount: 2
Fore
SplineSet
0 137 m 1,0,-1
 557 1399 l 1,1,-1
 774 1290 l 1,2,-1
 238 45 l 1,3,-1
 0 137 l 1,0,-1
EndSplineSet
EndChar
StartChar: zero
Encoding: 48 48 16
Width: 1372
GlyphClass: 2
Flags: W
LayerCount: 2
Fore
SplineSet
637 283 m 0,0,1
 685 283 685 283 738 306 c 128,-1,2
 791 329 791 329 836 373.5 c 128,-1,3
 881 418 881 418 910.5 484 c 128,-1,4
 940 550 940 550 940 637 c 0,5,6
 940 723 940 723 914 790 c 128,-1,7
 888 857 888 857 845 903 c 128,-1,8
 802 949 802 949 748 973 c 128,-1,9
 694 997 694 997 637 997 c 0,10,11
 579 997 579 997 525 973 c 128,-1,12
 471 949 471 949 429 903 c 128,-1,13
 387 857 387 857 361.5 790 c 128,-1,14
 336 723 336 723 336 637 c 0,15,16
 336 550 336 550 364 484 c 128,-1,17
 392 418 392 418 436 373.5 c 128,-1,18
 480 329 480 329 533 306 c 128,-1,19
 586 283 586 283 637 283 c 0,0,1
637 1413 m 0,20,21
 723 1413 723 1413 803.5 1388.5 c 128,-1,22
 884 1364 884 1364 954 1319 c 128,-1,23
 1024 1274 1024 1274 1082.5 1211 c 128,-1,24
 1141 1148 1141 1148 1182.5 1071 c 128,-1,25
 1224 994 1224 994 1247 905.5 c 128,-1,26
 1270 817 1270 817 1270 721 c 128,-1,27
 1270 625 1270 625 1247 537 c 128,-1,28
 1224 449 1224 449 1182.5 373 c 128,-1,29
 1141 297 1141 297 1082.5 234.5 c 128,-1,30
 1024 172 1024 172 954 127.5 c 128,-1,31
 884 83 884 83 803.5 59 c 128,-1,32
 723 35 723 35 637 35 c 0,33,34
 550 35 550 35 469.5 59 c 128,-1,35
 389 83 389 83 318.5 127.5 c 128,-1,36
 248 172 248 172 189.5 234.5 c 128,-1,37
 131 297 131 297 89.5 373 c 128,-1,38
 48 449 48 449 25 537 c 128,-1,39
 2 625 2 625 2 721 c 128,-1,40
 2 817 2 817 25 905.5 c 128,-1,41
 48 994 48 994 89.5 1071 c 128,-1,42
 131 1148 131 1148 189.5 1211 c 128,-1,43
 248 1274 248 1274 318.5 1319 c 128,-1,44
 389 1364 389 1364 469.5 1388.5 c 128,-1,45
 550 1413 550 1413 637 1413 c 0,20,21
EndSplineSet
EndChar
StartChar: one
Encoding: 49 49 17
Width: 799
GlyphClass: 2
Flags: W
LayerCount: 2
Fore
SplineSet
666 1376 m 1,0,-1
 608 35 l 1,1,-1
 262 53 l 1,2,-1
 297 989 l 1,3,-1
 207 897 l 1,4,-1
 41 1096 l 1,5,-1
 346 1397 l 1,6,-1
 666 1376 l 1,0,-1
EndSplineSet
EndChar
StartChar: two
Encoding: 50 50 18
Width: 1190
GlyphClass: 2
Flags: W
LayerCount: 2
Fore
SplineSet
993 43 m 1,0,-1
 172 43 l 1,1,-1
 172 270 l 1,2,3
 215 274 215 274 269.5 295.5 c 128,-1,4
 324 317 324 317 382 351 c 128,-1,5
 440 385 440 385 497.5 430 c 128,-1,6
 555 475 555 475 603.5 526.5 c 128,-1,7
 652 578 652 578 687 634 c 128,-1,8
 722 690 722 690 735 746 c 128,-1,9
 748 802 748 802 735 856 c 128,-1,10
 722 910 722 910 674 958 c 0,11,12
 635 998 635 998 578.5 1004 c 128,-1,13
 522 1010 522 1010 460.5 992 c 128,-1,14
 399 974 399 974 339 937 c 128,-1,15
 279 900 279 900 231 854 c 1,16,-1
 0 1184 l 1,17,18
 10 1198 10 1198 35 1220.5 c 128,-1,19
 60 1243 60 1243 98 1268.5 c 128,-1,20
 136 1294 136 1294 186 1320 c 128,-1,21
 236 1346 236 1346 295 1366.5 c 128,-1,22
 354 1387 354 1387 421 1400 c 128,-1,23
 488 1413 488 1413 561 1413 c 0,24,25
 609 1413 609 1413 663 1408 c 128,-1,26
 717 1403 717 1403 771 1387.5 c 128,-1,27
 825 1372 825 1372 876 1343 c 128,-1,28
 927 1314 927 1314 969 1267 c 128,-1,29
 1011 1220 1011 1220 1042 1152 c 128,-1,30
 1073 1084 1073 1084 1087 989 c 0,31,32
 1096 927 1096 927 1083.5 863.5 c 128,-1,33
 1071 800 1071 800 1043.5 739 c 128,-1,34
 1016 678 1016 678 977.5 621 c 128,-1,35
 939 564 939 564 898 514 c 0,36,37
 801 396 801 396 672 289 c 1,38,-1
 989 289 l 1,39,-1
 993 43 l 1,0,-1
EndSplineSet
EndChar
StartChar: three
Encoding: 51 51 19
Width: 1188
GlyphClass: 2
Flags: W
LayerCount: 2
Fore
SplineSet
152 178 m 1,0,-1
 264 371 l 1,1,2
 331 328 331 328 388.5 306.5 c 128,-1,3
 446 285 446 285 493 279.5 c 128,-1,4
 540 274 540 274 576.5 281.5 c 128,-1,5
 613 289 613 289 637 303.5 c 128,-1,6
 661 318 661 318 672.5 336 c 128,-1,7
 684 354 684 354 682 371 c 0,8,9
 677 406 677 406 656 429.5 c 128,-1,10
 635 453 635 453 604 467 c 128,-1,11
 573 481 573 481 534.5 488 c 128,-1,12
 496 495 496 495 456.5 497.5 c 128,-1,13
 417 500 417 500 380 500 c 128,-1,14
 343 500 343 500 315 500 c 1,15,-1
 313 707 l 1,16,17
 434 707 434 707 521 728 c 128,-1,18
 608 749 608 749 656.5 783.5 c 128,-1,19
 705 818 705 818 715 862.5 c 128,-1,20
 725 907 725 907 694 954 c 0,21,22
 667 994 667 994 615.5 1005 c 128,-1,23
 564 1016 564 1016 497.5 1002 c 128,-1,24
 431 988 431 988 355.5 951.5 c 128,-1,25
 280 915 280 915 207 860 c 1,26,-1
 0 1186 l 1,27,28
 12 1196 12 1196 39 1216.5 c 128,-1,29
 66 1237 66 1237 105.5 1262 c 128,-1,30
 145 1287 145 1287 194.5 1314 c 128,-1,31
 244 1341 244 1341 301 1363 c 128,-1,32
 358 1385 358 1385 421.5 1399 c 128,-1,33
 485 1413 485 1413 551 1413 c 0,34,35
 598 1413 598 1413 655 1407.5 c 128,-1,36
 712 1402 712 1402 770.5 1386.5 c 128,-1,37
 829 1371 829 1371 885.5 1344 c 128,-1,38
 942 1317 942 1317 988 1274.5 c 128,-1,39
 1034 1232 1034 1232 1066 1172.5 c 128,-1,40
 1098 1113 1098 1113 1108 1032 c 0,41,42
 1115 975 1115 975 1103.5 926 c 128,-1,43
 1092 877 1092 877 1069 836 c 128,-1,44
 1046 795 1046 795 1014 761.5 c 128,-1,45
 982 728 982 728 948 701 c 0,46,47
 867 639 867 639 760 598 c 1,48,49
 831 573 831 573 881 531 c 0,50,51
 902 513 902 513 921 489.5 c 128,-1,52
 940 466 940 466 952.5 436.5 c 128,-1,53
 965 407 965 407 968 371 c 128,-1,54
 971 335 971 335 961 293 c 0,55,56
 944 225 944 225 896.5 173.5 c 128,-1,57
 849 122 849 122 781 88.5 c 128,-1,58
 713 55 713 55 631.5 42 c 128,-1,59
 550 29 550 29 465.5 38.5 c 128,-1,60
 381 48 381 48 299.5 82.5 c 128,-1,61
 218 117 218 117 152 178 c 1,0,-1
EndSplineSet
EndChar
StartChar: four
Encoding: 52 52 20
Width: 1323
GlyphClass: 2
Flags: W
LayerCount: 2
Fore
SplineSet
420 639 m 1,0,-1
 684 637 l 1,1,-1
 696 987 l 1,2,-1
 420 639 l 1,0,-1
1169 657 m 5,3,-1
 1169 422 l 1,4,-1
 952 422 l 1,5,-1
 952 27 l 1,6,-1
 664 27 l 1,7,-1
 664 416 l 1,8,-1
 2 416 l 1,9,-1
 0 623 l 1,10,-1
 653 1405 l 1,11,-1
 952 1405 l 1,12,-1
 958 657 l 1,13,-1
 1169 657 l 5,3,-1
EndSplineSet
EndChar
StartChar: five
Encoding: 53 53 21
Width: 1096
GlyphClass: 2
Flags: W
LayerCount: 2
Fore
SplineSet
283 25 m 1,0,-1
 242 256 l 1,1,2
 324 261 324 261 390 280 c 0,3,4
 418 288 418 288 445.5 300 c 128,-1,5
 473 312 473 312 495 328.5 c 128,-1,6
 517 345 517 345 531.5 367 c 128,-1,7
 546 389 546 389 549 418 c 0,8,9
 553 462 553 462 530.5 488.5 c 128,-1,10
 508 515 508 515 466.5 528.5 c 128,-1,11
 425 542 425 542 369 545.5 c 128,-1,12
 313 549 313 549 250.5 547.5 c 128,-1,13
 188 546 188 546 123.5 542.5 c 128,-1,14
 59 539 59 539 0 539 c 1,15,-1
 0 1405 l 1,16,-1
 995 1405 l 1,17,-1
 995 1008 l 1,18,-1
 315 1008 l 1,19,-1
 315 795 l 1,20,21
 468 795 468 795 567 773.5 c 128,-1,22
 666 752 666 752 725.5 713 c 128,-1,23
 785 674 785 674 811.5 619.5 c 128,-1,24
 838 565 838 565 846 498 c 0,25,26
 851 453 851 453 843.5 403 c 128,-1,27
 836 353 836 353 812 303 c 128,-1,28
 788 253 788 253 745.5 206.5 c 128,-1,29
 703 160 703 160 639 122 c 128,-1,30
 575 84 575 84 486.5 58.5 c 128,-1,31
 398 33 398 33 283 25 c 1,0,-1
EndSplineSet
EndChar
StartChar: six
Encoding: 54 54 22
Width: 983
GlyphClass: 2
Flags: W
LayerCount: 2
Fore
SplineSet
624 387 m 0,0,1
 614 414 614 414 594 430 c 128,-1,2
 574 446 574 446 549 452.5 c 128,-1,3
 524 459 524 459 497.5 457.5 c 128,-1,4
 471 456 471 456 449 449 c 0,5,6
 393 423 393 423 374 385.5 c 128,-1,7
 355 348 355 348 361 313 c 0,8,9
 364 294 364 294 377 278 c 128,-1,10
 390 262 390 262 410 251.5 c 128,-1,11
 430 241 430 241 455 237 c 128,-1,12
 480 233 480 233 509 238 c 0,13,14
 535 242 535 242 559.5 256.5 c 128,-1,15
 584 271 584 271 601.5 292 c 128,-1,16
 619 313 619 313 626 338 c 128,-1,17
 633 363 633 363 624 387 c 0,0,1
468 33 m 128,-1,19
 365 32 365 32 278.5 72.5 c 128,-1,20
 192 113 192 113 130.5 182.5 c 128,-1,21
 69 252 69 252 35.5 344.5 c 128,-1,22
 2 437 2 437 5 541 c 0,23,24
 8 667 8 667 37.5 778.5 c 132,-1,25
 67 890 67 890 116.5 984.5 c 132,-1,26
 166 1079 166 1079 234 1157 c 132,-1,27
 302 1235 302 1235 382.5 1294 c 128,-1,28
 463 1353 463 1353 553.5 1392.5 c 128,-1,29
 644 1432 644 1432 740 1452 c 1,30,-1
 869 1096 l 1,31,32
 739 1073 739 1073 632 1021 c 0,33,34
 586 998 586 998 540 967 c 128,-1,35
 494 936 494 936 455 894.5 c 128,-1,36
 416 853 416 853 387 800 c 128,-1,37
 358 747 358 747 345 680 c 1,38,39
 360 686 360 686 381.5 696.5 c 128,-1,40
 403 707 403 707 429 713 c 0,41,42
 511 731 511 731 588.5 721 c 128,-1,43
 666 711 666 711 728.5 674 c 128,-1,44
 791 637 791 637 833 574 c 128,-1,45
 875 511 875 511 886 424 c 0,46,47
 894 357 894 357 868.5 288 c 128,-1,48
 843 219 843 219 788.5 162.5 c 128,-1,49
 734 106 734 106 652.5 70 c 128,-1,18
 571 34 571 34 468 33 c 128,-1,19
EndSplineSet
EndChar
StartChar: seven
Encoding: 55 55 23
Width: 1159
GlyphClass: 2
Flags: W
LayerCount: 2
Fore
SplineSet
436 29 m 1,0,-1
 160 170 l 1,1,-1
 678 1038 l 1,2,-1
 6 1020 l 1,3,-1
 0 1403 l 1,4,-1
 1059 1399 l 1,5,-1
 1059 1108 l 1,6,-1
 436 29 l 1,0,-1
EndSplineSet
EndChar
StartChar: eight
Encoding: 56 56 24
Width: 1165
GlyphClass: 2
Flags: W
LayerCount: 2
Fore
SplineSet
502 258 m 0,0,1
 531 258 531 258 559.5 268.5 c 128,-1,2
 588 279 588 279 610 297.5 c 128,-1,3
 632 316 632 316 645.5 341 c 128,-1,4
 659 366 659 366 659 395 c 0,5,6
 659 417 659 417 645.5 437.5 c 128,-1,7
 632 458 632 458 610 474 c 128,-1,8
 588 490 588 490 559.5 500 c 128,-1,9
 531 510 531 510 502 510 c 0,10,11
 465 510 465 510 436 500 c 128,-1,12
 407 490 407 490 387.5 474 c 128,-1,13
 368 458 368 458 358 437.5 c 128,-1,14
 348 417 348 417 348 395 c 0,15,16
 348 336 348 336 387.5 297 c 128,-1,17
 427 258 427 258 502 258 c 0,0,1
522 1065 m 0,18,19
 477 1065 477 1065 439.5 1053 c 128,-1,20
 402 1041 402 1041 374 1018.5 c 128,-1,21
 346 996 346 996 330.5 965 c 128,-1,22
 315 934 315 934 315 897 c 0,23,24
 315 862 315 862 333.5 833 c 128,-1,25
 352 804 352 804 381.5 783.5 c 128,-1,26
 411 763 411 763 448 752 c 128,-1,27
 485 741 485 741 522 741 c 0,28,29
 566 741 566 741 606.5 752 c 128,-1,30
 647 763 647 763 677.5 783 c 128,-1,31
 708 803 708 803 726.5 832 c 128,-1,32
 745 861 745 861 745 897 c 0,33,34
 745 934 745 934 729.5 965 c 128,-1,35
 714 996 714 996 685 1018.5 c 128,-1,36
 656 1041 656 1041 614.5 1053 c 128,-1,37
 573 1065 573 1065 522 1065 c 0,18,19
1063 954 m 0,38,39
 1063 897 1063 897 1045.5 843.5 c 128,-1,40
 1028 790 1028 790 997 743 c 128,-1,41
 966 696 966 696 923.5 657 c 128,-1,42
 881 618 881 618 831 590 c 1,43,44
 876 543 876 543 903 488.5 c 128,-1,45
 930 434 930 434 930 375 c 0,46,47
 930 303 930 303 896 239.5 c 128,-1,48
 862 176 862 176 803.5 129.5 c 128,-1,49
 745 83 745 83 667 56 c 128,-1,50
 589 29 589 29 502 29 c 128,-1,51
 415 29 415 29 338 56 c 128,-1,52
 261 83 261 83 203 129.5 c 128,-1,53
 145 176 145 176 111.5 239.5 c 128,-1,54
 78 303 78 303 78 375 c 0,55,56
 78 404 78 404 87.5 436 c 128,-1,57
 97 468 97 468 113 498.5 c 128,-1,58
 129 529 129 529 149.5 557 c 128,-1,59
 170 585 170 585 193 606 c 1,60,61
 150 642 150 642 114.5 679.5 c 128,-1,62
 79 717 79 717 53.5 759 c 128,-1,63
 28 801 28 801 14 849 c 128,-1,64
 0 897 0 897 0 954 c 0,65,66
 0 1048 0 1048 41 1132.5 c 128,-1,67
 82 1217 82 1217 154.5 1280 c 128,-1,68
 227 1343 227 1343 326 1380 c 128,-1,69
 425 1417 425 1417 541 1417 c 0,70,71
 650 1417 650 1417 745 1380 c 128,-1,72
 840 1343 840 1343 910.5 1280 c 128,-1,73
 981 1217 981 1217 1022 1132.5 c 128,-1,74
 1063 1048 1063 1048 1063 954 c 0,38,39
EndSplineSet
EndChar
StartChar: nine
Encoding: 57 57 25
Width: 1024
GlyphClass: 2
Flags: W
LayerCount: 2
Fore
SplineSet
304 922 m 0,0,1
 299 901 299 901 307 878 c 128,-1,2
 315 855 315 855 334 835 c 128,-1,3
 353 815 353 815 382 801.5 c 128,-1,4
 411 788 411 788 449 786 c 0,5,6
 478 787 478 787 505.5 795 c 128,-1,7
 533 803 533 803 554 818.5 c 128,-1,8
 575 834 575 834 588 855.5 c 128,-1,9
 601 877 601 877 603 905 c 0,10,11
 604 939 604 939 588.5 963.5 c 128,-1,12
 573 988 573 988 550.5 1003.5 c 128,-1,13
 528 1019 528 1019 501.5 1025 c 128,-1,14
 475 1031 475 1031 454 1030 c 0,15,16
 395 1025 395 1025 355.5 996.5 c 128,-1,17
 316 968 316 968 304 922 c 0,0,1
337 1393 m 0,18,19
 409 1408 409 1408 485.5 1402 c 128,-1,20
 562 1396 562 1396 632.5 1369 c 128,-1,21
 703 1342 703 1342 763.5 1294.5 c 128,-1,22
 824 1247 824 1247 865 1178 c 0,23,24
 937 1054 937 1054 950.5 910.5 c 128,-1,25
 964 767 964 767 929 614 c 0,26,27
 916 560 916 560 887.5 498.5 c 128,-1,28
 859 437 859 437 817.5 372.5 c 128,-1,29
 776 308 776 308 724.5 243.5 c 128,-1,30
 673 179 673 179 613.5 120 c 128,-1,31
 554 61 554 61 489 9.5 c 128,-1,32
 424 -42 424 -42 357 -80 c 1,33,-1
 157 168 l 1,34,35
 173 175 173 175 208 194.5 c 128,-1,36
 243 214 243 214 288.5 244 c 128,-1,37
 334 274 334 274 383.5 313.5 c 128,-1,38
 433 353 433 353 477.5 400.5 c 128,-1,39
 522 448 522 448 556.5 503 c 128,-1,40
 591 558 591 558 605 618 c 1,41,42
 559 583 559 583 500.5 568 c 128,-1,43
 442 553 442 553 381 556.5 c 128,-1,44
 320 560 320 560 260 583.5 c 128,-1,45
 200 607 200 607 149 649.5 c 128,-1,46
 98 692 98 692 61 753 c 128,-1,47
 24 814 24 814 9 895 c 0,48,49
 0 941 0 941 2.5 992 c 128,-1,50
 5 1043 5 1043 19 1093.5 c 128,-1,51
 33 1144 33 1144 59.5 1192 c 128,-1,52
 86 1240 86 1240 125 1279.5 c 128,-1,53
 164 1319 164 1319 217 1348.5 c 128,-1,54
 270 1378 270 1378 337 1393 c 0,18,19
EndSplineSet
EndChar
StartChar: colon
Encoding: 58 58 26
Width: 442
GlyphClass: 2
Flags: W
LayerCount: 2
Fore
SplineSet
0 291 m 0,0,1
 0 322 0 322 12 349 c 128,-1,2
 24 376 24 376 44 395.5 c 128,-1,3
 64 415 64 415 90.5 426 c 128,-1,4
 117 437 117 437 147 437 c 0,5,6
 178 437 178 437 205.5 425.5 c 128,-1,7
 233 414 233 414 253.5 394 c 128,-1,8
 274 374 274 374 285.5 347.5 c 128,-1,9
 297 321 297 321 297 291 c 0,10,11
 297 259 297 259 285.5 232 c 128,-1,12
 274 205 274 205 253.5 185.5 c 128,-1,13
 233 166 233 166 205.5 155 c 128,-1,14
 178 144 178 144 147 144 c 0,15,16
 115 144 115 144 88 155 c 128,-1,17
 61 166 61 166 41.5 185.5 c 128,-1,18
 22 205 22 205 11 232 c 128,-1,19
 0 259 0 259 0 291 c 0,0,1
0 963 m 0,20,21
 0 994 0 994 11.5 1023.5 c 128,-1,22
 23 1053 23 1053 44.5 1076 c 128,-1,23
 66 1099 66 1099 96.5 1113.5 c 128,-1,24
 127 1128 127 1128 166 1129 c 0,25,26
 208 1130 208 1130 240.5 1115 c 128,-1,27
 273 1100 273 1100 295 1076 c 128,-1,28
 317 1052 317 1052 327 1022 c 128,-1,29
 337 992 337 992 336 963 c 0,30,31
 334 931 334 931 319.5 904 c 128,-1,32
 305 877 305 877 281.5 857.5 c 128,-1,33
 258 838 258 838 228 827 c 128,-1,34
 198 816 198 816 166 816 c 0,35,36
 135 816 135 816 105.5 827 c 128,-1,37
 76 838 76 838 52.5 857.5 c 128,-1,38
 29 877 29 877 14.5 904 c 128,-1,39
 0 931 0 931 0 963 c 0,20,21
EndSplineSet
EndChar
StartChar: semicolon
Encoding: 59 59 27
AltUni2: 00037e.ffffffff.0
Width: 420
GlyphClass: 2
Flags: W
LayerCount: 2
Fore
SplineSet
313 321 m 0,0,1
 316 305 316 305 318 285 c 128,-1,2
 320 265 320 265 317.5 243 c 128,-1,3
 315 221 315 221 306.5 197.5 c 128,-1,4
 298 174 298 174 281 151 c 0,5,6
 265 128 265 128 244.5 105 c 128,-1,7
 224 82 224 82 202.5 60 c 128,-1,8
 181 38 181 38 158.5 18 c 128,-1,9
 136 -2 136 -2 115 -17 c 1,10,-1
 41 54 l 1,11,12
 68 74 68 74 87 91.5 c 128,-1,13
 106 109 106 109 119 123 c 0,14,15
 133 138 133 138 143 151 c 1,16,17
 120 158 120 158 99.5 168.5 c 128,-1,18
 79 179 79 179 62.5 193.5 c 128,-1,19
 46 208 46 208 35 227.5 c 128,-1,20
 24 247 24 247 20 273 c 0,21,22
 15 304 15 304 23.5 332.5 c 128,-1,23
 32 361 32 361 49 383.5 c 128,-1,24
 66 406 66 406 90.5 421 c 128,-1,25
 115 436 115 436 143 439 c 0,26,27
 205 446 205 446 251.5 414 c 128,-1,28
 298 382 298 382 313 321 c 0,0,1
0 986 m 0,29,30
 0 1016 0 1016 11 1045 c 128,-1,31
 22 1074 22 1074 43 1097 c 128,-1,32
 64 1120 64 1120 94 1134 c 128,-1,33
 124 1148 124 1148 162 1148 c 0,34,35
 193 1148 193 1148 219 1134 c 128,-1,36
 245 1120 245 1120 264 1097 c 128,-1,37
 283 1074 283 1074 294 1045 c 128,-1,38
 305 1016 305 1016 305 986 c 0,39,40
 305 955 305 955 294 925.5 c 128,-1,41
 283 896 283 896 264 873 c 128,-1,42
 245 850 245 850 219 836 c 128,-1,43
 193 822 193 822 162 822 c 0,44,45
 124 822 124 822 94 836 c 128,-1,46
 64 850 64 850 43 873 c 128,-1,47
 22 896 22 896 11 925.5 c 128,-1,48
 0 955 0 955 0 986 c 0,29,30
EndSplineSet
EndChar
StartChar: less
Encoding: 60 60 28
Width: 963
GlyphClass: 2
Flags: W
LayerCount: 2
Fore
SplineSet
813 311 m 1,0,-1
 643 123 l 1,1,-1
 0 719 l 1,2,-1
 672 1298 l 1,3,-1
 856 1087 l 1,4,-1
 373 690 l 1,5,-1
 813 311 l 1,0,-1
EndSplineSet
EndChar
StartChar: equal
Encoding: 61 61 29
Width: 944
GlyphClass: 2
Flags: W
LayerCount: 2
Fore
SplineSet
825 471 m 1,0,-1
 2 444 l 1,1,-1
 4 664 l 1,2,-1
 829 651 l 1,3,-1
 825 471 l 1,0,-1
844 745 m 1,4,-1
 29 729 l 1,5,-1
 31 946 l 1,6,-1
 848 934 l 1,7,-1
 844 745 l 1,4,-1
EndSplineSet
EndChar
StartChar: greater
Encoding: 62 62 30
Width: 961
GlyphClass: 2
Flags: W
LayerCount: 2
Fore
SplineSet
483 690 m 1,0,-1
 0 1087 l 1,1,-1
 184 1298 l 1,2,-1
 856 719 l 1,3,-1
 213 123 l 1,4,-1
 43 311 l 1,5,-1
 483 690 l 1,0,-1
EndSplineSet
EndChar
StartChar: question
Encoding: 63 63 31
Width: 1229
GlyphClass: 2
Flags: W
LayerCount: 2
Fore
SplineSet
465 481 m 1,0,1
 477 553 477 553 502.5 602.5 c 128,-1,2
 528 652 528 652 560 688 c 128,-1,3
 592 724 592 724 625.5 750.5 c 128,-1,4
 659 777 659 777 688 802 c 128,-1,5
 717 827 717 827 737.5 855 c 128,-1,6
 758 883 758 883 762 922 c 0,7,8
 768 983 768 983 744 1021.5 c 128,-1,9
 720 1060 720 1060 675.5 1077 c 128,-1,10
 631 1094 631 1094 571 1091.5 c 128,-1,11
 511 1089 511 1089 446 1068.5 c 128,-1,12
 381 1048 381 1048 315.5 1011 c 128,-1,13
 250 974 250 974 195 922 c 1,14,-1
 -2 1255 l 1,15,16
 56 1300 56 1300 117 1333.5 c 128,-1,17
 178 1367 178 1367 245 1389.5 c 128,-1,18
 312 1412 312 1412 387 1423 c 128,-1,19
 462 1434 462 1434 549 1434 c 0,20,21
 651 1434 651 1434 744 1411.5 c 128,-1,22
 837 1389 837 1389 912.5 1346.5 c 128,-1,23
 988 1304 988 1304 1041.5 1241.5 c 128,-1,24
 1095 1179 1095 1179 1118 1098 c 1,25,26
 1132 1034 1132 1034 1125 977.5 c 128,-1,27
 1118 921 1118 921 1098 873 c 128,-1,28
 1078 825 1078 825 1050 786.5 c 128,-1,29
 1022 748 1022 748 995 720 c 128,-1,30
 968 692 968 692 947 675.5 c 128,-1,31
 926 659 926 659 920 655 c 0,32,33
 899 638 899 638 874.5 621.5 c 128,-1,34
 850 605 850 605 823.5 580.5 c 128,-1,35
 797 556 797 556 770.5 518 c 128,-1,36
 744 480 744 480 719 420 c 1,37,-1
 465 481 l 1,0,1
428 150 m 0,38,39
 428 178 428 178 438.5 205 c 128,-1,40
 449 232 449 232 468.5 253.5 c 128,-1,41
 488 275 488 275 516 288.5 c 128,-1,42
 544 302 544 302 580 303 c 0,43,44
 619 304 619 304 648.5 290 c 128,-1,45
 678 276 678 276 698 254 c 128,-1,46
 718 232 718 232 727 204.5 c 128,-1,47
 736 177 736 177 735 150 c 0,48,49
 733 121 733 121 720 96 c 128,-1,50
 707 71 707 71 685.5 53 c 128,-1,51
 664 35 664 35 637 24.5 c 128,-1,52
 610 14 610 14 580 14 c 0,53,54
 552 14 552 14 525 24.5 c 128,-1,55
 498 35 498 35 476.5 53 c 128,-1,56
 455 71 455 71 441.5 96 c 128,-1,57
 428 121 428 121 428 150 c 0,38,39
EndSplineSet
EndChar
StartChar: at
Encoding: 64 64 32
Width: 1411
GlyphClass: 2
Flags: W
LayerCount: 2
Fore
SplineSet
616 537 m 0,0,1
 633 534 633 534 655 535 c 128,-1,2
 677 536 677 536 699.5 543.5 c 128,-1,3
 722 551 722 551 742.5 565 c 128,-1,4
 763 579 763 579 776 602 c 0,5,6
 787 625 787 625 789 645.5 c 128,-1,7
 791 666 791 666 788 682 c 0,8,9
 784 700 784 700 776 717 c 0,10,11
 768 735 768 735 747.5 748.5 c 128,-1,12
 727 762 727 762 701 769.5 c 128,-1,13
 675 777 675 777 647 776.5 c 128,-1,14
 619 776 619 776 596 764 c 0,15,16
 583 757 583 757 570.5 744.5 c 128,-1,17
 558 732 558 732 548 717 c 128,-1,18
 538 702 538 702 532 685 c 128,-1,19
 526 668 526 668 526 651 c 0,20,21
 526 624 526 624 533.5 604.5 c 128,-1,22
 541 585 541 585 553.5 571 c 128,-1,23
 566 557 566 557 582 549 c 128,-1,24
 598 541 598 541 616 537 c 0,0,1
1302 831 m 0,25,26
 1313 740 1313 740 1304 672.5 c 128,-1,27
 1295 605 1295 605 1273 557 c 128,-1,28
 1251 509 1251 509 1220 478.5 c 128,-1,29
 1189 448 1189 448 1157 430 c 128,-1,30
 1125 412 1125 412 1096.5 405.5 c 128,-1,31
 1068 399 1068 399 1051 399 c 0,32,33
 1035 399 1035 399 1014 403.5 c 128,-1,34
 993 408 993 408 971.5 416.5 c 128,-1,35
 950 425 950 425 929 437.5 c 128,-1,36
 908 450 908 450 891 467 c 1,37,38
 857 433 857 433 817 411.5 c 128,-1,39
 777 390 777 390 735 379 c 128,-1,40
 693 368 693 368 651 368 c 128,-1,41
 609 368 609 368 573 377 c 0,42,43
 522 389 522 389 480 410 c 128,-1,44
 438 431 438 431 407 461.5 c 128,-1,45
 376 492 376 492 359 533 c 128,-1,46
 342 574 342 574 342 625 c 0,47,48
 342 668 342 668 354.5 710 c 128,-1,49
 367 752 367 752 391 789 c 128,-1,50
 415 826 415 826 448.5 856 c 128,-1,51
 482 886 482 886 524 905 c 0,52,53
 593 936 593 936 663 936 c 128,-1,54
 733 936 733 936 801 899 c 1,55,-1
 960 899 l 1,56,57
 960 843 960 843 963 800.5 c 128,-1,58
 966 758 966 758 970.5 727 c 128,-1,59
 975 696 975 696 981.5 674.5 c 128,-1,60
 988 653 988 653 994 639 c 0,61,62
 1009 606 1009 606 1028 602 c 0,63,64
 1054 594 1054 594 1071.5 606 c 128,-1,65
 1089 618 1089 618 1097.5 646.5 c 128,-1,66
 1106 675 1106 675 1106 716.5 c 128,-1,67
 1106 758 1106 758 1098 809 c 0,68,69
 1080 886 1080 886 1039 942 c 128,-1,70
 998 998 998 998 942.5 1034.5 c 128,-1,71
 887 1071 887 1071 821 1088.5 c 128,-1,72
 755 1106 755 1106 688 1106 c 0,73,74
 653 1106 653 1106 610 1102 c 128,-1,75
 567 1098 567 1098 521 1085 c 128,-1,76
 475 1072 475 1072 429.5 1047.5 c 128,-1,77
 384 1023 384 1023 346 983 c 0,78,79
 317 954 317 954 292 917 c 128,-1,80
 267 880 267 880 248 835 c 128,-1,81
 229 790 229 790 218 737.5 c 128,-1,82
 207 685 207 685 207 625 c 0,83,84
 207 549 207 549 227.5 492 c 128,-1,85
 248 435 248 435 279 393.5 c 128,-1,86
 310 352 310 352 344.5 324.5 c 128,-1,87
 379 297 379 297 408 279 c 0,88,89
 449 253 449 253 500 239 c 128,-1,90
 551 225 551 225 603.5 220.5 c 128,-1,91
 656 216 656 216 707.5 221 c 128,-1,92
 759 226 759 226 801 240 c 1,93,-1
 891 55 l 1,94,95
 823 21 823 21 740 10 c 128,-1,96
 657 -1 657 -1 573 6.5 c 128,-1,97
 489 14 489 14 411 38 c 128,-1,98
 333 62 333 62 276 100 c 0,99,100
 142 191 142 191 71 325 c 128,-1,101
 0 459 0 459 2 651 c 0,102,103
 3 718 3 718 19 785 c 128,-1,104
 35 852 35 852 62.5 914 c 128,-1,105
 90 976 90 976 127 1030 c 128,-1,106
 164 1084 164 1084 207 1126 c 0,107,108
 258 1178 258 1178 319.5 1213.5 c 128,-1,109
 381 1249 381 1249 445.5 1271 c 128,-1,110
 510 1293 510 1293 573 1302 c 128,-1,111
 636 1311 636 1311 688 1311 c 0,112,113
 790 1311 790 1311 892.5 1277.5 c 128,-1,114
 995 1244 995 1244 1080.5 1181.5 c 128,-1,115
 1166 1119 1166 1119 1225.5 1030.5 c 128,-1,116
 1285 942 1285 942 1302 831 c 0,25,26
EndSplineSet
EndChar
StartChar: A
Encoding: 65 65 33
AltUni2: 0003ac.ffffffff.0 000386.ffffffff.0 000410.ffffffff.0 000391.ffffffff.0 000061.ffffffff.0 0003b1.ffffffff.0 000430.ffffffff.0
Width: 1454
GlyphClass: 2
Flags: W
AnchorPoint: "bottomatt" 717 0 basechar 0
AnchorPoint: "bottom" 717 -10 basechar 0
AnchorPoint: "bottomattside" 1084 51 basechar 0
AnchorPoint: "top" 669 1451 basechar 0
LayerCount: 2
Fore
SplineSet
852 582 m 1,0,-1
 678 989 l 1,1,-1
 543 582 l 1,2,-1
 852 582 l 1,0,-1
930 408 m 1,3,-1
 485 408 l 1,4,-1
 348 0 l 1,5,-1
 0 96 l 1,6,-1
 524 1434 l 1,7,-1
 813 1415 l 1,8,-1
 1356 117 l 1,9,-1
 1085 18 l 1,10,-1
 930 408 l 1,3,-1
EndSplineSet
EndChar
StartChar: B
Encoding: 66 66 34
AltUni2: 000412.ffffffff.0 000392.ffffffff.0 000062.ffffffff.0 0003b2.ffffffff.0 000432.ffffffff.0
Width: 1230
GlyphClass: 2
Flags: W
AnchorPoint: "bottomattside" 666 61 basechar 0
AnchorPoint: "bottomatt" 481 10 basechar 0
AnchorPoint: "bottom" 553 -72 basechar 0
AnchorPoint: "top" 600 1539 basechar 0
LayerCount: 2
Fore
SplineSet
387 743 m 1,0,1
 398 743 398 743 431 740 c 128,-1,2
 464 737 464 737 506.5 738.5 c 128,-1,3
 549 740 549 740 595 748.5 c 128,-1,4
 641 757 641 757 678.5 778.5 c 128,-1,5
 716 800 716 800 738 837 c 128,-1,6
 760 874 760 874 756 934 c 0,7,8
 751 989 751 989 722 1023 c 128,-1,9
 693 1057 693 1057 643.5 1074 c 128,-1,10
 594 1091 594 1091 527.5 1094 c 128,-1,11
 461 1097 461 1097 381 1090 c 1,12,-1
 387 743 l 1,0,1
406 211 m 1,13,14
 421 210 421 210 449.5 208.5 c 128,-1,15
 478 207 478 207 511.5 209 c 128,-1,16
 545 211 545 211 579.5 217 c 128,-1,17
 614 223 614 223 640.5 238 c 128,-1,18
 667 253 667 253 682.5 277.5 c 128,-1,19
 698 302 698 302 694 340 c 0,20,21
 688 394 688 394 656.5 420.5 c 128,-1,22
 625 447 625 447 581.5 456.5 c 128,-1,23
 538 466 538 466 490 463.5 c 128,-1,24
 442 461 442 461 403 457 c 1,25,-1
 406 211 l 1,13,14
1114 1053 m 0,26,27
 1123 1009 1123 1009 1119 956 c 128,-1,28
 1115 903 1115 903 1097 851 c 128,-1,29
 1079 799 1079 799 1047 752 c 128,-1,30
 1015 705 1015 705 969 674 c 0,31,32
 944 657 944 657 920.5 645.5 c 128,-1,33
 897 634 897 634 873 625.5 c 128,-1,34
 849 617 849 617 823 610 c 128,-1,35
 797 603 797 603 768 596 c 1,36,37
 842 553 842 553 887 506 c 128,-1,38
 932 459 932 459 950 391 c 0,39,40
 959 361 959 361 959 326 c 128,-1,41
 959 291 959 291 951 255.5 c 128,-1,42
 943 220 943 220 926 186.5 c 128,-1,43
 909 153 909 153 883 127 c 0,44,45
 839 83 839 83 776.5 58 c 128,-1,46
 714 33 714 33 647 20.5 c 128,-1,47
 580 8 580 8 517 4.5 c 128,-1,48
 454 1 454 1 410 0 c 2,49,-1
 39 0 l 1,50,-1
 0 1423 l 1,51,-1
 391 1444 l 2,52,53
 427 1444 427 1444 468.5 1443.5 c 128,-1,54
 510 1443 510 1443 558.5 1439 c 128,-1,55
 607 1435 607 1435 663 1426 c 128,-1,56
 719 1417 719 1417 784 1401 c 0,57,58
 848 1385 848 1385 905 1352 c 128,-1,59
 962 1319 962 1319 1006 1273 c 128,-1,60
 1050 1227 1050 1227 1078 1171 c 128,-1,61
 1106 1115 1106 1115 1114 1053 c 0,26,27
EndSplineSet
EndChar
StartChar: C
Encoding: 67 67 35
AltUni2: 000421.ffffffff.0 000063.ffffffff.0 000441.ffffffff.0
Width: 1351
GlyphClass: 2
Flags: W
AnchorPoint: "bottomattside" 1088 88 basechar 0
AnchorPoint: "bottom" 819 -82 basechar 0
AnchorPoint: "bottomatt" 682 0 basechar 0
AnchorPoint: "top" 842 1536 basechar 0
LayerCount: 2
Fore
SplineSet
1185 86 m 1,0,1
 1149 57 1149 57 1100.5 38 c 128,-1,2
 1052 19 1052 19 998 8.5 c 128,-1,3
 944 -2 944 -2 888.5 -6 c 128,-1,4
 833 -10 833 -10 783 -10 c 0,5,6
 687 -10 687 -10 592.5 13 c 128,-1,7
 498 36 498 36 412.5 79 c 128,-1,8
 327 122 327 122 254 182.5 c 128,-1,9
 181 243 181 243 127.5 317.5 c 128,-1,10
 74 392 74 392 43.5 479 c 128,-1,11
 13 566 13 566 13 662 c 1,12,13
 8 768 8 768 29 867.5 c 128,-1,14
 50 967 50 967 95 1054.5 c 128,-1,15
 140 1142 140 1142 208.5 1214.5 c 128,-1,16
 277 1287 277 1287 368.5 1339.5 c 128,-1,17
 460 1392 460 1392 573 1421 c 128,-1,18
 686 1450 686 1450 820 1450 c 0,19,20
 907 1450 907 1450 984.5 1437.5 c 128,-1,21
 1062 1425 1062 1425 1121.5 1408.5 c 128,-1,22
 1181 1392 1181 1392 1218 1376.5 c 128,-1,23
 1255 1361 1255 1361 1262 1354 c 1,24,-1
 1262 989 l 1,25,26
 1241 1003 1241 1003 1199.5 1019.5 c 128,-1,27
 1158 1036 1158 1036 1104 1048.5 c 128,-1,28
 1050 1061 1050 1061 986.5 1066.5 c 128,-1,29
 923 1072 923 1072 859 1065 c 1,30,31
 820 1065 820 1065 768.5 1055 c 128,-1,32
 717 1045 717 1045 663 1022.5 c 128,-1,33
 609 1000 609 1000 558.5 964.5 c 128,-1,34
 508 929 508 929 471.5 877.5 c 128,-1,35
 435 826 435 826 419 758 c 128,-1,36
 403 690 403 690 417 604 c 0,37,38
 431 532 431 532 479 477.5 c 128,-1,39
 527 423 527 423 594.5 386 c 128,-1,40
 662 349 662 349 743 330.5 c 128,-1,41
 824 312 824 312 904.5 310.5 c 128,-1,42
 985 309 985 309 1058.5 325 c 128,-1,43
 1132 341 1132 341 1185 375 c 1,44,-1
 1185 86 l 1,0,1
EndSplineSet
EndChar
StartChar: D
Encoding: 68 68 36
AltUni2: 000064.ffffffff.0
Width: 1487
GlyphClass: 2
Flags: W
AnchorPoint: "bottomattside" 995 199 basechar 0
AnchorPoint: "bottomatt" 635 41 basechar 0
AnchorPoint: "bottom" 727 -31 basechar 0
AnchorPoint: "top" 672 1539 basechar 0
LayerCount: 2
Fore
SplineSet
352 283 m 5,0,1
 505 273 505 273 626.5 294.5 c 132,-1,2
 748 316 748 316 831 368 c 132,-1,3
 914 420 914 420 955 501.5 c 132,-1,4
 996 583 996 583 989 692 c 4,5,6
 985 762 985 762 961 815 c 132,-1,7
 937 868 937 868 899.5 906.5 c 132,-1,8
 862 945 862 945 813.5 970 c 132,-1,9
 765 995 765 995 712.5 1009.5 c 132,-1,10
 660 1024 660 1024 605 1030 c 132,-1,11
 550 1036 550 1036 500 1035.5 c 132,-1,12
 450 1035 450 1035 407 1030 c 132,-1,13
 364 1025 364 1025 334 1018 c 5,14,-1
 352 283 l 5,0,1
1372 874 m 132,-1,16
 1397 742 1397 742 1379 627.5 c 132,-1,17
 1361 513 1361 513 1310 419 c 132,-1,18
 1259 325 1259 325 1178 251.5 c 132,-1,19
 1097 178 1097 178 995 126.5 c 132,-1,20
 893 75 893 75 774 46 c 132,-1,21
 655 17 655 17 528 12 c 4,22,23
 380 4 380 4 283 3 c 132,-1,24
 186 2 186 2 127 4 c 4,25,26
 58 6 58 6 20 12 c 5,27,-1
 0 1413 l 5,28,29
 61 1420 61 1420 128.5 1425.5 c 132,-1,30
 196 1431 196 1431 260 1434.5 c 132,-1,31
 324 1438 324 1438 379 1440 c 132,-1,32
 434 1442 434 1442 471 1442 c 4,33,34
 535 1442 535 1442 619.5 1436.5 c 132,-1,35
 704 1431 704 1431 796 1412 c 132,-1,36
 888 1393 888 1393 980 1356 c 132,-1,37
 1072 1319 1072 1319 1151 1256 c 132,-1,38
 1230 1193 1230 1193 1288.5 1099.5 c 132,-1,15
 1347 1006 1347 1006 1372 874 c 132,-1,16
EndSplineSet
EndChar
StartChar: E
Encoding: 69 69 37
AltUni2: 0003ad.ffffffff.0 000388.ffffffff.0 000415.ffffffff.0 000395.ffffffff.0 000065.ffffffff.0 0003b5.ffffffff.0 000435.ffffffff.0
Width: 1271
GlyphClass: 2
Flags: W
AnchorPoint: "bottomatt" 522 20 basechar 0
AnchorPoint: "bottom" 594 -20 basechar 0
AnchorPoint: "bottomattside" 903 20 basechar 0
AnchorPoint: "top" 657 1457 basechar 0
LayerCount: 2
Fore
SplineSet
369 1090 m 1,0,-1
 375 618 l 1,1,-1
 813 618 l 1,2,-1
 813 426 l 1,3,-1
 383 426 l 1,4,-1
 387 270 l 1,5,-1
 1036 291 l 1,6,-1
 1044 18 l 1,7,-1
 18 0 l 1,8,-1
 0 1432 l 1,9,-1
 1161 1432 l 1,10,-1
 1161 1090 l 1,11,-1
 369 1090 l 1,0,-1
EndSplineSet
EndChar
StartChar: F
Encoding: 70 70 38
AltUni2: 000066.ffffffff.0
Width: 1262
GlyphClass: 2
Flags: W
AnchorPoint: "bottomattside" 287 23 basechar 0
AnchorPoint: "bottomatt" 184 10 basechar 0
AnchorPoint: "bottom" 195 -51 basechar 0
AnchorPoint: "top" 657 1457 basechar 0
LayerCount: 2
Fore
SplineSet
387 0 m 1,0,-1
 0 8 l 1,1,-1
 20 1444 l 1,2,-1
 1161 1411 l 1,3,-1
 1153 1069 l 1,4,-1
 389 1090 l 1,5,-1
 389 604 l 1,6,-1
 838 604 l 1,7,-1
 836 412 l 1,8,-1
 389 416 l 1,9,-1
 387 0 l 1,0,-1
EndSplineSet
EndChar
StartChar: G
Encoding: 71 71 39
AltUni2: 000067.ffffffff.0
Width: 1371
GlyphClass: 2
Flags: W
AnchorPoint: "bottomattside" 1071 23 basechar 0
AnchorPoint: "bottomatt" 666 20 basechar 0
AnchorPoint: "bottom" 758 -61 basechar 0
AnchorPoint: "top" 766 1446 basechar 0
LayerCount: 2
Fore
SplineSet
857 1061 m 1,0,1
 818 1061 818 1061 766 1050.5 c 128,-1,2
 714 1040 714 1040 659.5 1017.5 c 128,-1,3
 605 995 605 995 554.5 959 c 128,-1,4
 504 923 504 923 467.5 871.5 c 128,-1,5
 431 820 431 820 414.5 752 c 128,-1,6
 398 684 398 684 413 598 c 0,7,8
 428 519 428 519 475.5 461.5 c 128,-1,9
 523 404 523 404 589.5 368.5 c 128,-1,10
 656 333 656 333 735.5 318.5 c 128,-1,11
 815 304 815 304 894 311 c 1,12,-1
 894 483 l 1,13,-1
 722 483 l 1,14,-1
 722 715 l 1,15,-1
 1185 715 l 1,16,-1
 1185 369 l 1,17,-1
 1185 80 l 1,18,-1
 1185 2 l 1,19,-1
 914 2 l 1,20,-1
 779 2 l 2,21,22
 683 2 683 2 588.5 24 c 128,-1,23
 494 46 494 46 408.5 86.5 c 128,-1,24
 323 127 323 127 250 185 c 128,-1,25
 177 243 177 243 123.5 316 c 128,-1,26
 70 389 70 389 39.5 475 c 128,-1,27
 9 561 9 561 9 657 c 1,28,29
 4 763 4 763 25 862 c 128,-1,30
 46 961 46 961 91 1049 c 128,-1,31
 136 1137 136 1137 204.5 1210 c 128,-1,32
 273 1283 273 1283 364.5 1335.5 c 128,-1,33
 456 1388 456 1388 569.5 1417 c 128,-1,34
 683 1446 683 1446 818 1446 c 0,35,36
 905 1446 905 1446 982 1433.5 c 128,-1,37
 1059 1421 1059 1421 1118 1404.5 c 128,-1,38
 1177 1388 1177 1388 1214.5 1372.5 c 128,-1,39
 1252 1357 1252 1357 1260 1350 c 1,40,-1
 1260 985 l 1,41,42
 1239 999 1239 999 1197.5 1015 c 128,-1,43
 1156 1031 1156 1031 1102 1043.5 c 128,-1,44
 1048 1056 1048 1056 984.5 1062 c 128,-1,45
 921 1068 921 1068 857 1061 c 1,0,1
EndSplineSet
EndChar
StartChar: H
Encoding: 72 72 40
AltUni2: 0003ae.ffffffff.0 000389.ffffffff.0 00041d.ffffffff.0 000397.ffffffff.0 000068.ffffffff.0 0003b7.ffffffff.0 00043d.ffffffff.0
Width: 1558
GlyphClass: 2
Flags: W
AnchorPoint: "bottomattside" 1135 41 basechar 0
AnchorPoint: "bottomatt" 778 0 basechar 0
AnchorPoint: "bottom" 799 -41 basechar 0
AnchorPoint: "top" 768 1444 basechar 0
LayerCount: 2
Fore
SplineSet
1413 1430 m 1,0,-1
 1456 33 l 1,1,-1
 1124 18 l 1,2,-1
 1112 422 l 1,3,-1
 430 408 l 1,4,-1
 430 0 l 1,5,-1
 2 0 l 1,6,-1
 0 1399 l 1,7,-1
 428 1399 l 1,8,-1
 428 641 l 1,9,-1
 1102 659 l 1,10,-1
 1075 1417 l 5,11,-1
 1413 1430 l 1,0,-1
EndSplineSet
EndChar
StartChar: I
Encoding: 73 73 41
AltUni2: 0003af.ffffffff.0 00038a.ffffffff.0 000399.ffffffff.0 000131.ffffffff.0 0003b9.ffffffff.0 000406.ffffffff.0 000456.ffffffff.0
Width: 585
GlyphClass: 2
Flags: W
AnchorPoint: "bottomattside" 102 31 basechar 0
AnchorPoint: "bottomatt" 246 10 basechar 0
AnchorPoint: "bottom" 256 -61 basechar 0
AnchorPoint: "top" 320 1471 basechar 0
LayerCount: 2
Fore
SplineSet
459 -8 m 5,0,-1
 66 12 l 5,1,-1
 125 1446 l 5,2,-1
 518 1425 l 5,3,-1
 459 -8 l 5,0,-1
EndSplineSet
EndChar
StartChar: J
Encoding: 74 74 42
AltUni2: 000237.ffffffff.0 00006a.ffffffff.0
Width: 975
GlyphClass: 2
Flags: W
AnchorPoint: "bottomattside" 515 70 basechar 0
AnchorPoint: "bottomatt" 369 10 basechar 0
AnchorPoint: "bottom" 379 -41 basechar 0
AnchorPoint: "top" 681 1463 basechar 0
LayerCount: 2
Fore
SplineSet
500 1438 m 1,0,-1
 864 1419 l 1,1,2
 864 1366 864 1366 862.5 1275 c 128,-1,3
 861 1184 861 1184 857 1073.5 c 128,-1,4
 853 963 853 963 847.5 842.5 c 128,-1,5
 842 722 842 722 833 611.5 c 128,-1,6
 824 501 824 501 812.5 410 c 128,-1,7
 801 319 801 319 786 266 c 0,8,9
 765 195 765 195 724.5 146 c 128,-1,10
 684 97 684 97 635 67 c 128,-1,11
 586 37 586 37 535 22.5 c 128,-1,12
 484 8 484 8 442 6 c 0,13,14
 377 2 377 2 313 10.5 c 128,-1,15
 249 19 249 19 191.5 36.5 c 128,-1,16
 134 54 134 54 85 79 c 128,-1,17
 36 104 36 104 0 133 c 1,18,-1
 96 362 l 1,19,20
 106 357 106 357 125.5 348.5 c 128,-1,21
 145 340 145 340 171 330.5 c 128,-1,22
 197 321 197 321 226 312 c 128,-1,23
 255 303 255 303 284 298.5 c 128,-1,24
 313 294 313 294 339 294.5 c 128,-1,25
 365 295 365 295 385 305 c 0,26,27
 428 326 428 326 446 406 c 128,-1,28
 464 486 464 486 471 626.5 c 128,-1,29
 478 767 478 767 481.5 969 c 128,-1,30
 485 1171 485 1171 500 1438 c 1,0,-1
EndSplineSet
EndChar
StartChar: K
Encoding: 75 75 43
AltUni2: 00041a.ffffffff.0 00039a.ffffffff.0 00006b.ffffffff.0 0003ba.ffffffff.0 00043a.ffffffff.0
Width: 1185
GlyphClass: 2
Flags: W
AnchorPoint: "bottomattside" 819 88 basechar 0
AnchorPoint: "bottomatt" 584 0 basechar 0
AnchorPoint: "bottom" 635 -41 basechar 0
AnchorPoint: "top" 635 1475 basechar 0
LayerCount: 2
Fore
SplineSet
582 680 m 1,0,-1
 1053 215 l 1,1,-1
 858 20 l 1,2,-1
 426 512 l 1,3,-1
 467 20 l 1,4,-1
 78 0 l 1,5,-1
 0 1423 l 1,6,-1
 389 1442 l 1,7,-1
 410 936 l 1,8,-1
 838 1442 l 1,9,-1
 1092 1208 l 1,10,-1
 582 680 l 1,0,-1
EndSplineSet
EndChar
StartChar: L
Encoding: 76 76 44
AltUni2: 00006c.ffffffff.0
Width: 1023
GlyphClass: 2
Flags: W
AnchorPoint: "bottomattside" 772 53 basechar 0
AnchorPoint: "bottomatt" 451 20 basechar 0
AnchorPoint: "bottom" 471 -10 basechar 0
AnchorPoint: "top" 218 1536 basechar 0
LayerCount: 2
Fore
SplineSet
59 0 m 1,0,-1
 0 1425 l 1,1,-1
 391 1444 l 1,2,-1
 430 266 l 1,3,-1
 868 297 l 1,4,-1
 879 39 l 1,5,-1
 59 0 l 1,0,-1
EndSplineSet
EndChar
StartChar: M
Encoding: 77 77 45
AltUni2: 00041c.ffffffff.0 00039c.ffffffff.0 00006d.ffffffff.0 0003bc.ffffffff.0 00043c.ffffffff.0
Width: 1575
GlyphClass: 2
Flags: W
AnchorPoint: "bottomattside" 1164 59 basechar 0
AnchorPoint: "bottomatt" 737 31 basechar 0
AnchorPoint: "bottom" 748 -82 basechar 0
AnchorPoint: "top" 778 1447 basechar 0
LayerCount: 2
Fore
SplineSet
782 393 m 1,0,-1
 1180 1393 l 1,1,-1
 1450 1401 l 1,2,-1
 1473 39 l 1,3,-1
 1151 35 l 1,4,-1
 1147 774 l 1,5,-1
 823 -8 l 1,6,-1
 678 8 l 1,7,-1
 365 692 l 1,8,-1
 387 2 l 1,9,-1
 23 2 l 1,10,-1
 4 1432 l 1,11,-1
 311 1432 l 1,12,-1
 782 393 l 1,0,-1
EndSplineSet
EndChar
StartChar: N
Encoding: 78 78 46
AltUni2: 00039d.ffffffff.0 00006e.ffffffff.0 0003bd.ffffffff.0
Width: 1345
GlyphClass: 2
Flags: W
AnchorPoint: "bottomattside" 977 47 basechar 0
AnchorPoint: "bottomatt" 645 0 basechar 0
AnchorPoint: "bottom" 666 -41 basechar 0
AnchorPoint: "top" 643 1448 basechar 0
LayerCount: 2
Fore
SplineSet
365 868 m 1,0,-1
 385 0 l 1,1,-1
 0 0 l 1,2,-1
 0 1434 l 1,3,-1
 291 1434 l 1,4,-1
 930 522 l 1,5,-1
 887 1419 l 1,6,-1
 1217 1432 l 1,7,-1
 1239 39 l 1,8,-1
 969 18 l 1,9,-1
 365 868 l 1,0,-1
EndSplineSet
EndChar
StartChar: O
Encoding: 79 79 47
AltUni2: 0003cc.ffffffff.0 00038c.ffffffff.0 00041e.ffffffff.0 00039f.ffffffff.0 00006f.ffffffff.0 0003bf.ffffffff.0 00043e.ffffffff.0
Width: 1596
GlyphClass: 2
Flags: W
AnchorPoint: "bottomattside" 792 27 basechar 0
AnchorPoint: "bottomatt" 758 0 basechar 0
AnchorPoint: "bottom" 778 -51 basechar 0
AnchorPoint: "top" 684 1481 basechar 0
LayerCount: 2
Fore
SplineSet
743 276 m 4,0,1
 836 276 836 276 915 309 c 132,-1,2
 994 342 994 342 1051.5 397.5 c 132,-1,3
 1109 453 1109 453 1141.5 525.5 c 132,-1,4
 1174 598 1174 598 1174 678 c 4,5,6
 1174 766 1174 766 1141.5 839.5 c 132,-1,7
 1109 913 1109 913 1051.5 965.5 c 132,-1,8
 994 1018 994 1018 915 1047.5 c 132,-1,9
 836 1077 836 1077 743 1077 c 4,10,11
 658 1077 658 1077 583.5 1047.5 c 132,-1,12
 509 1018 509 1018 453.5 965.5 c 132,-1,13
 398 913 398 913 366 839.5 c 132,-1,14
 334 766 334 766 334 678 c 4,15,16
 334 598 334 598 366 525.5 c 132,-1,17
 398 453 398 453 453.5 397.5 c 132,-1,18
 509 342 509 342 583.5 309 c 132,-1,19
 658 276 658 276 743 276 c 4,0,1
743 1460 m 0,20,21
 852 1460 852 1460 951 1433.5 c 128,-1,22
 1050 1407 1050 1407 1134.5 1359 c 128,-1,23
 1219 1311 1219 1311 1288 1243 c 128,-1,24
 1357 1175 1357 1175 1405.5 1093 c 128,-1,25
 1454 1011 1454 1011 1480.5 916 c 128,-1,26
 1507 821 1507 821 1507 719 c 0,27,28
 1507 618 1507 618 1480.5 524.5 c 128,-1,29
 1454 431 1454 431 1405.5 350 c 128,-1,30
 1357 269 1357 269 1288 202.5 c 128,-1,31
 1219 136 1219 136 1134.5 89 c 128,-1,32
 1050 42 1050 42 951 16 c 128,-1,33
 852 -10 852 -10 743 -10 c 0,34,35
 640 -10 640 -10 544.5 16 c 128,-1,36
 449 42 449 42 366.5 89 c 128,-1,37
 284 136 284 136 216.5 202.5 c 128,-1,38
 149 269 149 269 101 350 c 128,-1,39
 53 431 53 431 26.5 524 c 128,-1,40
 0 617 0 617 0 719 c 128,-1,41
 0 821 0 821 26.5 916 c 128,-1,42
 53 1011 53 1011 101 1093 c 128,-1,43
 149 1175 149 1175 216.5 1243 c 128,-1,44
 284 1311 284 1311 366.5 1359 c 128,-1,45
 449 1407 449 1407 544.5 1433.5 c 128,-1,46
 640 1460 640 1460 743 1460 c 0,20,21
EndSplineSet
EndChar
StartChar: P
Encoding: 80 80 48
AltUni2: 000420.ffffffff.0 0003a1.ffffffff.0 000070.ffffffff.0 0003c1.ffffffff.0 000440.ffffffff.0
Width: 1215
GlyphClass: 2
Flags: W
AnchorPoint: "bottomattside" 310 35 basechar 0
AnchorPoint: "bottomatt" 236 10 basechar 0
AnchorPoint: "bottom" 225 -51 basechar 0
AnchorPoint: "top" 600 1539 basechar 0
LayerCount: 2
Fore
SplineSet
399 770 m 1,0,1
 411 770 411 770 445.5 768 c 128,-1,2
 480 766 480 766 524 767 c 128,-1,3
 568 768 568 768 616 776 c 128,-1,4
 664 784 664 784 702.5 805 c 128,-1,5
 741 826 741 826 764 863.5 c 128,-1,6
 787 901 787 901 782 961 c 0,7,8
 777 1019 777 1019 748.5 1056.5 c 128,-1,9
 720 1094 720 1094 670 1114 c 128,-1,10
 620 1134 620 1134 549.5 1139 c 128,-1,11
 479 1144 479 1144 391 1137 c 1,12,-1
 399 770 l 1,0,1
1116 1038 m 0,13,14
 1116 994 1116 994 1114.5 953 c 128,-1,15
 1113 912 1113 912 1104 874 c 128,-1,16
 1095 836 1095 836 1075 799 c 128,-1,17
 1055 762 1055 762 1018 725 c 1,18,19
 984 685 984 685 935 658 c 128,-1,20
 886 631 886 631 830.5 613.5 c 128,-1,21
 775 596 775 596 715 586.5 c 128,-1,22
 655 577 655 577 599.5 572.5 c 128,-1,23
 544 568 544 568 495 567.5 c 128,-1,24
 446 567 446 567 412 567 c 1,25,-1
 412 20 l 1,26,-1
 39 0 l 1,27,-1
 0 1430 l 1,28,-1
 391 1450 l 2,29,30
 428 1450 428 1450 472 1449.5 c 128,-1,31
 516 1449 516 1449 567.5 1445 c 128,-1,32
 619 1441 619 1441 678 1432.5 c 128,-1,33
 737 1424 737 1424 803 1409 c 128,-1,34
 869 1394 869 1394 926 1359 c 128,-1,35
 983 1324 983 1324 1025.5 1274.5 c 128,-1,36
 1068 1225 1068 1225 1092 1164.5 c 128,-1,37
 1116 1104 1116 1104 1116 1038 c 0,13,14
EndSplineSet
EndChar
StartChar: Q
Encoding: 81 81 49
AltUni2: 000071.ffffffff.0
Width: 1599
GlyphClass: 2
Flags: W
AnchorPoint: "bottomattside" 907 -234 basechar 0
AnchorPoint: "bottomatt" 707 -297 basechar 0
AnchorPoint: "bottom" 737 -338 basechar 0
AnchorPoint: "top" 684 1481 basechar 0
LayerCount: 2
Fore
SplineSet
739 279 m 0,0,1
 831 279 831 279 909.5 310 c 128,-1,2
 988 341 988 341 1045 393.5 c 128,-1,3
 1102 446 1102 446 1134.5 516.5 c 128,-1,4
 1167 587 1167 587 1167 666 c 0,5,6
 1167 752 1167 752 1134.5 824 c 128,-1,7
 1102 896 1102 896 1045 948.5 c 128,-1,8
 988 1001 988 1001 909.5 1030 c 128,-1,9
 831 1059 831 1059 739 1059 c 0,10,11
 655 1059 655 1059 582 1030 c 128,-1,12
 509 1001 509 1001 455 948.5 c 128,-1,13
 401 896 401 896 369.5 824 c 128,-1,14
 338 752 338 752 338 666 c 0,15,16
 338 587 338 587 369.5 516.5 c 128,-1,17
 401 446 401 446 455 393.5 c 128,-1,18
 509 341 509 341 582 310 c 128,-1,19
 655 279 655 279 739 279 c 0,0,1
1499 719 m 0,20,21
 1499 597 1499 597 1459 484.5 c 128,-1,22
 1419 372 1419 372 1346 280 c 128,-1,23
 1273 188 1273 188 1171.5 122.5 c 128,-1,24
 1070 57 1070 57 946 29 c 1,25,-1
 1212 -127 l 1,26,-1
 1047 -336 l 1,27,-1
 596 8 l 1,28,29
 474 30 474 30 366 95.5 c 128,-1,30
 258 161 258 161 177 256.5 c 128,-1,31
 96 352 96 352 49 471 c 128,-1,32
 2 590 2 590 2 719 c 0,33,34
 2 820 2 820 28.5 913 c 128,-1,35
 55 1006 55 1006 103 1087 c 128,-1,36
 151 1168 151 1168 218 1234.5 c 128,-1,37
 285 1301 285 1301 367 1348.5 c 128,-1,38
 449 1396 449 1396 543 1422 c 128,-1,39
 637 1448 637 1448 739 1448 c 0,40,41
 846 1448 846 1448 944.5 1422 c 128,-1,42
 1043 1396 1043 1396 1127.5 1348.5 c 128,-1,43
 1212 1301 1212 1301 1280.5 1234.5 c 128,-1,44
 1349 1168 1349 1168 1397.5 1087 c 128,-1,45
 1446 1006 1446 1006 1472.5 913 c 128,-1,46
 1499 820 1499 820 1499 719 c 0,20,21
EndSplineSet
EndChar
StartChar: R
Encoding: 82 82 50
AltUni2: 000072.ffffffff.0
Width: 1230
GlyphClass: 2
Flags: W
AnchorPoint: "bottomattside" 813 76 basechar 0
AnchorPoint: "bottomatt" 573 0 basechar 0
AnchorPoint: "bottom" 584 -20 basechar 0
AnchorPoint: "top" 600 1539 basechar 0
LayerCount: 2
Fore
SplineSet
780 938 m 0,0,1
 773 996 773 996 744.5 1033.5 c 128,-1,2
 716 1071 716 1071 666.5 1091.5 c 128,-1,3
 617 1112 617 1112 548 1116.5 c 128,-1,4
 479 1121 479 1121 391 1114 c 1,5,-1
 391 741 l 1,6,7
 405 741 405 741 441 738 c 128,-1,8
 477 735 477 735 522 735.5 c 128,-1,9
 567 736 567 736 615 744 c 128,-1,10
 663 752 663 752 701.5 774 c 128,-1,11
 740 796 740 796 762.5 835 c 128,-1,12
 785 874 785 874 780 938 c 0,0,1
1014 721 m 0,13,14
 982 688 982 688 940.5 663.5 c 128,-1,15
 899 639 899 639 854 621.5 c 128,-1,16
 809 604 809 604 762.5 593.5 c 128,-1,17
 716 583 716 583 674 578 c 5,18,-1
 1053 195 l 5,19,-1
 858 20 l 5,20,-1
 399 541 l 5,21,-1
 410 20 l 1,22,-1
 39 0 l 1,23,-1
 0 1423 l 1,24,-1
 391 1444 l 2,25,26
 463 1444 463 1444 565.5 1439 c 128,-1,27
 668 1434 668 1434 801 1405 c 0,28,29
 860 1392 860 1392 915 1357 c 128,-1,30
 970 1322 970 1322 1013.5 1272.5 c 128,-1,31
 1057 1223 1057 1223 1085 1161.5 c 128,-1,32
 1113 1100 1113 1100 1118 1034 c 0,33,34
 1121 990 1121 990 1119.5 951 c 128,-1,35
 1118 912 1118 912 1107.5 874 c 128,-1,36
 1097 836 1097 836 1075 798.5 c 128,-1,37
 1053 761 1053 761 1014 721 c 0,13,14
EndSplineSet
EndChar
StartChar: S
Encoding: 83 83 51
AltUni2: 00017f.ffffffff.0 000073.ffffffff.0
Width: 1224
GlyphClass: 2
Flags: W
AnchorPoint: "bottomattside" 702 76 basechar 0
AnchorPoint: "bottomatt" 440 23 basechar 0
AnchorPoint: "bottom" 545 -61 basechar 0
AnchorPoint: "top" 625 1481 basechar 0
LayerCount: 2
Fore
SplineSet
213 406 m 5,0,1
 332 302 332 302 420 272 c 132,-1,2
 508 242 508 242 567 289 c 4,3,4
 591 313 591 313 580 343 c 132,-1,5
 569 373 569 373 536 406 c 132,-1,6
 503 439 503 439 454.5 473.5 c 132,-1,7
 406 508 406 508 356.5 541.5 c 132,-1,8
 307 575 307 575 263 606 c 132,-1,9
 219 637 219 637 194 662 c 4,10,11
 189 666 189 666 170 682 c 132,-1,12
 151 698 151 698 126.5 725 c 132,-1,13
 102 752 102 752 76 789 c 132,-1,14
 50 826 50 826 32 872.5 c 132,-1,15
 14 919 14 919 8 974.5 c 132,-1,16
 2 1030 2 1030 16 1094 c 5,17,18
 39 1175 39 1175 92.5 1240 c 132,-1,19
 146 1305 146 1305 221.5 1350.5 c 132,-1,20
 297 1396 297 1396 390.5 1421 c 132,-1,21
 484 1446 484 1446 586 1446 c 4,22,23
 673 1446 673 1446 748 1438 c 132,-1,24
 823 1430 823 1430 889.5 1411.5 c 132,-1,25
 956 1393 956 1393 1017 1363 c 132,-1,26
 1078 1333 1078 1333 1136 1288 c 5,27,-1
 940 954 l 5,28,29
 896 999 896 999 839.5 1034 c 132,-1,30
 783 1069 783 1069 723.5 1090.5 c 132,-1,31
 664 1112 664 1112 606.5 1117 c 132,-1,32
 549 1122 549 1122 502.5 1107.5 c 132,-1,33
 456 1093 456 1093 425.5 1055.5 c 132,-1,34
 395 1018 395 1018 391 954 c 4,35,36
 391 899 391 899 414 856.5 c 132,-1,37
 437 814 437 814 474 778 c 132,-1,38
 511 742 511 742 558 710 c 132,-1,39
 605 678 605 678 653.5 645 c 132,-1,40
 702 612 702 612 747 574.5 c 132,-1,41
 792 537 792 537 825.5 490 c 132,-1,42
 859 443 859 443 876.5 384 c 132,-1,43
 894 325 894 325 887 248 c 4,44,45
 880 174 880 174 845 122.5 c 132,-1,46
 810 71 810 71 758 40 c 132,-1,47
 706 9 706 9 641.5 -3 c 132,-1,48
 577 -15 577 -15 510 -10 c 4,49,50
 469 -7 469 -7 429 1 c 132,-1,51
 389 9 389 9 351 21 c 132,-1,52
 313 33 313 33 278 47 c 132,-1,53
 243 61 243 61 213 75 c 4,54,55
 142 108 142 108 78 150 c 5,56,57
 116 221 116 221 146 277 c 4,58,59
 159 301 159 301 171 324 c 132,-1,60
 183 347 183 347 192.5 365 c 132,-1,61
 202 383 202 383 207.5 394 c 132,-1,62
 213 405 213 405 213 406 c 5,0,1
EndSplineSet
EndChar
StartChar: T
Encoding: 84 84 52
AltUni2: 000422.ffffffff.0 0003a4.ffffffff.0 000074.ffffffff.0 0003c4.ffffffff.0 000442.ffffffff.0
Width: 1377
GlyphClass: 2
Flags: W
AnchorPoint: "bottomattside" 714 29 basechar 0
AnchorPoint: "bottomatt" 653 10 basechar 0
AnchorPoint: "bottom" 622 -63 basechar 0
AnchorPoint: "top" 619 1457 basechar 0
LayerCount: 2
Fore
SplineSet
797 1126 m 1,0,-1
 815 14 l 1,1,-1
 446 0 l 1,2,-1
 426 1114 l 1,3,-1
 10 1094 l 1,4,-1
 0 1397 l 1,5,-1
 1260 1436 l 1,6,-1
 1270 1145 l 1,7,-1
 797 1126 l 1,0,-1
EndSplineSet
EndChar
StartChar: U
Encoding: 85 85 53
AltUni2: 000075.ffffffff.0
Width: 1528
GlyphClass: 2
Flags: W
AnchorPoint: "bottomattside" 744 16 basechar 0
AnchorPoint: "bottomatt" 717 0 basechar 0
AnchorPoint: "bottom" 768 -82 basechar 0
AnchorPoint: "top" 800 1434 basechar 0
LayerCount: 2
Fore
SplineSet
0 1434 m 1,0,-1
 442 1434 l 1,1,2
 442 1207 442 1207 439.5 1029 c 128,-1,3
 437 851 437 851 442 715.5 c 128,-1,4
 447 580 447 580 464 486 c 128,-1,5
 481 392 481 392 519.5 333.5 c 128,-1,6
 558 275 558 275 622.5 250.5 c 128,-1,7
 687 226 687 226 788 231 c 128,-1,8
 889 236 889 236 952 276 c 128,-1,9
 1015 316 1015 316 1049.5 387.5 c 128,-1,10
 1084 459 1084 459 1096 560.5 c 128,-1,11
 1108 662 1108 662 1109 790 c 128,-1,12
 1110 918 1110 918 1105 1070.5 c 128,-1,13
 1100 1223 1100 1223 1100 1397 c 1,14,-1
 1124.5 1397 l 2,15,16
 1149 1397 1149 1397 1185 1396.5 c 128,-1,17
 1221 1396 1221 1396 1263 1396 c 128,-1,18
 1305 1396 1305 1396 1341 1396 c 128,-1,19
 1377 1396 1377 1396 1401 1396.5 c 2,20,-1
 1425 1397 l 1,21,22
 1425 1238 1425 1238 1424.5 1117.5 c 128,-1,23
 1424 997 1424 997 1422.5 906 c 128,-1,24
 1421 815 1421 815 1419 747.5 c 128,-1,25
 1417 680 1417 680 1413 625.5 c 128,-1,26
 1409 571 1409 571 1403 525.5 c 128,-1,27
 1397 480 1397 480 1389 432 c 0,28,29
 1373 339 1373 339 1320.5 258.5 c 128,-1,30
 1268 178 1268 178 1186.5 118 c 128,-1,31
 1105 58 1105 58 999 24 c 128,-1,32
 893 -10 893 -10 770 -10 c 0,33,34
 650 -10 650 -10 554.5 9.5 c 128,-1,35
 459 29 459 29 384.5 61 c 128,-1,36
 310 93 310 93 255 135 c 128,-1,37
 200 177 200 177 161 221.5 c 128,-1,38
 122 266 122 266 96.5 310.5 c 128,-1,39
 71 355 71 355 57 393 c 0,40,41
 47 422 47 422 39 459.5 c 128,-1,42
 31 497 31 497 25 551.5 c 128,-1,43
 19 606 19 606 14 682 c 128,-1,44
 9 758 9 758 6 864 c 128,-1,45
 3 970 3 970 1.5 1110.5 c 128,-1,46
 0 1251 0 1251 0 1434 c 1,0,-1
EndSplineSet
EndChar
StartChar: V
Encoding: 86 86 54
AltUni2: 000076.ffffffff.0
Width: 1578
GlyphClass: 2
Flags: W
AnchorPoint: "bottomattside" 802 18 basechar 0
AnchorPoint: "bottomatt" 707 20 basechar 0
AnchorPoint: "bottom" 707 -61 basechar 0
AnchorPoint: "top" 662 1556 basechar 0
LayerCount: 2
Fore
SplineSet
1479 1358 m 1,0,-1
 891 -2 l 1,1,-1
 571 18 l 1,2,-1
 -2 1339 l 1,3,-1
 287 1434 l 1,4,-1
 688 463 l 1,5,-1
 1065 1460 l 1,6,-1
 1479 1358 l 1,0,-1
EndSplineSet
EndChar
StartChar: W
Encoding: 87 87 55
AltUni2: 000077.ffffffff.0
Width: 1966
GlyphClass: 2
Flags: W
AnchorPoint: "bottomattside" 1211 70 basechar 0
AnchorPoint: "bottomatt" 952 20 basechar 0
AnchorPoint: "bottom" 932 -31 basechar 0
AnchorPoint: "top" 963 1495 basechar 0
LayerCount: 2
Fore
SplineSet
1303 481 m 1,0,-1
 1540 1423 l 1,1,-1
 1878 1362 l 1,2,-1
 1516 14 l 1,3,-1
 1198 49 l 1,4,-1
 989 846 l 1,5,-1
 690 -2 l 1,6,-1
 338 -2 l 1,7,-1
 0 1389 l 1,8,-1
 397 1436 l 1,9,-1
 590 573 l 1,10,-1
 856 1436 l 1,11,-1
 1067 1419 l 1,12,-1
 1303 481 l 1,0,-1
EndSplineSet
EndChar
StartChar: X
Encoding: 88 88 56
AltUni2: 000425.ffffffff.0 0003a7.ffffffff.0 000078.ffffffff.0 0003c7.ffffffff.0 000445.ffffffff.0
Width: 1469
GlyphClass: 2
Flags: W
AnchorPoint: "bottomattside" 1030 53 basechar 0
AnchorPoint: "bottomatt" 655 0 basechar 0
AnchorPoint: "bottom" 686 20 basechar 0
AnchorPoint: "top" 717 1386 basechar 0
LayerCount: 2
Fore
SplineSet
1065 -6 m 1,0,-1
 664 459 l 1,1,-1
 254 8 l 1,2,-1
 12 254 l 1,3,-1
 451 717 l 1,4,-1
 29 1184 l 1,5,-1
 311 1436 l 1,6,-1
 702 977 l 1,7,-1
 1057 1384 l 1,8,-1
 1255 1200 l 1,9,-1
 872 766 l 1,10,-1
 1354 231 l 1,11,-1
 1065 -6 l 1,0,-1
EndSplineSet
EndChar
StartChar: Y
Encoding: 89 89 57
AltUni2: 0003cd.ffffffff.0 00038e.ffffffff.0 0003a5.ffffffff.0 000079.ffffffff.0 0003c5.ffffffff.0
Width: 1510
GlyphClass: 2
Flags: W
AnchorPoint: "bottomattside" 872 35 basechar 0
AnchorPoint: "bottomatt" 799 10 basechar 0
AnchorPoint: "bottom" 809 -51 basechar 0
AnchorPoint: "top" 764 1424 basechar 0
LayerCount: 2
Fore
SplineSet
932 700 m 1,0,-1
 971 8 l 1,1,-1
 614 -12 l 1,2,-1
 573 662 l 1,3,-1
 0 1235 l 1,4,-1
 258 1454 l 1,5,-1
 772 899 l 1,6,-1
 1188 1434 l 1,7,-1
 1407 1274 l 1,8,-1
 932 700 l 1,0,-1
EndSplineSet
EndChar
StartChar: Z
Encoding: 90 90 58
AltUni2: 000396.ffffffff.0 00007a.ffffffff.0 0003b6.ffffffff.0
Width: 1221
GlyphClass: 2
Flags: W
AnchorPoint: "bottomattside" 825 29 basechar 0
AnchorPoint: "bottomatt" 481 20 basechar 0
AnchorPoint: "bottom" 512 -31 basechar 0
AnchorPoint: "top" 553 1501 basechar 0
LayerCount: 2
Fore
SplineSet
936 252 m 1,0,-1
 924 6 l 1,1,-1
 98 33 l 1,2,-1
 98 236 l 1,3,-1
 647 1098 l 5,4,-1
 0 1098 l 5,5,-1
 0 1436 l 5,6,-1
 1012 1421 l 5,7,-1
 1012 1153 l 5,8,-1
 508 258 l 1,9,-1
 936 252 l 1,0,-1
EndSplineSet
EndChar
StartChar: bracketleft
Encoding: 91 91 59
Width: 524
GlyphClass: 2
Flags: W
LayerCount: 2
Fore
SplineSet
0 1425 m 1,0,-1
 410 1425 l 1,1,-1
 410 1288 l 1,2,-1
 195 1288 l 1,3,-1
 233 139 l 1,4,-1
 410 158 l 1,5,-1
 418 23 l 1,6,-1
 39 2 l 1,7,-1
 0 1425 l 1,0,-1
EndSplineSet
EndChar
StartChar: backslash
Encoding: 92 92 60
Width: 881
GlyphClass: 2
Flags: W
LayerCount: 2
Fore
SplineSet
537 45 m 1,0,-1
 0 1290 l 1,1,-1
 217 1399 l 1,2,-1
 774 137 l 1,3,-1
 537 45 l 1,0,-1
EndSplineSet
EndChar
StartChar: bracketright
Encoding: 93 93 61
Width: 512
GlyphClass: 2
Flags: W
LayerCount: 2
Fore
SplineSet
379 2 m 1,0,-1
 0 23 l 1,1,-1
 8 158 l 1,2,-1
 184 139 l 1,3,-1
 215 1296 l 1,4,-1
 0 1296 l 1,5,-1
 0 1434 l 1,6,-1
 410 1434 l 1,7,-1
 379 2 l 1,0,-1
EndSplineSet
EndChar
StartChar: asciicircum
Encoding: 94 94 62
Width: 1108
GlyphClass: 2
Flags: W
LayerCount: 2
Fore
SplineSet
152 827 m 1,0,-1
 4 975 l 1,1,-1
 520 1528 l 1,2,-1
 999 975 l 1,3,-1
 815 827 l 1,4,-1
 500 1219 l 1,5,-1
 152 827 l 1,0,-1
EndSplineSet
EndChar
StartChar: underscore
Encoding: 95 95 63
Width: 1124
GlyphClass: 2
Flags: W
LayerCount: 2
Fore
SplineSet
1012 -287 m 1,0,-1
 0 -287 l 1,1,-1
 2 -106 l 1,2,-1
 1016 -117 l 1,3,-1
 1012 -287 l 1,0,-1
EndSplineSet
EndChar
StartChar: grave
Encoding: 96 96 64
Width: 340
GlyphClass: 2
Flags: W
LayerCount: 2
Fore
SplineSet
0 1407 m 1,0,-1
 94 1538 l 1,1,-1
 340 1331 l 1,2,-1
 274 1245 l 1,3,-1
 0 1407 l 1,0,-1
EndSplineSet
EndChar
StartChar: braceleft
Encoding: 123 123 65
Width: 586
GlyphClass: 2
Flags: W
LayerCount: 2
Fore
SplineSet
464 18 m 1,0,1
 398 13 398 13 346.5 17.5 c 128,-1,2
 295 22 295 22 256.5 32 c 128,-1,3
 218 42 218 42 191 56 c 128,-1,4
 164 70 164 70 146 84.5 c 128,-1,5
 128 99 128 99 117.5 112 c 128,-1,6
 107 125 107 125 101 133 c 0,7,8
 72 175 72 175 62.5 214.5 c 128,-1,9
 53 254 53 254 55 290 c 128,-1,10
 57 326 57 326 68 358.5 c 128,-1,11
 79 391 79 391 91 419 c 128,-1,12
 103 447 103 447 112.5 471 c 128,-1,13
 122 495 122 495 122 514 c 0,14,15
 122 529 122 529 112 543 c 128,-1,16
 102 557 102 557 85.5 568 c 128,-1,17
 69 579 69 579 48.5 585.5 c 128,-1,18
 28 592 28 592 7 592 c 1,19,-1
 7 707 l 1,20,21
 28 707 28 707 51 708 c 128,-1,22
 74 709 74 709 93.5 714 c 128,-1,23
 113 719 113 719 125.5 730 c 128,-1,24
 138 741 138 741 138 762 c 0,25,26
 138 781 138 781 127 801.5 c 128,-1,27
 116 822 116 822 99.5 845 c 128,-1,28
 83 868 83 868 65 895.5 c 128,-1,29
 47 923 47 923 32.5 956.5 c 128,-1,30
 18 990 18 990 10 1032 c 128,-1,31
 2 1074 2 1074 7 1126 c 0,32,33
 21 1212 21 1212 59.5 1271 c 128,-1,34
 98 1330 98 1330 159 1366 c 128,-1,35
 220 1402 220 1402 301.5 1418 c 128,-1,36
 383 1434 383 1434 484 1434 c 1,37,-1
 484 1260 l 1,38,39
 413 1265 413 1265 362 1258 c 128,-1,40
 311 1251 311 1251 277 1235.5 c 128,-1,41
 243 1220 243 1220 223 1198 c 128,-1,42
 203 1176 203 1176 193 1151 c 128,-1,43
 183 1126 183 1126 180 1099.5 c 128,-1,44
 177 1073 177 1073 177 1049 c 0,45,46
 177 1007 177 1007 195.5 970 c 128,-1,47
 214 933 214 933 235.5 899 c 128,-1,48
 257 865 257 865 275.5 831.5 c 128,-1,49
 294 798 294 798 294 762 c 0,50,51
 294 734 294 734 279 696.5 c 128,-1,52
 264 659 264 659 236 631 c 1,53,54
 261 617 261 617 273 594.5 c 128,-1,55
 285 572 285 572 290 550 c 0,56,57
 295 524 295 524 294 496 c 0,58,59
 294 467 294 467 285.5 444 c 128,-1,60
 277 421 277 421 265.5 401 c 128,-1,61
 254 381 254 381 242.5 362 c 128,-1,62
 231 343 231 343 224.5 323 c 128,-1,63
 218 303 218 303 219.5 279.5 c 128,-1,64
 221 256 221 256 236 227 c 0,65,66
 250 198 250 198 274 186 c 128,-1,67
 298 174 298 174 328.5 172 c 128,-1,68
 359 170 359 170 394 175.5 c 128,-1,69
 429 181 429 181 464 188 c 1,70,-1
 464 18 l 1,0,1
EndSplineSet
EndChar
StartChar: bar
Encoding: 124 124 129
AltUni2: 0001c0.ffffffff.0
Width: 512
GlyphClass: 2
Flags: W
LayerCount: 2
Fore
SplineSet
379 2 m 1,0,-1
 189 -5 l 1,1,-1
 197 1433 l 1,2,-1
 389 1433 l 1,3,-1
 379 2 l 1,0,-1
EndSplineSet
EndChar
StartChar: braceright
Encoding: 125 125 66
Width: 586
GlyphClass: 2
Flags: W
LayerCount: 2
Fore
SplineSet
20 18 m 1,0,-1
 20 188 l 1,1,2
 56 181 56 181 90.5 175.5 c 128,-1,3
 125 170 125 170 155.5 172 c 128,-1,4
 186 174 186 174 210 186 c 128,-1,5
 234 198 234 198 248 227 c 0,6,7
 263 256 263 256 264.5 279.5 c 128,-1,8
 266 303 266 303 259.5 323 c 128,-1,9
 253 343 253 343 241.5 362 c 128,-1,10
 230 381 230 381 218.5 401 c 128,-1,11
 207 421 207 421 198.5 444 c 128,-1,12
 190 467 190 467 190 496 c 0,13,14
 189 524 189 524 194 550 c 0,15,16
 199 572 199 572 211 594.5 c 128,-1,17
 223 617 223 617 248 631 c 1,18,19
 220 659 220 659 205 696.5 c 128,-1,20
 190 734 190 734 190 762 c 0,21,22
 190 798 190 798 208.5 831.5 c 128,-1,23
 227 865 227 865 248.5 899 c 128,-1,24
 270 933 270 933 288.5 970 c 128,-1,25
 307 1007 307 1007 307 1049 c 0,26,27
 307 1073 307 1073 304 1099.5 c 128,-1,28
 301 1126 301 1126 291 1151 c 128,-1,29
 281 1176 281 1176 261 1198 c 128,-1,30
 241 1220 241 1220 207 1235.5 c 128,-1,31
 173 1251 173 1251 122.5 1258 c 128,-1,32
 72 1265 72 1265 0 1260 c 1,33,-1
 0 1434 l 1,34,35
 100 1434 100 1434 182 1418 c 128,-1,36
 264 1402 264 1402 325 1366 c 128,-1,37
 386 1330 386 1330 424.5 1271 c 128,-1,38
 463 1212 463 1212 477 1126 c 0,39,40
 482 1074 482 1074 474.5 1032 c 128,-1,41
 467 990 467 990 452.5 956.5 c 128,-1,42
 438 923 438 923 419.5 895.5 c 128,-1,43
 401 868 401 868 384.5 845 c 128,-1,44
 368 822 368 822 357 801.5 c 128,-1,45
 346 781 346 781 346 762 c 0,46,47
 346 741 346 741 358.5 730 c 128,-1,48
 371 719 371 719 390.5 714 c 128,-1,49
 410 709 410 709 433 708 c 128,-1,50
 456 707 456 707 477 707 c 1,51,-1
 477 592 l 1,52,53
 456 592 456 592 435.5 585.5 c 128,-1,54
 415 579 415 579 398.5 568 c 128,-1,55
 382 557 382 557 372 543 c 128,-1,56
 362 529 362 529 362 514 c 0,57,58
 362 495 362 495 371.5 471 c 128,-1,59
 381 447 381 447 393.5 419 c 128,-1,60
 406 391 406 391 416.5 358.5 c 128,-1,61
 427 326 427 326 429.5 290 c 128,-1,62
 432 254 432 254 422 214.5 c 128,-1,63
 412 175 412 175 383 133 c 0,64,65
 374 121 374 121 354 98.5 c 128,-1,66
 334 76 334 76 293 55.5 c 128,-1,67
 252 35 252 35 186 22.5 c 128,-1,68
 120 10 120 10 20 18 c 1,0,-1
EndSplineSet
EndChar
StartChar: asciitilde
Encoding: 126 126 67
Width: 1108
GlyphClass: 2
Flags: W
LayerCount: 2
Fore
SplineSet
-4 678 m 1,0,1
 6 692 6 692 25.5 716 c 128,-1,2
 45 740 45 740 71.5 767 c 128,-1,3
 98 794 98 794 131.5 822 c 128,-1,4
 165 850 165 850 202 872.5 c 128,-1,5
 239 895 239 895 279 909.5 c 128,-1,6
 319 924 319 924 360 924 c 0,7,8
 413 924 413 924 449 907.5 c 128,-1,9
 485 891 485 891 510.5 866.5 c 128,-1,10
 536 842 536 842 554.5 813 c 128,-1,11
 573 784 573 784 590.5 759.5 c 128,-1,12
 608 735 608 735 628.5 718.5 c 128,-1,13
 649 702 649 702 678 702 c 0,14,15
 710 702 710 702 740 723.5 c 128,-1,16
 770 745 770 745 793 771 c 0,17,18
 820 801 820 801 844 840 c 1,19,-1
 1012 686 l 1,20,21
 1001 672 1001 672 981 650.5 c 128,-1,22
 961 629 961 629 935 605 c 128,-1,23
 909 581 909 581 878.5 557 c 128,-1,24
 848 533 848 533 816.5 513.5 c 128,-1,25
 785 494 785 494 753.5 482 c 128,-1,26
 722 470 722 470 694 471 c 0,27,28
 647 471 647 471 613.5 485 c 128,-1,29
 580 499 580 499 554.5 519 c 128,-1,30
 529 539 529 539 509 562.5 c 128,-1,31
 489 586 489 586 469 606 c 128,-1,32
 449 626 449 626 427 639.5 c 128,-1,33
 405 653 405 653 375 653 c 0,34,35
 352 653 352 653 331.5 645.5 c 128,-1,36
 311 638 311 638 293 626 c 128,-1,37
 275 614 275 614 259.5 599 c 128,-1,38
 244 584 244 584 231 568 c 0,39,40
 201 530 201 530 178 483 c 1,41,-1
 -4 678 l 1,0,1
EndSplineSet
EndChar
StartChar: cent
Encoding: 162 162 131
Width: 1188
Flags: W
LayerCount: 2
Fore
SplineSet
886 959 m 1025,0,-1
433.46436178 951.942323638 m 1,1,2
 357.141190834 912.128365927 357.141190834 912.128365927 324.070595417 864.064182964 c 0,3,4
 256.548298028 765.928542679 256.548298028 765.928542679 277.125976562 648.518554688 c 0,5,6
 300.031819286 524.365760827 300.031819286 524.365760827 457.457253211 461.80182726 c 1,7,-1
 433.46436178 951.942323638 l 1,1,2
707.78935517 428.229289289 m 1,8,9
 740.756779257 432.122141059 740.756779257 432.122141059 866 467 c 1,10,11
 910 400 910 400 954.392578125 334.163085938 c 1,12,13
 823 280 823 280 786.605575283 272.221115057 c 128,-1,14
 750.211150566 264.442230113 750.211150566 264.442230113 722.544191749 257.458093761 c 1,15,-1
 739 67 l 1,16,-1
 476 83 l 1,17,-1
 467.840624952 249.684375975 l 1,18,19
 325.114724985 275.455548908 325.114724985 275.455548908 205.994140625 371.1875 c 0,20,21
 106.233241377 454.289104572 106.233241377 454.289104572 63.90625 571.325195312 c 0,22,23
 23.1948508954 685.584490548 23.1948508954 685.584490548 54.119140625 833.5625 c 0,24,25
 98.2365863907 1044.72037747 98.2365863907 1044.72037747 283.28125 1152.16210938 c 0,26,27
 340.876553926 1185.92762915 340.876553926 1185.92762915 420.974900697 1207.08417147 c 1,28,-1
 413 1370 l 1,29,-1
 624 1398 l 1,30,-1
 638.87067042 1225.88815366 l 1,31,32
 685.947935384 1223.06207309 685.947935384 1223.06207309 759.249082023 1205.44704076 c 128,-1,33
 832.550228662 1187.83200843 832.550228662 1187.83200843 867.775114331 1173.91600422 c 128,-1,34
 903 1160 903 1160 956.59765625 1140.81054688 c 1,35,-1
 886 959 l 1,36,37
 753.355442455 1003.21485251 753.355442455 1003.21485251 658.254779796 1001.53815732 c 1,38,-1
 707.78935517 428.229289289 l 1,8,9
EndSplineSet
EndChar
StartChar: sterling
Encoding: 163 163 70
Width: 895
GlyphClass: 2
Flags: W
LayerCount: 2
Fore
SplineSet
-628 1497 m 1053,0,-1
786 274 m 1,1,-1
 786 59 l 1,2,-1
 0 59 l 1,3,-1
 0 250 l 1,4,5
 27 250 27 250 64 259.5 c 128,-1,6
 101 269 101 269 134.5 291.5 c 128,-1,7
 168 314 168 314 191.5 350 c 128,-1,8
 215 386 215 386 215 440 c 0,9,10
 215 449 215 449 214.5 466 c 128,-1,11
 214 483 214 483 212 503.5 c 128,-1,12
 210 524 210 524 204.5 545 c 128,-1,13
 199 566 199 566 190 584 c 1,14,-1
 25 584 l 1,15,-1
 25 750 l 1,16,-1
 166 750 l 1,17,18
 149 822 149 822 134 890.5 c 128,-1,19
 119 959 119 959 119 1012 c 0,20,21
 119 1084 119 1084 151.5 1145 c 128,-1,22
 184 1206 184 1206 237.5 1251 c 128,-1,23
 291 1296 291 1296 359.5 1321 c 128,-1,24
 428 1346 428 1346 500 1346 c 128,-1,25
 572 1346 572 1346 625 1323.5 c 128,-1,26
 678 1301 678 1301 714 1275 c 0,27,28
 756 1243 756 1243 786 1204 c 1,29,-1
 668 1083 l 1,30,31
 653 1097 653 1097 632 1108 c 0,32,33
 614 1117 614 1117 587 1125 c 128,-1,34
 560 1133 560 1133 524 1133 c 0,35,36
 470 1133 470 1133 434 1113.5 c 128,-1,37
 398 1094 398 1094 375.5 1067 c 128,-1,38
 353 1040 353 1040 343.5 1011.5 c 128,-1,39
 334 983 334 983 334 965 c 0,40,41
 334 956 334 956 338 935 c 128,-1,42
 342 914 342 914 349 885 c 128,-1,43
 356 856 356 856 364 821 c 128,-1,44
 372 786 372 786 381 750 c 1,45,-1
 571 750 l 1,46,-1
 571 584 l 1,47,-1
 428 584 l 1,48,49
 437 566 437 566 442.5 545 c 128,-1,50
 448 524 448 524 450 503.5 c 128,-1,51
 452 483 452 483 452.5 466 c 128,-1,52
 453 449 453 449 453 440 c 0,53,54
 453 386 453 386 442 353.5 c 128,-1,55
 431 321 431 321 417 303 c 0,56,57
 401 282 401 282 381 274 c 1,58,-1
 786 274 l 1,1,-1
EndSplineSet
EndChar
StartChar: currency
Encoding: 164 164 168
Width: 1029
Flags: W
LayerCount: 2
Fore
SplineSet
477.186523438 1119 m 0,0,1
 538.389648438 1119 538.389648438 1119 593.9765625 1103.67675781 c 128,-1,2
 649.564453125 1088.35351562 649.564453125 1088.35351562 697.009765625 1060.59863281 c 0,3,4
 708.961471694 1053.60694011 708.961471694 1053.60694011 720.36093437 1045.88150482 c 1,5,-1
 822 1148 l 1,6,-1
 950 1032 l 1,7,-1
 844.397607109 914.896356398 l 1,8,9
 846.828405647 910.872735223 846.828405647 910.872735223 849.173828125 906.7890625 c 0,10,11
 876.40625 859.374023438 876.40625 859.374023438 891.286132812 804.442382812 c 128,-1,12
 906.165039062 749.509765625 906.165039062 749.509765625 906.165039062 690.530273438 c 0,13,14
 906.165039062 632.12890625 906.165039062 632.12890625 891.286132812 578.064453125 c 128,-1,15
 876.40625 524 876.40625 524 849.173828125 477.163085938 c 0,16,17
 835.668016819 453.934504712 835.668016819 453.934504712 819.33123528 432.768261042 c 1,18,-1
 940.5 323.5 l 1,19,-1
 813.5 185.5 l 1,20,-1
 680.892889107 317.484542297 l 1,21,22
 640.256757669 296.551020358 640.256757669 296.551020358 593.9765625 284.034179688 c 0,23,24
 538.389648438 269 538.389648438 269 477.186523438 269 c 0,25,26
 419.353515625 269 419.353515625 269 365.731445312 284.034179688 c 128,-1,27
 312.109375 299.068359375 312.109375 299.068359375 265.786132812 326.245117188 c 0,28,29
 261.789634603 328.589768788 261.789634603 328.589768788 257.855829602 331.018345697 c 1,30,-1
 137 197 l 1,31,-1
 -1 324 l 1,32,-1
 129.987524885 455.605390568 l 1,33,34
 123.046683817 466.15255151 123.046683817 466.15255151 116.7109375 477.163085938 c 0,35,36
 89.7587890625 524 89.7587890625 524 74.8798828125 577.775390625 c 128,-1,37
 60 631.55078125 60 631.55078125 60 690.530273438 c 128,-1,38
 60 749.509765625 60 749.509765625 74.8798828125 804.442382812 c 128,-1,39
 89.7587890625 859.374023438 89.7587890625 859.374023438 116.7109375 906.7890625 c 0,40,41
 119.791498676 912.208675761 119.791498676 912.208675761 123.015109733 917.52251989 c 1,42,-1
 8.5 1031.5 l 1,43,-1
 124.5 1159.5 l 1,44,-1
 247.252447181 1048.80359674 l 1,45,46
 256.344329019 1054.94131338 256.344329019 1054.94131338 265.786132812 1060.59863281 c 0,47,48
 312.109375 1088.35351562 312.109375 1088.35351562 365.731445312 1103.67675781 c 128,-1,49
 419.353515625 1119 419.353515625 1119 477.186523438 1119 c 0,0,1
477.186523438 434.374023438 m 0,50,51
 529.405273438 434.374023438 529.405273438 434.374023438 573.763671875 453.456054688 c 128,-1,52
 618.12109375 472.537109375 618.12109375 472.537109375 650.40625 504.62890625 c 128,-1,53
 682.692382812 536.720703125 682.692382812 536.720703125 700.940429688 578.642578125 c 128,-1,54
 719.189453125 620.564453125 719.189453125 620.564453125 719.189453125 666.823242188 c 0,55,56
 719.189453125 717.70703125 719.189453125 717.70703125 700.940429688 760.20703125 c 128,-1,57
 682.692382812 802.70703125 682.692382812 802.70703125 650.40625 833.064453125 c 128,-1,58
 618.12109375 863.421875 618.12109375 863.421875 573.763671875 880.479492188 c 128,-1,59
 529.405273438 897.537109375 529.405273438 897.537109375 477.186523438 897.537109375 c 0,60,61
 429.459960938 897.537109375 429.459960938 897.537109375 387.62890625 880.479492188 c 128,-1,62
 345.797851562 863.421875 345.797851562 863.421875 314.635742188 833.064453125 c 128,-1,63
 283.47265625 802.70703125 283.47265625 802.70703125 265.504882812 760.20703125 c 128,-1,64
 247.538085938 717.70703125 247.538085938 717.70703125 247.538085938 666.823242188 c 0,65,66
 247.538085938 620.564453125 247.538085938 620.564453125 265.504882812 578.642578125 c 128,-1,67
 283.47265625 536.720703125 283.47265625 536.720703125 314.635742188 504.62890625 c 128,-1,68
 345.797851562 472.537109375 345.797851562 472.537109375 387.62890625 453.456054688 c 128,-1,69
 429.459960938 434.374023438 429.459960938 434.374023438 477.186523438 434.374023438 c 0,50,51
EndSplineSet
EndChar
StartChar: yen
Encoding: 165 165 130
Width: 1210
Flags: W
LayerCount: 2
Fore
SplineSet
923.200195312 371.599609375 m 25,0,-1
 920 227.599609375 l 25,1,-1
 261.599609375 206 l 25,2,-1
 263.200195312 382 l 25,3,-1
 923.200195312 371.599609375 l 25,0,-1
938.400390625 598 m 25,4,-1
 935.200195312 446.799804688 l 25,5,-1
 283.200195312 434 l 25,6,-1
 284.799804688 607.599609375 l 25,7,-1
 938.400390625 598 l 25,4,-1
EndSplineSet
Refer: 57 89 N 0.8 0 0 0.8 -4 50 2
EndChar
StartChar: brokenbar
Encoding: 166 166 169
Width: 512
Flags: W
LayerCount: 2
Fore
SplineSet
193.517385257 807 m 17,0,-1
 197 1433 l 1,1,-1
 389 1433 l 1,2,-1
 384.625 811.349609375 l 9,3,-1
 193.517385257 807 l 17,0,-1
383.409503843 633 m 17,4,-1
 379 2 l 1,5,-1
 189 -5 l 1,6,-1
 192.549804688 628.650390625 l 9,7,-1
 383.409503843 633 l 17,4,-1
EndSplineSet
EndChar
StartChar: section
Encoding: 167 167 170
Width: 1224
Flags: W
LayerCount: 2
Fore
SplineSet
122.452148438 431.322265625 m 0,0,1
 86 490 86 490 95 568 c 132,-1,2
 104 646 104 646 189 716 c 5,3,4
 259 658 259 658 328.051757812 600.522460938 c 1,5,6
 250 574 250 574 258.051757812 509.982421875 c 0,7,8
 261 487 261 487 293.251953125 462.642578125 c 0,9,10
 399 381 399 381 524.200195312 313.740234375 c 0,11,12
 603 271 603 271 623.600585938 258.48046875 c 0,13,14
 686 220 686 220 698.400390625 212.040039062 c 0,15,16
 745 181 745 181 753.600585938 171.720703125 c 0,17,18
 757 168 757 168 772.799804688 157.3203125 c 0,19,20
 788 146 788 146 807.600585938 126.360351562 c 0,21,22
 827 107 827 107 848 80.2802734375 c 0,23,24
 871 49 871 49 883.200195312 20.16015625 c 0,25,26
 897 -13 897 -13 902.400390625 -53.279296875 c 0,27,28
 907 -93 907 -93 896 -139.319335938 c 1,29,30
 877 -198 877 -198 834.799804688 -244.440429688 c 0,31,32
 792 -291 792 -291 731.600585938 -324 c 0,33,34
 671 -357 671 -357 596.400390625 -374.759765625 c 0,35,36
 521 -393 521 -393 440 -392.759765625 c 0,37,38
 370 -393 370 -393 310.400390625 -387 c 0,39,40
 250 -381 250 -381 197.200195312 -367.918945312 c 0,41,42
 144 -354 144 -354 95.2001953125 -333 c 0,43,44
 46 -311 46 -311 0 -279 c 1,45,-1
 156.799804688 -38.51953125 l 1,46,47
 192 -71 192 -71 237.200195312 -96.119140625 c 0,48,49
 282 -121 282 -121 330 -136.799804688 c 0,50,51
 377 -152 377 -152 423.600585938 -155.879882812 c 0,52,53
 472 -159 472 -159 506.799804688 -149.040039062 c 0,54,55
 544 -138 544 -138 568.400390625 -111.599609375 c 0,56,57
 594 -84 594 -84 596 -38.51953125 c 0,58,59
 597 -1 597 -1 577.600585938 31.6806640625 c 0,60,61
 559 62 559 62 529.600585938 88.2001953125 c 0,62,63
 500 114 500 114 462.400390625 137.16015625 c 0,64,65
 424 160 424 160 386 183.959960938 c 0,66,67
 304 235 304 235 235.251953125 294.162109375 c 0,68,69
 176 345 176 345 122.452148438 431.322265625 c 0,0,1
888 384 m 16,70,71
 916 297 916 297 896.064453125 226.11328125 c 0,72,73
 871 140 871 140 770.5 48 c 1,74,75
 705 100 705 100 631 149 c 17,76,77
 724 184 724 184 718.5 274.75 c 0,78,79
 715 312 715 312 674.5 340.5 c 0,80,81
 596.467013648 398.600520704 596.467013648 398.600520704 480.75 464.75 c 0,82,83
 406 508 406 508 356.5 541.5 c 0,84,85
 278 595 278 595 263 606 c 0,86,87
 222 640 222 640 194 662 c 0,88,89
 189 666 189 666 170 682 c 128,-1,90
 151 698 151 698 126.5 725 c 128,-1,91
 102 752 102 752 76 789 c 128,-1,92
 50 826 50 826 32 872.5 c 128,-1,93
 14 919 14 919 8 974.5 c 128,-1,94
 2 1030 2 1030 16 1094 c 1,95,96
 39 1175 39 1175 92.5 1240 c 128,-1,97
 146 1305 146 1305 221.5 1350.5 c 128,-1,98
 297 1396 297 1396 390.5 1421 c 128,-1,99
 484 1446 484 1446 586 1446 c 0,100,101
 673 1446 673 1446 748 1438 c 128,-1,102
 823 1430 823 1430 889.5 1411.5 c 128,-1,103
 956 1393 956 1393 1017 1363 c 128,-1,104
 1078 1333 1078 1333 1136 1288 c 1,105,-1
 940 954 l 1,106,107
 896 999 896 999 839.5 1034 c 128,-1,108
 783 1069 783 1069 723.5 1090.5 c 128,-1,109
 664 1112 664 1112 606.5 1117 c 128,-1,110
 549 1122 549 1122 502.5 1107.5 c 128,-1,111
 456 1093 456 1093 425.5 1055.5 c 0,112,113
 393 1016 393 1016 391 954 c 0,114,115
 389 902 389 902 414 856.5 c 0,116,117
 437 814 437 814 474 778 c 128,-1,118
 511 742 511 742 558 710 c 128,-1,119
 605 678 605 678 653.5 645 c 0,120,121
 711.878359264 605.27864215 711.878359264 605.27864215 747 574.5 c 0,122,123
 870.667662009 455.711193045 870.667662009 455.711193045 888 384 c 16,70,71
EndSplineSet
EndChar
StartChar: dieresis
Encoding: 168 168 71
Width: 469
GlyphClass: 2
Flags: W
LayerCount: 2
Fore
SplineSet
391 1374 m 0,0,1
 354 1372 354 1372 328 1396.5 c 128,-1,2
 302 1421 302 1421 299 1456 c 0,3,4
 298 1475 298 1475 304 1492 c 128,-1,5
 310 1509 310 1509 321.5 1521.5 c 128,-1,6
 333 1534 333 1534 348 1541.5 c 128,-1,7
 363 1549 363 1549 381 1550 c 0,8,9
 419 1551 419 1551 445 1527 c 128,-1,10
 471 1503 471 1503 473 1464 c 0,11,12
 476 1427 476 1427 452.5 1401.5 c 128,-1,13
 429 1376 429 1376 391 1374 c 0,0,1
106 1358 m 0,14,15
 88 1357 88 1357 70 1363 c 128,-1,16
 52 1369 52 1369 38 1381 c 128,-1,17
 24 1393 24 1393 14 1411 c 128,-1,18
 4 1429 4 1429 2 1452 c 0,19,20
 0 1477 0 1477 7.5 1496 c 128,-1,21
 15 1515 15 1515 28.5 1528.5 c 128,-1,22
 42 1542 42 1542 59 1549 c 128,-1,23
 76 1556 76 1556 94 1556 c 0,24,25
 114 1557 114 1557 131 1549.5 c 128,-1,26
 148 1542 148 1542 160.5 1529 c 128,-1,27
 173 1516 173 1516 180 1498.5 c 128,-1,28
 187 1481 187 1481 188 1462 c 0,29,30
 189 1444 189 1444 183.5 1426 c 128,-1,31
 178 1408 178 1408 167.5 1393.5 c 128,-1,32
 157 1379 157 1379 141 1369 c 128,-1,33
 125 1359 125 1359 106 1358 c 0,14,15
EndSplineSet
EndChar
StartChar: copyright
Encoding: 169 169 72
Width: 1208
GlyphClass: 2
Flags: W
LayerCount: 2
Fore
SplineSet
545 25 m 0,0,1
 645 25 645 25 729.5 60 c 128,-1,2
 814 95 814 95 875.5 153.5 c 128,-1,3
 937 212 937 212 971.5 289.5 c 128,-1,4
 1006 367 1006 367 1006 453 c 0,5,6
 1006 547 1006 547 971.5 625.5 c 128,-1,7
 937 704 937 704 875.5 760.5 c 128,-1,8
 814 817 814 817 729.5 848 c 128,-1,9
 645 879 645 879 545 879 c 0,10,11
 454 879 454 879 374.5 848 c 128,-1,12
 295 817 295 817 236 760.5 c 128,-1,13
 177 704 177 704 143 625.5 c 128,-1,14
 109 547 109 547 109 453 c 0,15,16
 109 367 109 367 143 289.5 c 128,-1,17
 177 212 177 212 236 153.5 c 128,-1,18
 295 95 295 95 374.5 60 c 128,-1,19
 454 25 454 25 545 25 c 0,0,1
547 1014 m 0,20,21
 667 1014 667 1014 769.5 971 c 128,-1,22
 872 928 872 928 947 854.5 c 128,-1,23
 1022 781 1022 781 1065 682 c 128,-1,24
 1108 583 1108 583 1108 471 c 0,25,26
 1108 360 1108 360 1065 262.5 c 128,-1,27
 1022 165 1022 165 947 92.5 c 128,-1,28
 872 20 872 20 769.5 -21.5 c 128,-1,29
 667 -63 667 -63 547 -63 c 0,30,31
 433 -63 433 -63 334 -21.5 c 128,-1,32
 235 20 235 20 161 92.5 c 128,-1,33
 87 165 87 165 44.5 262.5 c 128,-1,34
 2 360 2 360 2 471 c 0,35,36
 2 583 2 583 44.5 682 c 128,-1,37
 87 781 87 781 161 854.5 c 128,-1,38
 235 928 235 928 334 971 c 128,-1,39
 433 1014 433 1014 547 1014 c 0,20,21
731 215 m 1,40,41
 717 204 717 204 698.5 197 c 128,-1,42
 680 190 680 190 659.5 185.5 c 128,-1,43
 639 181 639 181 618 179.5 c 128,-1,44
 597 178 597 178 578 178 c 0,45,46
 522 178 522 178 469.5 197.5 c 128,-1,47
 417 217 417 217 376 251.5 c 128,-1,48
 335 286 335 286 310 333 c 128,-1,49
 285 380 285 380 285 434 c 0,50,51
 282 495 282 495 300.5 549.5 c 128,-1,52
 319 604 319 604 358 645 c 128,-1,53
 397 686 397 686 456 710.5 c 128,-1,54
 515 735 515 735 592 735 c 0,55,56
 625 735 625 735 654.5 730 c 128,-1,57
 684 725 684 725 706.5 719 c 128,-1,58
 729 713 729 713 743.5 707 c 128,-1,59
 758 701 758 701 760 698 c 2,60,-1
 760 559 l 1,61,62
 751 564 751 564 735.5 570.5 c 128,-1,63
 720 577 720 577 699.5 582 c 128,-1,64
 679 587 679 587 655 589 c 128,-1,65
 631 591 631 591 606 588 c 0,66,67
 584 588 584 588 552 579 c 128,-1,68
 520 570 520 570 492 550 c 128,-1,69
 464 530 464 530 447 496.5 c 128,-1,70
 430 463 430 463 438 414 c 0,71,72
 446 372 446 372 481 346 c 128,-1,73
 516 320 516 320 561.5 309 c 128,-1,74
 607 298 607 298 653.5 302 c 128,-1,75
 700 306 700 306 731 326 c 1,76,-1
 731 215 l 1,40,41
EndSplineSet
EndChar
StartChar: ordfeminine
Encoding: 170 170 171
Width: 311
Flags: W
LayerCount: 2
Fore
SplineSet
311 1142 m 1,0,-1
 -3 1135 l 1,1,-1
 -3 1238 l 1,2,-1
 313 1233 l 1,3,-1
 311 1142 l 1,0,-1
201.474609375 1455.90039062 m 0,4,5
 177.811221746 1494.56959328 177.811221746 1494.56959328 32.0751953125 1468.15039062 c 1,6,-1
 14.5751953125 1547.59960938 l 1,7,8
 63.5751953125 1571.75 63.5751953125 1571.75 125.524902344 1571.75 c 0,9,10
 248.916776559 1571.75 248.916776559 1571.75 290.025390625 1474.79980469 c 0,11,12
 305.055162016 1438.72807378 305.055162016 1438.72807378 306.639885695 1368.03884158 c 128,-1,13
 308.224609375 1297.34960938 308.224609375 1297.34960938 308.924804688 1265.84960938 c 1,14,-1
 207.075195312 1265.84960938 l 1,15,16
 207.555324998 1271.43906503 207.555324998 1271.43906503 207.994746918 1276.87045047 c 1,17,18
 175.679878034 1260.25 175.679878034 1260.25 110.125 1260.25 c 0,19,20
 4.0751953125 1259.90039062 4.0751953125 1259.90039062 4.0751953125 1335.15039062 c 0,21,22
 4.0751953125 1442.25 4.0751953125 1442.25 138.474609375 1442.25 c 0,23,24
 185.929327414 1442.25 185.929327414 1442.25 209.434724694 1429.99638932 c 1,25,26
 206.638300384 1447.54449494 206.638300384 1447.54449494 201.474609375 1455.90039062 c 0,4,5
211.522645648 1330.28097474 m 1,27,28
 212.590590152 1352.31232088 212.590590152 1352.31232088 212.720204101 1370.7000841 c 1,29,30
 195.777654885 1380.65039063 195.777654885 1380.65039063 155.226229786 1380.65039063 c 128,-1,31
 114.674804688 1380.65039062 114.674804688 1380.65039062 115.024902344 1349.85009766 c 128,-1,32
 115.375 1319.04980469 115.375 1319.04980469 153.847981168 1320.65405625 c 128,-1,33
 192.320962336 1322.25830781 192.320962336 1322.25830781 211.522645648 1330.28097474 c 1,27,28
EndSplineSet
EndChar
StartChar: guillemotleft
Encoding: 171 171 132
Width: 1500
VWidth: 0
Flags: W
LayerCount: 2
Fore
SplineSet
1277 324 m 1,0,-1
 1107 136 l 1,1,-1
 621 678 l 1,2,-1
 1136 1270 l 1,3,-1
 1320 1080 l 1,4,-1
 912 705 l 1,5,-1
 1277 324 l 1,0,-1
693 264 m 1,6,-1
 523 123 l 1,7,-1
 0 719 l 1,8,-1
 552 1298 l 1,9,-1
 736 1136 l 1,10,-1
 328 690 l 1,11,-1
 693 264 l 1,6,-1
EndSplineSet
EndChar
StartChar: logicalnot
Encoding: 172 172 133
Width: 1015
Flags: W
LayerCount: 2
Fore
SplineSet
846 330 m 1,0,-1
 612 324 l 1,1,-1
 588 559.461914062 l 1,2,-1
 0 553 l 1,3,-1
 2 772 l 1,4,-1
 792 772 l 1,5,-1
 846 330 l 1,0,-1
EndSplineSet
EndChar
StartChar: uni00AD
Encoding: 173 173 134
Width: 733
Flags: W
LayerCount: 2
Fore
SplineSet
645 553 m 1,0,-1
 0 553 l 1,1,-1
 2 772 l 1,2,-1
 649 760 l 1,3,-1
 645 553 l 1,0,-1
EndSplineSet
EndChar
StartChar: registered
Encoding: 174 174 73
Width: 1210
GlyphClass: 2
Flags: W
LayerCount: 2
Fore
SplineSet
676 537 m 0,0,1
 670 586 670 586 629 601 c 128,-1,2
 588 616 588 616 514 610 c 1,3,-1
 514 455 l 1,4,5
 520 455 520 455 535.5 453.5 c 128,-1,6
 551 452 551 452 569.5 452.5 c 128,-1,7
 588 453 588 453 608 456 c 128,-1,8
 628 459 628 459 644 468 c 128,-1,9
 660 477 660 477 669 493.5 c 128,-1,10
 678 510 678 510 676 537 c 0,0,1
774 446 m 0,11,12
 748 419 748 419 708 405.5 c 128,-1,13
 668 392 668 392 631 387 c 1,14,-1
 791 227 l 1,15,-1
 709 154 l 1,16,-1
 518 371 l 1,17,-1
 520 154 l 1,18,-1
 367 145 l 1,19,-1
 350 739 l 1,20,-1
 514 750 l 2,21,22
 545 750 545 750 587.5 748 c 128,-1,23
 630 746 630 746 686 733 c 0,24,25
 711 727 711 727 734 712.5 c 128,-1,26
 757 698 757 698 775 677 c 128,-1,27
 793 656 793 656 804 630.5 c 128,-1,28
 815 605 815 605 817 578 c 0,29,30
 818 559 818 559 818 542.5 c 128,-1,31
 818 526 818 526 813.5 510.5 c 128,-1,32
 809 495 809 495 799.5 479 c 128,-1,33
 790 463 790 463 774 446 c 0,11,12
547 23 m 0,34,35
 647 23 647 23 731.5 58 c 128,-1,36
 816 93 816 93 877.5 151.5 c 128,-1,37
 939 210 939 210 973.5 287.5 c 128,-1,38
 1008 365 1008 365 1008 451 c 0,39,40
 1008 545 1008 545 973.5 623.5 c 128,-1,41
 939 702 939 702 877.5 758 c 128,-1,42
 816 814 816 814 731.5 845.5 c 128,-1,43
 647 877 647 877 547 877 c 0,44,45
 456 877 456 877 376.5 845.5 c 128,-1,46
 297 814 297 814 238 758 c 128,-1,47
 179 702 179 702 145 623.5 c 128,-1,48
 111 545 111 545 111 451 c 0,49,50
 111 365 111 365 145 287.5 c 128,-1,51
 179 210 179 210 238 151.5 c 128,-1,52
 297 93 297 93 376.5 58 c 128,-1,53
 456 23 456 23 547 23 c 0,34,35
549 1012 m 0,54,55
 669 1012 669 1012 771.5 969 c 128,-1,56
 874 926 874 926 949 852.5 c 128,-1,57
 1024 779 1024 779 1067 680 c 128,-1,58
 1110 581 1110 581 1110 469 c 0,59,60
 1110 358 1110 358 1067 260.5 c 128,-1,61
 1024 163 1024 163 949 90.5 c 128,-1,62
 874 18 874 18 771.5 -24 c 128,-1,63
 669 -66 669 -66 549 -66 c 0,64,65
 435 -66 435 -66 336 -24 c 128,-1,66
 237 18 237 18 163 90.5 c 128,-1,67
 89 163 89 163 46.5 260.5 c 128,-1,68
 4 358 4 358 4 469 c 0,69,70
 4 581 4 581 46.5 680 c 128,-1,71
 89 779 89 779 163 852.5 c 128,-1,72
 237 926 237 926 336 969 c 128,-1,73
 435 1012 435 1012 549 1012 c 0,54,55
EndSplineSet
EndChar
StartChar: macron
Encoding: 175 175 148
Width: 483
Flags: W
LayerCount: 2
Fore
SplineSet
480 1346 m 1,0,-1
 0 1345 l 1,1,-1
 1 1530 l 1,2,-1
 483 1519 l 1,3,-1
 480 1346 l 1,0,-1
EndSplineSet
EndChar
StartChar: degree
Encoding: 176 176 149
Width: 311
Flags: W
LayerCount: 2
Fore
SplineSet
152 1335 m 0,0,1
 187 1335 187 1335 209 1356 c 128,-1,2
 231 1377 231 1377 231 1405 c 0,3,4
 231 1436 231 1436 209 1455.5 c 128,-1,5
 187 1475 187 1475 152 1475 c 0,6,7
 123 1475 123 1475 101.5 1455.5 c 128,-1,8
 80 1436 80 1436 80 1405 c 0,9,10
 80 1391 80 1391 86 1378.5 c 128,-1,11
 92 1366 92 1366 101.5 1356 c 128,-1,12
 111 1346 111 1346 124 1340.5 c 128,-1,13
 137 1335 137 1335 152 1335 c 0,0,1
152 1565 m 0,14,15
 186 1565 186 1565 215 1553 c 128,-1,16
 244 1541 244 1541 265.5 1520.5 c 128,-1,17
 287 1500 287 1500 299 1472 c 128,-1,18
 311 1444 311 1444 311 1413 c 128,-1,19
 311 1382 311 1382 299 1355.5 c 128,-1,20
 287 1329 287 1329 265.5 1309 c 128,-1,21
 244 1289 244 1289 215 1277.5 c 128,-1,22
 186 1266 186 1266 152 1266 c 0,23,24
 121 1266 121 1266 93.5 1277.5 c 128,-1,25
 66 1289 66 1289 45 1309 c 128,-1,26
 24 1329 24 1329 12 1355.5 c 128,-1,27
 0 1382 0 1382 0 1413 c 128,-1,28
 0 1444 0 1444 12 1472 c 128,-1,29
 24 1500 24 1500 45 1520.5 c 128,-1,30
 66 1541 66 1541 93.5 1553 c 128,-1,31
 121 1565 121 1565 152 1565 c 0,14,15
EndSplineSet
EndChar
StartChar: plusminus
Encoding: 177 177 172
Width: 860
Flags: W
LayerCount: 2
Fore
SplineSet
760 289 m 1,0,-1
 5 291 l 1,1,-1
 7 471 l 1,2,-1
 764 457 l 1,3,-1
 760 289 l 1,0,-1
475.694335938 963.483398438 m 1,4,-1
 758 968 l 1,5,-1
 760 753 l 1,6,-1
 472.993164062 752.23828125 l 1,7,-1
 468 525 l 1,8,-1
 265 527 l 1,9,-1
 265.206054688 751.6875 l 1,10,-1
 6 751 l 1,11,-1
 8 956 l 1,12,-1
 264.671875 960.106445312 l 1,13,-1
 264 1222 l 1,14,-1
 479 1222 l 1,15,-1
 475.694335938 963.483398438 l 1,4,-1
EndSplineSet
EndChar
StartChar: acute
Encoding: 180 180 74
Width: 340
GlyphClass: 2
Flags: W
LayerCount: 2
Fore
SplineSet
66 1245 m 1,0,-1
 0 1331 l 1,1,-1
 246 1538 l 1,2,-1
 340 1407 l 1,3,-1
 66 1245 l 1,0,-1
EndSplineSet
EndChar
StartChar: mu
Encoding: 181 181 173
Width: 972
Flags: W
AnchorPoint: "bottomattside" 198 -430 basechar 0
AnchorPoint: "bottomatt" 149 -426 basechar 0
AnchorPoint: "bottom" 130 -492 basechar 0
AnchorPoint: "top" 478 919 basechar 0
LayerCount: 2
Fore
SplineSet
301 570.835555556 m 1,0,1
 304.83701718 388.64118977 304.83701718 388.64118977 338 326 c 0,2,3
 382 243 382 243 467.5 247.5 c 128,-1,4
 553 252 553 252 593 358 c 0,5,6
 619 426 619 426 620.5 536 c 128,-1,7
 622 646 622 646 617 816 c 1,8,-1
 855 816 l 1,9,-1
 871 4 l 1,10,-1
 644 0 l 1,11,-1
 641.598490313 72.5789594181 l 1,12,13
 540.338084603 -0.883820399901 540.338084603 -0.883820399901 386 -6 c 0,14,15
 342.161862608 -7.07578251268 342.161862608 -7.07578251268 301 2.48120235874 c 1,16,-1
 301 -439 l 1,17,-1
 0 -433 l 1,18,-1
 0 838 l 1,19,-1
 301 838 l 1,20,-1
 301 570.835555556 l 1,0,1
EndSplineSet
EndChar
StartChar: paragraph
Encoding: 182 182 174
Width: 1556
Flags: W
LayerCount: 2
Fore
SplineSet
1280.59960938 1430 m 1,0,-1
 1489.39941406 1423 l 1,1,-1
 1482.19921875 1257 l 1,2,-1
 1275.79980469 1264 l 1,3,-1
 1233.79980469 -3 l 1,4,-1
 1052.59960938 5.0966796875 l 1,5,-1
 1100.59960938 1272 l 1,6,-1
 967.399414062 1280 l 1,7,-1
 935 11 l 1,8,-1
 699.799804688 20 l 1,9,-1
 709.439330769 567.000613509 l 1,10,11
 660.563818472 567.017514409 660.563818472 567.017514409 621 567.5 c 0,12,13
 572 568 572 568 516.5 572.5 c 128,-1,14
 461 577 461 577 401 586.5 c 128,-1,15
 341 596 341 596 285.5 613.5 c 128,-1,16
 230 631 230 631 181 658 c 128,-1,17
 132 685 132 685 98 725 c 1,18,19
 61 762 61 762 41 799 c 128,-1,20
 21 836 21 836 12 874 c 128,-1,21
 3 912 3 912 1.5 953 c 128,-1,22
 0 994 0 994 0 1038 c 0,23,24
 0 1104 0 1104 24 1164.5 c 128,-1,25
 48 1225 48 1225 90.5 1274.5 c 128,-1,26
 133 1324 133 1324 190 1359 c 128,-1,27
 247 1394 247 1394 313 1409 c 128,-1,28
 379 1424 379 1424 438 1432.5 c 128,-1,29
 497 1441 497 1441 548.5 1445 c 128,-1,30
 600 1449 600 1449 644 1449.5 c 2,31,-1
 725 1450 l 1,32,-1
 1280.59960938 1430 l 1,0,-1
EndSplineSet
EndChar
StartChar: periodcentered
Encoding: 183 183 166
Width: 444
Flags: W
LayerCount: 2
Fore
SplineSet
0 731 m 4,0,1
 0 761 0 761 11.5 790.5 c 132,-1,2
 23 820 23 820 44.5 843 c 132,-1,3
 66 866 66 866 96.5 880.5 c 132,-1,4
 127 895 127 895 166 896 c 4,5,6
 208 897 208 897 240.5 882 c 132,-1,7
 273 867 273 867 295 843 c 132,-1,8
 317 819 317 819 327 789.5 c 132,-1,9
 337 760 337 760 336 731 c 4,10,11
 334 698 334 698 319.5 671 c 132,-1,12
 305 644 305 644 281.5 624.5 c 132,-1,13
 258 605 258 605 228 594 c 132,-1,14
 198 583 198 583 166 583 c 4,15,16
 135 583 135 583 105.5 594 c 132,-1,17
 76 605 76 605 52.5 624.5 c 132,-1,18
 29 644 29 644 14.5 671 c 132,-1,19
 0 698 0 698 0 731 c 4,0,1
EndSplineSet
EndChar
StartChar: cedilla
Encoding: 184 184 75
Width: 311
GlyphClass: 2
Flags: W
LayerCount: 2
Fore
SplineSet
0 -240 m 1,0,1
 11 -242 11 -242 38.5 -243 c 128,-1,2
 66 -244 66 -244 95 -241 c 128,-1,3
 124 -238 124 -238 146.5 -227.5 c 128,-1,4
 169 -217 169 -217 170 -195 c 0,5,6
 171 -178 171 -178 159 -168 c 128,-1,7
 147 -158 147 -158 129.5 -150.5 c 128,-1,8
 112 -143 112 -143 91 -137 c 128,-1,9
 70 -131 70 -131 52.5 -122.5 c 128,-1,10
 35 -114 35 -114 23 -102.5 c 128,-1,11
 11 -91 11 -91 12 -72 c 0,12,13
 11 -54 11 -54 18 -42 c 128,-1,14
 25 -30 25 -30 36.5 -21.5 c 128,-1,15
 48 -13 48 -13 61 -7 c 128,-1,16
 74 -1 74 -1 86 4 c 1,17,-1
 199 4 l 1,18,19
 179 -3 179 -3 164 -12 c 0,20,21
 150 -20 150 -20 139.5 -30.5 c 128,-1,22
 129 -41 129 -41 129 -55 c 0,23,24
 129 -67 129 -67 142 -73 c 128,-1,25
 155 -79 155 -79 175 -83 c 128,-1,26
 195 -87 195 -87 218.5 -92.5 c 128,-1,27
 242 -98 242 -98 262 -108 c 128,-1,28
 282 -118 282 -118 296 -135.5 c 128,-1,29
 310 -153 310 -153 311 -182 c 0,30,31
 312 -224 312 -224 290 -259.5 c 128,-1,32
 268 -295 268 -295 227 -320 c 128,-1,33
 186 -345 186 -345 128.5 -357.5 c 128,-1,34
 71 -370 71 -370 2 -365 c 1,35,-1
 0 -240 l 1,0,1
EndSplineSet
EndChar
StartChar: ordmasculine
Encoding: 186 186 150
Width: 311
Flags: W
LayerCount: 2
Fore
SplineSet
311 1142 m 1,0,-1
 -3 1135 l 1,1,-1
 -3 1238 l 1,2,-1
 313 1233 l 1,3,-1
 311 1142 l 1,0,-1
EndSplineSet
Refer: 149 176 N 1 0 0 1 0 0 2
EndChar
StartChar: guillemotright
Encoding: 187 187 135
Width: 1500
VWidth: 0
Flags: W
LayerCount: 2
Fore
SplineSet
43 324 m 1,0,-1
 408 705 l 1,1,-1
 0 1080 l 1,2,-1
 184 1270 l 1,3,-1
 699 678 l 1,4,-1
 213 136 l 1,5,-1
 43 324 l 1,0,-1
627 264 m 1,6,-1
 992 690 l 1,7,-1
 584 1136 l 1,8,-1
 768 1298 l 1,9,-1
 1320 719 l 1,10,-1
 797 123 l 1,11,-1
 627 264 l 1,6,-1
EndSplineSet
EndChar
StartChar: onehalf
Encoding: 189 189 176
Width: 1242
Flags: W
LayerCount: 2
Fore
SplineSet
989 1219 m 1,0,-1
 223 86 l 1,1,-1
 51 209 l 1,2,-1
 838 1329 l 1,3,-1
 989 1219 l 1,0,-1
EndSplineSet
Refer: 147 178 N 1 0 0 1 644 -769 2
Refer: 165 185 N 1 0 0 1 0 0 2
EndChar
StartChar: threequarters
Encoding: 190 190 177
Width: 1192
Flags: W
LayerCount: 2
Fore
SplineSet
989 1219 m 1,0,-1
 223 86 l 1,1,-1
 51 209 l 1,2,-1
 838 1329 l 1,3,-1
 989 1219 l 1,0,-1
EndSplineSet
Refer: 194 8308 N 1 0 0 1 530 -769 2
Refer: 164 179 N 1 0 0 1 0 0 2
EndChar
StartChar: AE
Encoding: 198 198 224
AltUni2: 0000e6.ffffffff.0
Width: 1847
Flags: W
AnchorPoint: "top" 936 1504 basechar 0
AnchorPoint: "bottomattside" 1488 17 basechar 0
AnchorPoint: "bottom" 960 -59 basechar 0
AnchorPoint: "bottomatt" 913 12 basechar 0
LayerCount: 2
Fore
SplineSet
775 594 m 1,0,-1
 771 965 l 1,1,-1
 574 594 l 1,2,-1
 775 594 l 1,0,-1
1746 1430 m 5,3,-1
 1746 1087 l 5,4,-1
 1133 1087 l 5,5,-1
 1139 616 l 5,6,-1
 1498 616 l 5,7,-1
 1498 424 l 5,8,-1
 1148 424 l 5,9,-1
 1152 268 l 5,10,-1
 1645 289 l 5,11,-1
 1653 16 l 5,12,-1
 783 -2 l 1,13,-1
 777 399 l 1,14,-1
 500 399 l 1,15,-1
 296 -4 l 1,16,-1
 -26 141 l 1,17,-1
 711 1432 l 1,18,-1
 1746 1430 l 5,3,-1
EndSplineSet
EndChar
StartChar: Eth
Encoding: 208 208 234
AltUni2: 000111.ffffffff.0 000110.ffffffff.0 0000f0.ffffffff.0 000189.ffffffff.0
Width: 1629
Flags: W
AnchorPoint: "top" 813 1535 basechar 0
AnchorPoint: "bottom" 868 -35 basechar 0
AnchorPoint: "bottomatt" 776 37 basechar 0
AnchorPoint: "bottomattside" 1136 195 basechar 0
LayerCount: 2
Fore
SplineSet
647 780 m 5,0,-1
 643 573 l 5,1,-1
 -2 573 l 5,2,-1
 0 793 l 5,3,-1
 647 780 l 5,0,-1
EndSplineSet
Refer: 36 68 N 1 0 0 1 141 -4 2
EndChar
StartChar: multiply
Encoding: 215 215 77
Width: 971
GlyphClass: 2
Flags: W
LayerCount: 2
Fore
SplineSet
720 223 m 1,0,-1
 446 540 l 1,1,-1
 166 232 l 1,2,-1
 1 400 l 1,3,-1
 301 716 l 1,4,-1
 13 1035 l 1,5,-1
 205 1207 l 1,6,-1
 472 894 l 1,7,-1
 714 1172 l 1,8,-1
 849 1046 l 1,9,-1
 588 750 l 1,10,-1
 917 385 l 1,11,-1
 720 223 l 1,0,-1
EndSplineSet
EndChar
StartChar: Oslash
Encoding: 216 216 241
AltUni2: 0000f8.ffffffff.0
Width: 1596
Flags: W
AnchorPoint: "top" 684 1481 basechar 0
AnchorPoint: "bottom" 778 -51 basechar 0
AnchorPoint: "bottomatt" 758 0 basechar 0
AnchorPoint: "bottomattside" 792 27 basechar 0
LayerCount: 2
Fore
SplineSet
1229 1436 m 1,0,-1
 1419 1239 l 5,1,-1
 305 23 l 5,2,-1
 86 207 l 1,3,-1
 1229 1436 l 1,0,-1
EndSplineSet
Refer: 47 79 N 1 0 0 1 0 0 2
EndChar
StartChar: Thorn
Encoding: 222 222 247
AltUni2: 0000fe.ffffffff.0
Width: 1139
Flags: W
AnchorPoint: "top" 157 1529 basechar 0
AnchorPoint: "bottom" 225 -51 basechar 0
AnchorPoint: "bottomatt" 236 10 basechar 0
AnchorPoint: "bottomattside" 294 7 basechar 0
LayerCount: 2
Fore
SplineSet
378 506 m 1,0,1
 389 506 389 506 418.5 505 c 128,-1,2
 448 504 448 504 485 506.5 c 128,-1,3
 522 509 522 509 561.5 518.5 c 128,-1,4
 601 528 601 528 632.5 549 c 128,-1,5
 664 570 664 570 681.5 605.5 c 128,-1,6
 699 641 699 641 693 696 c 0,7,8
 682 794 682 794 596 825 c 128,-1,9
 510 856 510 856 359 836 c 1,10,-1
 378 506 l 1,0,1
1040 764 m 0,11,12
 1044 730 1044 730 1038 680 c 128,-1,13
 1032 630 1032 630 1009 575 c 128,-1,14
 986 520 986 520 941.5 466 c 128,-1,15
 897 412 897 412 824 370 c 128,-1,16
 751 328 751 328 645.5 303 c 128,-1,17
 540 278 540 278 395 281 c 1,18,-1
 406 -11 l 1,19,-1
 39 -25 l 1,20,-1
 0 1453 l 1,21,-1
 326 1464 l 1,22,-1
 336 1164 l 1,23,24
 370 1169 370 1169 419 1172.5 c 128,-1,25
 468 1176 468 1176 523 1174.5 c 128,-1,26
 578 1173 578 1173 634.5 1165 c 128,-1,27
 691 1157 691 1157 741 1139 c 0,28,29
 801 1118 801 1118 853 1079 c 128,-1,30
 905 1040 905 1040 944.5 990 c 128,-1,31
 984 940 984 940 1009 882 c 128,-1,32
 1034 824 1034 824 1040 764 c 0,11,12
EndSplineSet
EndChar
StartChar: divide
Encoding: 247 247 78
Width: 914
GlyphClass: 2
Flags: W
LayerCount: 2
Fore
SplineSet
279 350 m 0,0,1
 279 379 279 379 290 403.5 c 128,-1,2
 301 428 301 428 319.5 446 c 128,-1,3
 338 464 338 464 362.5 474 c 128,-1,4
 387 484 387 484 414 484 c 0,5,6
 443 484 443 484 468.5 473.5 c 128,-1,7
 494 463 494 463 512.5 445 c 128,-1,8
 531 427 531 427 541.5 402.5 c 128,-1,9
 552 378 552 378 552 350 c 0,10,11
 552 320 552 320 541.5 295.5 c 128,-1,12
 531 271 531 271 512.5 253 c 128,-1,13
 494 235 494 235 468.5 225 c 128,-1,14
 443 215 443 215 414 215 c 0,15,16
 354 215 354 215 316.5 252.5 c 128,-1,17
 279 290 279 290 279 350 c 0,0,1
279 969 m 0,18,19
 279 997 279 997 289.5 1024 c 128,-1,20
 300 1051 300 1051 320 1072.5 c 128,-1,21
 340 1094 340 1094 368 1107.5 c 128,-1,22
 396 1121 396 1121 432 1122 c 0,23,24
 471 1123 471 1123 501 1109 c 128,-1,25
 531 1095 531 1095 550.5 1073 c 128,-1,26
 570 1051 570 1051 579.5 1023.5 c 128,-1,27
 589 996 589 996 588 969 c 0,28,29
 587 939 587 939 573.5 914.5 c 128,-1,30
 560 890 560 890 538.5 872 c 128,-1,31
 517 854 517 854 489.5 844 c 128,-1,32
 462 834 462 834 432 834 c 0,33,34
 403 834 403 834 376 844 c 128,-1,35
 349 854 349 854 327 872 c 128,-1,36
 305 890 305 890 292 914.5 c 128,-1,37
 279 939 279 939 279 969 c 0,18,19
860 569 m 1,38,-1
 0 569 l 1,39,-1
 2 747 l 1,40,-1
 864 737 l 1,41,-1
 860 569 l 1,38,-1
EndSplineSet
EndChar
StartChar: Hbar
Encoding: 294 294 286
AltUni2: 000127.ffffffff.0
Width: 1838
Flags: W
AnchorPoint: "top" 909 1444 basechar 0
AnchorPoint: "bottom" 940 -41 basechar 0
AnchorPoint: "bottomatt" 919 0 basechar 0
AnchorPoint: "bottomattside" 1276 41 basechar 0
LayerCount: 2
Fore
SplineSet
1716 1126 m 1,0,-1
 1712 947 l 1,1,-1
 0 906 l 1,2,-1
 2 1098 l 1,3,-1
 1716 1126 l 1,0,-1
EndSplineSet
Refer: 40 72 N 1 0 0 1 141 0 2
EndChar
StartChar: Lslash
Encoding: 321 321 82
AltUni2: 000142.ffffffff.0
Width: 1023
GlyphClass: 2
Flags: W
AnchorPoint: "top" 218 1536 basechar 0
AnchorPoint: "bottom" 471 -10 basechar 0
AnchorPoint: "bottomatt" 451 20 basechar 0
AnchorPoint: "bottomattside" 772 53 basechar 0
LayerCount: 2
Fore
SplineSet
709 1032 m 5,0,-1
 752 875 l 5,1,-1
 -137 593 l 5,2,-1
 -185 760 l 5,3,-1
 709 1032 l 5,0,-1
EndSplineSet
Refer: 44 76 N 1 0 0 1 0 0 2
EndChar
StartChar: Eng
Encoding: 330 330 290
AltUni2: 00014b.ffffffff.0
Width: 1345
Flags: W
AnchorPoint: "top" 643 1448 basechar 0
AnchorPoint: "bottom" 696 -532 basechar 0
AnchorPoint: "bottomatt" 703 -423 basechar 0
AnchorPoint: "bottomattside" 990 -335 basechar 0
LayerCount: 2
Fore
SplineSet
969 18 m 13,0,-1
 365 868 l 17,1,-1
 385 0 l 1,2,-1
 0 0 l 1,3,-1
 0 1434 l 1,4,-1
 291 1434 l 1,5,-1
 930 522 l 9,6,-1
 887 1419 l 17,7,-1
 1217 1432 l 1,8,-1
 1239 39 l 2,9,10
 1247 -497 1247 -497 688.775390625 -439.956054688 c 1,11,-1
 711.775390625 -151.956054688 l 1,12,13
 979 -161 979 -161 969 18 c 13,0,-1
EndSplineSet
EndChar
StartChar: OE
Encoding: 338 338 84
AltUni2: 000153.ffffffff.0
Width: 1817
GlyphClass: 2
Flags: W
AnchorPoint: "bottomatt" 873 15 basechar 0
AnchorPoint: "bottom" 920 -56 basechar 0
AnchorPoint: "bottomattside" 1448 20 basechar 0
AnchorPoint: "top" 896 1507 basechar 0
LayerCount: 2
Fore
SplineSet
326 672 m 0,0,1
 326 595 326 595 349.5 517.5 c 128,-1,2
 373 440 373 440 423 378 c 128,-1,3
 473 316 473 316 551 277 c 128,-1,4
 629 238 629 238 739 238 c 1,5,-1
 729 1085 l 1,6,7
 645 1085 645 1085 572 1052.5 c 128,-1,8
 499 1020 499 1020 444 963.5 c 128,-1,9
 389 907 389 907 357.5 832 c 128,-1,10
 326 757 326 757 326 672 c 0,0,1
1706 1090 m 1,11,-1
 1065 1090 l 1,12,-1
 1063 618 l 1,13,-1
 1497 618 l 1,14,-1
 1497 426 l 1,15,-1
 1069 426 l 1,16,-1
 1069 270 l 1,17,-1
 1618 291 l 1,18,-1
 1630 18 l 1,19,-1
 743 0 l 1,20,-1
 743 2 l 1,21,-1
 729 2 l 2,22,23
 627 2 627 2 533.5 27 c 128,-1,24
 440 52 440 52 359 98 c 128,-1,25
 278 144 278 144 212 209 c 128,-1,26
 146 274 146 274 98.5 353 c 128,-1,27
 51 432 51 432 25.5 523 c 128,-1,28
 0 614 0 614 0 713 c 0,29,30
 0 811 0 811 25.5 902.5 c 128,-1,31
 51 994 51 994 97.5 1073.5 c 128,-1,32
 144 1153 144 1153 210 1219 c 128,-1,33
 276 1285 276 1285 356.5 1332 c 128,-1,34
 437 1379 437 1379 530 1405 c 128,-1,35
 623 1431 623 1431 725 1432 c 2,36,-1
 1706 1432 l 1,37,-1
 1706 1090 l 1,11,-1
EndSplineSet
EndChar
StartChar: Tbar
Encoding: 358 358 288
AltUni2: 000167.ffffffff.0
Width: 1377
Flags: W
AnchorPoint: "top" 619 1457 basechar 0
AnchorPoint: "bottom" 622 -63 basechar 0
AnchorPoint: "bottomatt" 653 10 basechar 0
AnchorPoint: "bottomattside" 714 29 basechar 0
LayerCount: 2
Fore
SplineSet
1026 712 m 5,0,-1
 1033 523 l 5,1,-1
 228 506 l 1,2,-1
 222 698 l 1,3,-1
 1026 712 l 5,0,-1
EndSplineSet
Refer: 52 84 N 1 0 0 1 0 0 2
EndChar
StartChar: uni0181
Encoding: 385 385 292
Width: 1574
Flags: W
LayerCount: 2
Fore
SplineSet
352 1222 m 1,0,1
 204 1214 204 1214 215 1059 c 1,2,-1
 14 1037 l 1,3,4
 -70 1399 -70 1399 344 1421 c 2,5,-1
 736 1442 l 1,6,-1
 352 1222 l 1,0,1
EndSplineSet
Refer: 34 66 N 1 0 0 1 344 -2 2
EndChar
StartChar: uni0184
Encoding: 388 388 297
AltUni2: 000185.ffffffff.0
Width: 1384
Flags: W
LayerCount: 2
Fore
SplineSet
185 1448 m 1,0,-1
 267 1046 l 1,1,-1
 0 1241 l 1,2,-1
 185 1448 l 1,0,-1
EndSplineSet
Refer: 114 1068 N 1 0 0 1 147 0 2
EndChar
StartChar: uni0186
Encoding: 390 390 293
AltUni2: 000254.ffffffff.0
Width: 1351
Flags: W
LayerCount: 2
Fore
SplineSet
492 -10 m 0,0,1
 209.172413793 -10 209.172413793 -10 90 86 c 1,2,-1
 90 375 l 1,3,4
 195.62364637 307.241434404 195.62364637 307.241434404 370.5 310.5 c 0,5,6
 548.825440959 313.822834304 548.825440959 313.822834304 680.5 386 c 0,7,8
 748 423 748 423 796 477.5 c 128,-1,9
 844 532 844 532 858 604 c 0,10,11
 884.026943005 763.879792746 884.026943005 763.879792746 803.5 877.5 c 0,12,13
 737.917336395 970.034443169 737.917336395 970.034443169 612 1022.5 c 0,14,15
 510 1065 510 1065 416 1065 c 1,16,17
 298.0237691 1077.90365025 298.0237691 1077.90365025 171 1048.5 c 0,18,19
 65.6808510638 1024.12056738 65.6808510638 1024.12056738 13 989 c 1,20,-1
 13 1354 l 1,21,22
 20 1361 20 1361 57 1376.5 c 128,-1,23
 94 1392 94 1392 153.5 1408.5 c 0,24,25
 303.151515152 1450 303.151515152 1450 446.075757576 1450 c 128,-1,26
 589 1450 589 1450 702 1421 c 128,-1,27
 815 1392 815 1392 906.5 1339.5 c 128,-1,28
 998 1287 998 1287 1066.5 1214.5 c 128,-1,29
 1135 1142 1135 1142 1180 1054.5 c 0,30,31
 1272.06961114 875.475756121 1272.06961114 875.475756121 1262 662 c 1,32,33
 1262 476.943925234 1262 476.943925234 1147.5 317.5 c 0,34,35
 1040.52300793 168.532039074 1040.52300793 168.532039074 862.5 79 c 0,36,37
 685.534883721 -10 685.534883721 -10 492 -10 c 0,0,1
EndSplineSet
EndChar
StartChar: uni0187
Encoding: 391 391 299
AltUni2: 000188.ffffffff.0
Width: 1351
Flags: W
LayerCount: 2
Fore
SplineSet
1262 989 m 1,0,-1
 1028 1355 l 1,1,2
 1028 1714 1028 1714 1418 1635 c 1,3,-1
 1391 1461 l 1,4,5
 1262 1473 1262 1473 1262 1354 c 26,6,-1
 1262 989 l 1,0,-1
EndSplineSet
Refer: 35 67 N 1 0 0 1 0 0 2
EndChar
StartChar: uni018A
Encoding: 394 394 298
Width: 1851
Flags: W
LayerCount: 2
Fore
SplineSet
371 1196 m 17,0,1
 189 1187 189 1187 199 1038 c 1,2,-1
 20 991 l 4,3,4
 -85 1369 -85 1369 364 1413 c 2,5,-1
 492.5 1425.5 l 1,6,7
 474 1390 474 1390 371 1196 c 17,0,1
EndSplineSet
Refer: 36 68 N 1 0 0 1 364 0 2
EndChar
StartChar: uni018B
Encoding: 395 395 294
AltUni2: 00018c.ffffffff.0
Width: 1237
Flags: W
LayerCount: 2
Fore
SplineSet
715.22265625 573 m 1,0,1
 703.22265625 573 703.22265625 573 668.72265625 575 c 128,-1,2
 634.22265625 577 634.22265625 577 590.22265625 576 c 128,-1,3
 546.22265625 575 546.22265625 575 498.22265625 567 c 128,-1,4
 450.22265625 559 450.22265625 559 411.72265625 538 c 128,-1,5
 373.22265625 517 373.22265625 517 350.22265625 479.5 c 128,-1,6
 327.22265625 442 327.22265625 442 332.22265625 383 c 128,-1,7
 337.22265625 324 337.22265625 324 365.72265625 286.5 c 0,8,9
 443.794921875 183.772460938 443.794921875 183.772460938 723.22265625 206 c 1,10,-1
 715.22265625 573 l 1,0,1
705.22265625 1140.33203125 m 1,11,-1
 40.22265625 1126 l 1,12,-1
 29.22265625 1404 l 1,13,-1
 1117.22265625 1431 l 1,14,-1
 1097.22265625 0 l 1,15,16
 911.22265625 -7 911.22265625 -7 726.22265625 0 c 0,17,18
 444.22265625 10 444.22265625 10 314.22265625 41 c 0,19,20
 248.22265625 56 248.22265625 56 191.22265625 91 c 128,-1,21
 134.22265625 126 134.22265625 126 91.72265625 175.5 c 128,-1,22
 49.22265625 225 49.22265625 225 25.22265625 285.5 c 128,-1,23
 1.22265625 346 1.22265625 346 0.22265625 399.5 c 128,-1,24
 -0.77734375 453 -0.77734375 453 2.72265625 497 c 0,25,26
 13.22265625 627 13.22265625 627 99.22265625 725 c 0,27,28
 238.22265625 883 238.22265625 883 705.22265625 883 c 1,29,-1
 705.22265625 1140.33203125 l 1,11,-1
EndSplineSet
EndChar
StartChar: uni018D
Encoding: 397 397 361
Width: 990
Flags: W
AnchorPoint: "top" 451 935 basechar 0
AnchorPoint: "bottomattside" 812 -457 basechar 0
AnchorPoint: "bottomatt" 526 -471 basechar 0
AnchorPoint: "bottom" 478 -560 basechar 0
LayerCount: 2
Fore
SplineSet
557 283.5 m 128,-1,1
 600 325 600 325 600 383 c 128,-1,2
 600 441 600 441 557.5 480 c 128,-1,3
 515 519 515 519 453 519 c 128,-1,4
 391 519 391 519 350 480 c 128,-1,5
 309 441 309 441 309 383 c 128,-1,6
 309 325 309 325 351 283.5 c 128,-1,7
 393 242 393 242 453.5 242 c 128,-1,0
 514 242 514 242 557 283.5 c 128,-1,1
775 745 m 128,-1,9
 906 614 906 614 906 431 c 128,-1,10
 906 248 906 248 775 121 c 0,11,12
 733.948336556 81.5033238074 733.948336556 81.5033238074 686.803350022 54.2900132074 c 1,13,-1
 918 -189 l 1,14,-1
 923 -467 l 1,15,-1
 59 -491 l 1,16,-1
 54 -189 l 1,17,-1
 541 -196 l 1,18,-1
 360.485242443 1.57560354524 l 1,19,20
 230.249533463 25.017763463 230.249533463 25.017763463 132 121 c 0,21,22
 2 249 2 249 2 431.5 c 128,-1,23
 2 614 2 614 131.5 745 c 128,-1,24
 261 876 261 876 452.5 876 c 128,-1,8
 644 876 644 876 775 745 c 128,-1,9
EndSplineSet
EndChar
StartChar: uni018E
Encoding: 398 398 295
AltUni2: 0001dd.ffffffff.0 000258.ffffffff.0
Width: 1271
Flags: W
LayerCount: 2
Fore
SplineSet
792 1090 m 1,0,-1
 0 1090 l 1,1,-1
 0 1432 l 1,2,-1
 1161 1432 l 1,3,-1
 1143 0 l 1,4,-1
 117 18 l 1,5,-1
 125 291 l 1,6,-1
 774 270 l 1,7,-1
 778 426 l 1,8,-1
 348 426 l 1,9,-1
 348 618 l 1,10,-1
 786 618 l 1,11,-1
 792 1090 l 1,0,-1
EndSplineSet
EndChar
StartChar: uni018F
Encoding: 399 399 300
AltUni2: 000259.ffffffff.0
Width: 1611
Flags: W
AnchorPoint: "bottomattside" 1087.04 120.96 basechar 0
AnchorPoint: "bottomatt" 766.16 -6.71973 basechar 0
AnchorPoint: "bottom" 757.76 -92.4004 basechar 0
AnchorPoint: "top" 826.64 1570.8 basechar 0
LayerCount: 2
Fore
SplineSet
325 598 m 1,0,1
 386 297 386 297 739.280273438 307.479492188 c 0,2,3
 1130 318 1130 318 1144.72070312 635.0390625 c 1,4,-1
 325 598 l 1,0,1
180 1065 m 5,6,-1
 144.560546875 1379.27929688 l 5,7,8
 249 1463 249 1463 576.3203125 1461.59960938 c 0,9,10
 1017.77665316 1458.71410229 1017.77665316 1458.71410229 1253.36035156 1261.6796875 c 0,11,12
 1504 1051 1504 1051 1495.28027344 779.51953125 c 1,13,14
 1521 458 1521 458 1298.72070312 221.759765625 c 0,15,16
 1079 -12 1079 -12 781 -15.1201171875 c 0,17,18
 12 -24 12 -24 0 856 c 1,19,-1
 1147.72070312 904.479492188 l 1,20,21
 1014 1236 1014 1236 180 1065 c 5,6,-1
EndSplineSet
EndChar
StartChar: uni0190
Encoding: 400 400 296
AltUni2: 00025b.ffffffff.0
Width: 1265
Flags: W
LayerCount: 2
Fore
SplineSet
999 134 m 1,0,-1
 882 336 l 1,1,2
 691.740234375 213.690429688 691.740234375 213.690429688 555.5 242 c 0,3,4
 481.256835938 257.426757812 481.256835938 257.426757812 455 299 c 0,5,6
 426.515625 344.099609375 426.515625 344.099609375 472.5 396.5 c 0,7,8
 537 470 537 470 761 470 c 2,9,-1
 829 470 l 1,10,-1
 831 686 l 1,11,12
 585.333007812 686 585.333007812 686 472 766 c 0,13,14
 421 802 421 802 410.5 848.5 c 128,-1,15
 400 895 400 895 430.5 940.5 c 128,-1,16
 461 986 461 986 515 997.5 c 128,-1,17
 569 1009 569 1009 638.5 994.5 c 0,18,19
 781.775390625 964.608398438 781.775390625 964.608398438 942 846 c 1,20,-1
 1158 1186 l 1,21,22
 956.6796875 1356.34765625 956.6796875 1356.34765625 717.5 1408.5 c 0,23,24
 651 1423 651 1423 592 1423 c 128,-1,25
 533 1423 533 1423 473.5 1417.5 c 128,-1,26
 414 1412 414 1412 353 1395.5 c 128,-1,27
 292 1379 292 1379 233 1351 c 128,-1,28
 174 1323 174 1323 125.5 1278.5 c 0,29,30
 20.31640625 1181.99121094 20.31640625 1181.99121094 0 1025 c 0,31,32
 -22.9072265625 831.92578125 -22.9072265625 831.92578125 167 680 c 0,33,34
 252 615 252 615 364 573 c 1,35,36
 161.780273438 499.216796875 161.780273438 499.216796875 146.5 335.5 c 0,37,38
 143 298 143 298 157.5 240.5 c 128,-1,39
 172 183 172 183 221.5 129.5 c 128,-1,40
 271 76 271 76 342 41 c 128,-1,41
 413 6 413 6 498 -7.5 c 128,-1,42
 583 -21 583 -21 671.5 -11 c 0,43,44
 864.015625 10.7529296875 864.015625 10.7529296875 999 134 c 1,0,-1
EndSplineSet
EndChar
StartChar: uni0196
Encoding: 406 406 307
AltUni2: 000269.ffffffff.0
Width: 789
Flags: W
LayerCount: 2
Fore
SplineSet
685.228515625 298.78125 m 1,0,1
 685.228515625 298.78125 685.228515625 298.78125 712.29296875 25.7490234375 c 1,2,3
 565.559570312 -13.373046875 565.559570312 -13.373046875 422.028320312 8.1328125 c 0,4,5
 321.592773438 21.7587890625 321.592773438 21.7587890625 235.079101562 85.7216796875 c 0,6,7
 188.879882812 119.877929688 188.879882812 119.877929688 152.8046875 172.220703125 c 128,-1,8
 116.729492188 224.564453125 116.729492188 224.564453125 100.250976562 308.602539062 c 0,9,10
 73.0732421875 447.204101562 73.0732421875 447.204101562 96 997.311523438 c 0,11,12
 106.046875 1238.35351562 106.046875 1238.35351562 124.78515625 1452.53515625 c 1,13,-1
 489.055664062 1439.73828125 l 1,14,15
 480.728515625 1172.44726562 480.728515625 1172.44726562 466.609375 970.91015625 c 128,-1,16
 452.490234375 769.374023438 452.490234375 769.374023438 447.21875 628.798828125 c 128,-1,17
 441.946289062 488.223632812 441.946289062 488.223632812 452.905273438 406.958984375 c 128,-1,18
 463.864257812 325.694335938 463.864257812 325.694335938 504.87109375 301.026367188 c 0,19,20
 554.143554688 270.755859375 554.143554688 270.755859375 685.228515625 298.78125 c 1,0,1
EndSplineSet
EndChar
StartChar: uni0197
Encoding: 407 407 308
AltUni2: 000268.ffffffff.0
Width: 709
Flags: W
AnchorPoint: "bottomattside" 140 31 basechar 0
AnchorPoint: "bottomatt" 284 10 basechar 0
AnchorPoint: "bottom" 294 -61 basechar 0
AnchorPoint: "top" 358 1471 basechar 0
LayerCount: 2
Fore
SplineSet
647 780 m 1,0,-1
 643 573 l 1,1,-1
 -2 573 l 1,2,-1
 0 793 l 1,3,-1
 647 780 l 1,0,-1
EndSplineSet
Refer: 41 73 N 1 0 0 1 38 0 2
EndChar
StartChar: uni019B
Encoding: 411 411 360
Width: 1284
Flags: W
LayerCount: 2
Fore
SplineSet
286 1242 m 1,0,-1
 1074 1194 l 1,1,-1
 1064 966 l 1,2,-1
 270 1022 l 1,3,-1
 286 1242 l 1,0,-1
650 510 m 1,4,-1
 297 -38 l 1,5,-1
 12 173 l 1,6,-1
 436.051757812 872.336914062 l 1,7,-1
 472 1436 l 1,8,-1
 876 1414 l 1,9,-1
 836.051757812 852.336914062 l 1,10,-1
 1226 119 l 1,11,-1
 957 -37 l 1,12,-1
 650 510 l 1,4,-1
EndSplineSet
EndChar
StartChar: uni019C
Encoding: 412 412 363
AltUni2: 00026f.ffffffff.0
Width: 1542
Flags: W
AnchorPoint: "top" 737 1499.99 basechar 0
AnchorPoint: "bottom" 751 -96 basechar 0
AnchorPoint: "bottomatt" 806 96 basechar 0
AnchorPoint: "bottomattside" 1147 20 basechar 0
LayerCount: 2
Fore
SplineSet
1151.125 1429 m 1,0,-1
 1437 1429 l 1,1,-1
 1440 0 l 1,2,-1
 1123 5.0068359375 l 1,3,-1
 1123 68 l 1,4,5
 1049 21 1049 21 977 14 c 0,6,7
 839 0 839 0 688 132 c 1,8,9
 565 5 565 5 442 0 c 0,10,11
 262 -8 262 -8 168 68 c 4,12,13
 57 158 57 158 27 330 c 0,14,15
 17 389 17 389 8.5 717.5 c 128,-1,16
 0 1046 0 1046 0 1399 c 1,17,-1
 311.075195312 1399 l 1,18,19
 307 1228 307 1228 307.924804688 829.5 c 128,-1,20
 309 431 309 431 332.674804688 363.006835938 c 0,21,22
 369 257 369 257 431.674804688 252.506835938 c 0,23,24
 492 248 492 248 533.375 331.006835938 c 0,25,26
 564 393 564 393 565.877929688 555.134765625 c 0,27,28
 568 717 568 717 567.575195312 1414 c 1,29,-1
 866.724609375 1414 l 1,30,31
 862 1243 862 1243 863.575195312 844.5 c 128,-1,32
 865 446 865 446 888.325195312 378.006835938 c 0,33,34
 924 272 924 272 1001.27539062 267.506835938 c 0,35,36
 1080 263 1080 263 1117.82519531 345.006835938 c 0,37,38
 1155 425 1155 425 1152.92480469 915 c 128,-1,39
 1151 1405 1151 1405 1151.125 1429 c 1,0,-1
EndSplineSet
EndChar
StartChar: uni019F
Encoding: 415 415 372
Width: 1595
Flags: W
AnchorPoint: "top" 684 1481 basechar 0
AnchorPoint: "bottom" 778 -51 basechar 0
AnchorPoint: "bottomatt" 758 0 basechar 0
AnchorPoint: "bottomattside" 792 27 basechar 0
LayerCount: 2
Fore
SplineSet
240 553 m 5,0,-1
 242 772 l 5,1,-1
 1275 757 l 1,2,-1
 1264 558 l 1,3,-1
 240 553 l 5,0,-1
EndSplineSet
Refer: 47 79 N 1 0 0 1 0 0 2
EndChar
StartChar: uni01A2
Encoding: 418 418 310
AltUni2: 0001a3.ffffffff.0
Width: 2043
Flags: W
LayerCount: 2
Fore
SplineSet
1788 -381 m 1,0,-1
 1395 -361 l 1,1,-1
 1456 1106 l 1,2,-1
 1278 962 l 1,3,-1
 1235.89647298 156.842440641 l 1,4,5
 1025 -10 1025 -10 748.393617021 -10 c 0,6,7
 540 -10 540 -10 369.5 87 c 128,-1,8
 199 184 199 184 99.5 352 c 128,-1,9
 0 520 0 520 0 720 c 128,-1,10
 0 920 0 920 100 1091 c 128,-1,11
 200 1262 200 1262 370 1361 c 128,-1,12
 540 1460 540 1460 748.395833333 1460 c 0,13,14
 1040 1460 1040 1460 1294 1290 c 1,15,-1
 1470 1446 l 1,16,-1
 1863 1425 l 1,17,-1
 1788 -381 l 1,0,-1
848.570584658 287.598925978 m 1,18,-1
 888.281443528 1062.73889947 l 1,19,20
 828.896701064 1075.61771417 828.896701064 1075.61771417 743.448350532 1076.30885709 c 128,-1,21
 658 1077 658 1077 583.5 1047.5 c 128,-1,22
 509 1018 509 1018 453.5 965.5 c 128,-1,23
 398 913 398 913 366 839.5 c 128,-1,24
 334 766 334 766 334 682 c 128,-1,25
 334 598 334 598 366 525.5 c 128,-1,26
 398 453 398 453 453.5 397.5 c 0,27,28
 575 276 575 276 747 276 c 0,29,30
 799.226654503 276 799.226654503 276 848.570584658 287.598925978 c 1,18,-1
EndSplineSet
EndChar
StartChar: uni01A7
Encoding: 423 423 301
AltUni2: 0001a8.ffffffff.0
Width: 1224
Flags: W
AnchorPoint: "bottom" 599 -61 basechar 0
AnchorPoint: "top" 519 1481 basechar 0
LayerCount: 2
Fore
SplineSet
931 406 m 1,0,1
 692.158203125 197.263671875 692.158203125 197.263671875 577 289 c 1,2,3
 515.952148438 350.047851562 515.952148438 350.047851562 689.5 473.5 c 0,4,5
 738 508 738 508 787.5 541.5 c 0,6,7
 917.4375 629.4375 917.4375 629.4375 950 662 c 1,8,9
 1015.67871094 714.54296875 1015.67871094 714.54296875 1068 789 c 0,10,11
 1124.66308594 869.63671875 1124.66308594 869.63671875 1136 974.5 c 0,12,13
 1142 1030 1142 1030 1128 1094 c 1,14,15
 1105 1175 1105 1175 1051.5 1240 c 128,-1,16
 998 1305 998 1305 922.5 1350.5 c 0,17,18
 764.033203125 1446 764.033203125 1446 558 1446 c 0,19,20
 378.513671875 1446 378.513671875 1446 254.5 1411.5 c 0,21,22
 118.364257812 1373.62792969 118.364257812 1373.62792969 8 1288 c 1,23,-1
 204 954 l 1,24,25
 292.1015625 1044.10351562 292.1015625 1044.10351562 420.5 1090.5 c 0,26,27
 548.125976562 1136.6171875 548.125976562 1136.6171875 641.5 1107.5 c 0,28,29
 688 1093 688 1093 718.5 1055.5 c 128,-1,30
 749 1018 749 1018 753 954 c 1,31,32
 753 858.756835938 753 858.756835938 670 778 c 0,33,34
 633 742 633 742 586 710 c 128,-1,35
 539 678 539 678 490.5 645 c 128,-1,36
 442 612 442 612 397 574.5 c 128,-1,37
 352 537 352 537 318.5 490 c 0,38,39
 244.4453125 386.102539062 244.4453125 386.102539062 257 248 c 0,40,41
 264 174 264 174 299 122.5 c 128,-1,42
 334 71 334 71 386 40 c 0,43,44
 517.6328125 -38.4736328125 517.6328125 -38.4736328125 715 1 c 0,45,46
 815.5 21.099609375 815.5 21.099609375 908.75 64.5498046875 c 128,-1,47
 1002 108 1002 108 1066 150 c 1,48,49
 1028 221 1028 221 1006.5 261 c 128,-1,50
 985 301 985 301 973 324 c 128,-1,51
 961 347 961 347 951.5 365 c 0,52,53
 931 403.841796875 931 403.841796875 931 406 c 1,0,1
EndSplineSet
EndChar
StartChar: uni01B1
Encoding: 433 433 309
Width: 1707
Flags: W
LayerCount: 2
Fore
SplineSet
706 1175 m 1,0,1
 419 1011.21465969 419 1011.21465969 419 742 c 0,2,3
 419 645 419 645 451.5 564 c 128,-1,4
 484 483 484 483 541.5 425.5 c 128,-1,5
 599 368 599 368 678 335.5 c 128,-1,6
 757 303 757 303 846 303 c 128,-1,7
 935 303 935 303 1009.5 335.5 c 128,-1,8
 1084 368 1084 368 1139.5 425.5 c 128,-1,9
 1195 483 1195 483 1227 564 c 128,-1,10
 1259 645 1259 645 1259 737.5 c 0,11,12
 1259 919.285714286 1259 919.285714286 1139 1050 c 0,13,14
 1060.55766793 1137.74904943 1060.55766793 1137.74904943 960 1183 c 1,15,-1
 948 1447 l 1,16,-1
 1593 1460 l 1,17,-1
 1596 1202 l 1,18,-1
 1431 1197 l 1,19,20
 1593 993.342857143 1593 993.342857143 1593 741 c 0,21,22
 1593 539.541666667 1593 539.541666667 1492 367 c 0,23,24
 1392.99798252 197.871553463 1392.99798252 197.871553463 1226.5 101 c 0,25,26
 1052.90625 -1.04083408559e-17 1052.90625 -1.04083408559e-17 850 0 c 0,27,28
 636.302083333 0 636.302083333 0 458.5 101 c 0,29,30
 287.314496849 198.241469246 287.314496849 198.241469246 187.5 367 c 0,31,32
 85.5095441954 539.43747167 85.5095441954 539.43747167 86.5 740.5 c 0,33,34
 87 842 87 842 117 931 c 128,-1,35
 147 1020 147 1020 209 1112 c 0,36,37
 244 1164 244 1164 249 1164 c 1,38,-1
 5 1154 l 1,39,-1
 -3 1427 l 1,40,-1
 696 1442 l 1,41,-1
 706 1175 l 1,0,1
EndSplineSet
EndChar
StartChar: uni01B5
Encoding: 437 437 364
AltUni2: 0001b6.ffffffff.0
Width: 1221
Flags: W
AnchorPoint: "bottomattside" 825 29 basechar 0
AnchorPoint: "bottomatt" 481 20 basechar 0
AnchorPoint: "bottom" 512 -31 basechar 0
AnchorPoint: "top" 553 1501 basechar 0
LayerCount: 2
Fore
SplineSet
917 726 m 5,0,-1
 913 519 l 5,1,-1
 105 517 l 5,2,-1
 107 737 l 5,3,-1
 917 726 l 5,0,-1
936 252 m 1,4,-1
 924 6 l 1,5,-1
 98 33 l 1,6,-1
 98 236 l 1,7,-1
 647 1098 l 1,8,-1
 0 1098 l 1,9,-1
 0 1436 l 1,10,-1
 1012 1421 l 1,11,-1
 1012 1153 l 1,12,-1
 508 258 l 1,13,-1
 936 252 l 1,4,-1
EndSplineSet
EndChar
StartChar: uni01B7
Encoding: 439 439 311
AltUni2: 000292.ffffffff.0
Width: 1187
Flags: W
AnchorPoint: "markbottomatt" 560 -369 basemark 0
AnchorPoint: "markbottomattside" 819 -212 basemark 0
AnchorPoint: "markbottom" 560 -451 basemark 0
AnchorPoint: "top" 553 1501 basechar 0
LayerCount: 2
Fore
SplineSet
251 -336 m 1024,0,-1
  Spiro
    251 -336 {
    0 0 z
  EndSpiro
647 1098 m 1049,1,-1
  Spiro
    647 1098 {
    0 0 z
  EndSpiro
180 0 m 1,2,3
 318 -131 318 -131 442.591756998 -131.272154309 c 0,4,5
 575 -131 575 -131 669.243430402 -47.2097327362 c 0,6,7
 768 41 768 41 768.020166973 169.474373845 c 0,8,9
 768 308 768 308 657.488861067 393.949817145 c 0,10,11
 606 434 606 434 544.862598428 451.997003531 c 0,12,13
 483 470 483 470 380 470 c 2,14,-1
 315 470 l 1,15,-1
 313 677 l 1,16,-1
 647 1098 l 1,17,-1
 0 1098 l 1,18,-1
 0 1436 l 1,19,-1
 1012 1421 l 1,20,-1
 1012 1153 l 1,21,-1
 580 660 l 1,22,23
 690 658 690 658 790.89251284 607.773333665 c 0,24,25
 892 557 892 557 951.636630572 481.138621261 c 0,26,27
 1066 335 1066 335 1065.79697498 159.33211944 c 0,28,29
 1066 -45 1066 -45 923.962790611 -199.254482331 c 0,30,31
 754 -384 754 -384 496.570206984 -384.191927873 c 0,32,33
 369 -384 369 -384 248.226691774 -332.095963936 c 0,34,35
 127 -280 127 -280 36 -178 c 1,36,-1
 180 0 l 1,2,3
EndSplineSet
EndChar
StartChar: uni01B8
Encoding: 440 440 313
AltUni2: 0001b9.ffffffff.0
Width: 1187
Flags: W
AnchorPoint: "top" 513 1501 basechar 0
LayerCount: 2
Fore
SplineSet
815 -336 m 1024,0,-1
419 1098 m 1049,1,-1
886 0 m 1,2,3
 886 0 886 0 1030 -178 c 1,4,5
 939 -280 939 -280 818 -332 c 128,-1,6
 697 -384 697 -384 569 -384 c 0,7,8
 312 -384 312 -384 142 -199 c 0,9,10
 0 -45 0 -45 0 159 c 0,11,12
 0 335 0 335 114 481 c 0,13,14
 174 557 174 557 275 608 c 0,15,16
 376 658 376 658 486 660 c 1,17,-1
 54 1153 l 1,18,-1
 54 1421 l 1,19,-1
 1066 1436 l 1,20,-1
 1066 1098 l 1,21,-1
 419 1098 l 1,22,-1
 753 677 l 1,23,-1
 751 470 l 1,24,-1
 686 470 l 2,25,26
 583 470 583 470 521 452 c 0,27,28
 460 434 460 434 409 394 c 0,29,30
 298 308 298 308 298 169 c 0,31,32
 298 41 298 41 397 -47 c 0,33,34
 491 -131 491 -131 623 -131 c 0,35,36
 748 -131 748 -131 886 0 c 1,2,3
EndSplineSet
EndChar
StartChar: uni01BB
Encoding: 443 443 314
Width: 1190
Flags: W
LayerCount: 2
Fore
SplineSet
195.551757812 684.610351562 m 5,0,-1
 1129.48828125 653.262695312 l 5,1,-1
 1126.34667969 479.530273438 l 5,2,-1
 194.65234375 521.831054688 l 5,3,-1
 195.551757812 684.610351562 l 5,0,-1
EndSplineSet
Refer: 18 50 N 1 0 0 1 0 0 2
EndChar
StartChar: uni01E4
Encoding: 484 484 369
AltUni2: 0001e5.ffffffff.0
Width: 1371
Flags: W
AnchorPoint: "top" 766 1446 basechar 0
AnchorPoint: "bottom" 758 -61 basechar 0
AnchorPoint: "bottomatt" 666 20 basechar 0
AnchorPoint: "bottomattside" 1071 23 basechar 0
LayerCount: 2
Fore
SplineSet
1331 447 m 5,0,-1
 1331 348 l 5,1,-1
 686 348 l 1,2,-1
 684 450 l 1,3,-1
 1331 447 l 5,0,-1
EndSplineSet
Refer: 39 71 N 1 0 0 1 0 0 2
EndChar
StartChar: uni01F6
Encoding: 502 502 305
AltUni2: 000195.ffffffff.0
Width: 2296
Flags: W
LayerCount: 2
Fore
SplineSet
1112 422 m 1,0,-1
 430 408 l 1,1,-1
 430 0 l 1,2,-1
 2 0 l 1,3,-1
 0 1399 l 1,4,-1
 428 1399 l 1,5,-1
 428 641 l 1,6,-1
 1102 659 l 1,7,-1
 1075 1417 l 1,8,-1
 1413 1430 l 1,9,-1
 1443.65712241 434 l 2,10,11
 1450.39799571 215 1450.39799571 215 1734 215 c 3,12,13
 1995 215 1995 215 1986 469 c 6,14,-1
 1972 859 l 29,15,-1
 2242 869 l 29,16,-1
 2238 453 l 6,17,18
 2234 -0 2234 -0 1736 0 c 3,19,20
 1136 0 1136 0 1112 422 c 1,0,-1
EndSplineSet
EndChar
StartChar: uni0220
Encoding: 544 544 368
AltUni2: 00019e.ffffffff.0
Width: 1365
Flags: W
AnchorPoint: "top" 663.399 1560.5 basechar 0
AnchorPoint: "bottom" 1079 -526 basechar 0
AnchorPoint: "bottomatt" 1092 -457 basechar 0
AnchorPoint: "bottomattside" 918.399 -441.6 basechar 0
LayerCount: 2
Fore
SplineSet
1.7001953125 0.2998046875 m 1,0,-1
 0 1430 l 1,1,-1
 337 1438.09960938 l 1,2,-1
 362.5 -0.1005859375 l 1,3,-1
 1.7001953125 0.2998046875 l 1,0,-1
33.572265625 974 m 1,4,5
 249 1383 249 1383 591.665039062 1422.79980469 c 0,6,7
 837 1451 837 1451 994.8203125 1325.89941406 c 0,8,9
 1195 1166 1195 1166 1227.22753906 965.5 c 0,10,11
 1245 852 1245 852 1252.5234375 746.200195312 c 0,12,13
 1260 625 1260 625 1260.42871094 -462 c 5,14,-1
 899.69921875 -462 l 5,15,16
 908 -83 908 -83 904.799804688 498 c 0,17,18
 903 783 903 783 858.899414062 898.299804688 c 0,19,20
 790 1081 790 1081 646.399414062 1087 c 0,21,22
 494 1093 494 1093 425.399414062 954.399414062 c 0,23,24
 394 891 394 891 376.099609375 760.599609375 c 0,25,26
 356 611 356 611 360.799804688 159.700195312 c 0,27,28
 362 40 362 40 362.5 -0.1005859375 c 1,29,-1
 1.7001953125 0.2998046875 l 1,30,31
 1.7001953125 0.2998046875 1.7001953125 0.2998046875 33.572265625 974 c 1,4,5
EndSplineSet
EndChar
StartChar: uni023D
Encoding: 573 573 348
AltUni2: 00019a.ffffffff.0
Width: 1125
Flags: W
AnchorPoint: "top" 320 1536 basechar 0
AnchorPoint: "bottom" 573 -10 basechar 0
AnchorPoint: "bottomatt" 553 20 basechar 0
AnchorPoint: "bottomattside" 874 53 basechar 0
LayerCount: 2
Fore
SplineSet
647 780 m 1,0,-1
 643 573 l 1,1,-1
 -2 573 l 1,2,-1
 0 793 l 1,3,-1
 647 780 l 1,0,-1
EndSplineSet
Refer: 44 76 S 1 0 0 1 102 0 2
EndChar
StartChar: uni0243
Encoding: 579 579 291
AltUni2: 000180.ffffffff.0
Width: 1316
Flags: W
LayerCount: 2
Fore
SplineSet
647 394 m 5,0,-1
 643 265 l 5,1,-1
 -2 265 l 1,2,-1
 0 407 l 1,3,-1
 647 394 l 5,0,-1
EndSplineSet
Refer: 34 66 S 1 0 0 1 86 -2 2
EndChar
StartChar: uni0246
Encoding: 582 582 371
AltUni2: 000247.ffffffff.0
Width: 1271
Flags: W
AnchorPoint: "top" 657 1457 basechar 0
AnchorPoint: "bottomattside" 903 20 basechar 0
AnchorPoint: "bottom" 594 -20 basechar 0
AnchorPoint: "bottomatt" 522 20 basechar 0
LayerCount: 2
Fore
SplineSet
860 1567 m 1,0,-1
 1030 1520 l 1,1,-1
 400.731445312 -98.1123046875 l 5,2,-1
 223.48828125 -50.9052734375 l 5,3,-1
 860 1567 l 1,0,-1
EndSplineSet
Refer: 37 69 N 1 0 0 1 0 0 2
EndChar
StartChar: uni0248
Encoding: 584 584 367
AltUni2: 00025f.ffffffff.0 000249.ffffffff.0
Width: 975
Flags: W
LayerCount: 2
Fore
SplineSet
975 896 m 5,0,-1
 965 688 l 5,1,-1
 306 712 l 1,2,-1
 314 933 l 1,3,-1
 975 896 l 5,0,-1
EndSplineSet
Refer: 42 74 N 1 0 0 1 0 0 2
EndChar
StartChar: uni025A
Encoding: 602 602 362
Width: 1502
Flags: W
AnchorPoint: "top" 444 915 basechar 0
AnchorPoint: "bottom" 457 -55 basechar 0
AnchorPoint: "bottomatt" 457 0 basechar 0
AnchorPoint: "bottomattside" 653 72 basechar 0
LayerCount: 2
Fore
SplineSet
95.9521484375 615.62109375 m 1,0,-1
 94.9521484375 820.62109375 l 1,1,2
 161 874 161 874 351.952148438 869.62109375 c 0,3,4
 620 864 620 864 754.952148438 750.62109375 c 0,5,6
 818.844440664 697.199811551 818.844440664 697.199811551 854.420464055 636.840241342 c 1,7,-1
 1126 732 l 1,8,-1
 1180 522 l 1,9,10
 1226 408 1226 408 1412 436 c 1,11,-1
 1429 259 l 1,12,13
 1100 194 1100 194 992 469 c 1,14,-1
 900.129471247 443.571550077 l 1,15,16
 907.042827433 264.603891211 907.042827433 264.603891211 781.952148438 131.62109375 c 0,17,18
 651 -7 651 -7 428.952148438 -9.37890625 c 0,19,20
 21 -14 21 -14 20 382 c 1,21,-1
 588.952148438 546.62109375 l 1,22,23
 530 743 530 743 95.9521484375 615.62109375 c 1,0,-1
328 275 m 1,24,25
 341 215 341 215 448.952148438 219.62109375 c 0,26,27
 584 225 584 225 590 361 c 1,28,-1
 328 275 l 1,24,25
EndSplineSet
EndChar
StartChar: circumflex
Encoding: 710 710 91
Width: 371
GlyphClass: 2
Flags: W
LayerCount: 2
Fore
SplineSet
55 1272 m 1,0,-1
 -2 1323 l 1,1,-1
 193 1534 l 1,2,-1
 373 1323 l 1,3,-1
 303 1270 l 1,4,-1
 184 1409 l 1,5,-1
 55 1272 l 1,0,-1
EndSplineSet
EndChar
StartChar: caron
Encoding: 711 711 92
Width: 369
GlyphClass: 2
Flags: W
LayerCount: 2
Fore
SplineSet
307 1532 m 1,0,-1
 369 1481 l 1,1,-1
 178 1268 l 1,2,-1
 -6 1475 l 1,3,-1
 63 1530 l 1,4,-1
 188 1393 l 1,5,-1
 307 1532 l 1,0,-1
EndSplineSet
EndChar
StartChar: breve
Encoding: 728 728 93
Width: 487
GlyphClass: 2
Flags: W
LayerCount: 2
Fore
SplineSet
485 1518 m 1,0,1
 465 1448 465 1448 426.5 1399 c 128,-1,2
 388 1350 388 1350 341 1324 c 128,-1,3
 294 1298 294 1298 243 1295 c 128,-1,4
 192 1292 192 1292 144.5 1313 c 128,-1,5
 97 1334 97 1334 58 1379 c 128,-1,6
 19 1424 19 1424 -2 1495 c 1,7,-1
 96 1532 l 1,8,9
 147 1407 147 1407 234.5 1409 c 128,-1,10
 322 1411 322 1411 383 1559 c 1,11,-1
 485 1518 l 1,0,1
EndSplineSet
EndChar
StartChar: dotaccent
Encoding: 729 729 145
Width: 267
Flags: W
LayerCount: 2
Fore
SplineSet
0.5 1411 m 0,0,1
 0.5 1434 0.5 1434 10 1457 c 128,-1,2
 19.5 1480 19.5 1480 36.5 1497.5 c 128,-1,3
 53.5 1515 53.5 1515 77.5 1526 c 128,-1,4
 101.5 1537 101.5 1537 132.5 1538 c 0,5,6
 165.5 1539 165.5 1539 191.5 1527.5 c 128,-1,7
 217.5 1516 217.5 1516 235 1497.5 c 128,-1,8
 252.5 1479 252.5 1479 260.5 1456 c 128,-1,9
 268.5 1433 268.5 1433 267.5 1411 c 0,10,11
 265.5 1386 265.5 1386 254 1365 c 128,-1,12
 242.5 1344 242.5 1344 224 1329 c 128,-1,13
 205.5 1314 205.5 1314 181.5 1306 c 128,-1,14
 157.5 1298 157.5 1298 132.5 1298 c 128,-1,15
 107.5 1298 107.5 1298 84.5 1306 c 128,-1,16
 61.5 1314 61.5 1314 42.5 1329 c 128,-1,17
 23.5 1344 23.5 1344 12 1365 c 128,-1,18
 0.5 1386 0.5 1386 0.5 1411 c 0,0,1
EndSplineSet
EndChar
StartChar: ogonek
Encoding: 731 731 146
Width: 257
Flags: W
LayerCount: 2
Fore
SplineSet
102 3 m 1,0,1
 70 -36 70 -36 68.615234375 -85.5859375 c 0,2,3
 67 -137 67 -137 83.115234375 -172.0859375 c 0,4,5
 100 -208 100 -208 130.615234375 -227.0859375 c 0,6,7
 161 -246 161 -246 190.115234375 -251.0859375 c 0,8,9
 234 -259 234 -259 257.115234375 -251.0859375 c 1,10,-1
 257.115234375 -363.0859375 l 2,11,12
 257 -366 257 -366 232.615234375 -367.0859375 c 0,13,14
 208 -368 208 -368 161.615234375 -356.5859375 c 0,15,16
 115 -345 115 -345 63.115234375 -305.0859375 c 1,17,18
 21 -266 21 -266 8.115234375 -212.0859375 c 0,19,20
 -4 -162 -4 -162 2.115234375 -105.0859375 c 0,21,22
 11 -26 11 -26 11 3 c 1,23,-1
 102 3 l 1,0,1
EndSplineSet
EndChar
StartChar: tilde
Encoding: 732 732 95
Width: 496
GlyphClass: 2
Flags: W
LayerCount: 2
Fore
SplineSet
0 1434 m 1,0,1
 7 1444 7 1444 24.5 1464.5 c 128,-1,2
 42 1485 42 1485 66 1504.5 c 128,-1,3
 90 1524 90 1524 119 1539 c 128,-1,4
 148 1554 148 1554 178 1554 c 0,5,6
 217 1554 217 1554 237.5 1537 c 128,-1,7
 258 1520 258 1520 272 1500 c 128,-1,8
 286 1480 286 1480 298 1463 c 128,-1,9
 310 1446 310 1446 332 1446 c 0,10,11
 347 1446 347 1446 361.5 1456 c 128,-1,12
 376 1466 376 1466 387 1479 c 0,13,14
 400 1494 400 1494 412 1513 c 1,15,-1
 496 1440 l 1,16,17
 487 1429 487 1429 469 1411 c 128,-1,18
 451 1393 451 1393 429 1376 c 128,-1,19
 407 1359 407 1359 384 1346.5 c 128,-1,20
 361 1334 361 1334 340 1335 c 0,21,22
 306 1335 306 1335 286 1348.5 c 128,-1,23
 266 1362 266 1362 251 1378.5 c 128,-1,24
 236 1395 236 1395 221 1409 c 128,-1,25
 206 1423 206 1423 184 1423 c 128,-1,26
 162 1423 162 1423 145 1410 c 128,-1,27
 128 1397 128 1397 116 1381 c 0,28,29
 102 1363 102 1363 90 1339 c 1,30,-1
 0 1434 l 1,0,1
EndSplineSet
EndChar
StartChar: hookabovecomb
Encoding: 777 777 289
Width: 0
Flags: W
AnchorPoint: "marktop" -218 1161 mark 0
AnchorPoint: "marktop" -216 1580 basemark 0
AnchorPoint: "top" -218 1161 mark 0
LayerCount: 2
Fore
SplineSet
-274.557617188 1165.57128906 m 0,0,-1
 -161.557617188 1165.57128906 l 1,1,2
 -176 1175 -176 1175 -181 1195 c 128,-1,3
 -186 1215 -186 1215 -181.5 1227 c 0,4,5
 -178 1237 -178 1237 -167.5 1242.75 c 0,6,7
 -155 1249 -155 1249 -135 1252.57128906 c 0,8,9
 -115 1257 -115 1257 -91.5 1262.07128906 c 0,10,11
 -68 1268 -68 1268 -48 1277.57128906 c 0,12,13
 -28 1288 -28 1288 -14 1305.07128906 c 0,14,15
 -0 1323 -0 1323 1 1351.57128906 c 0,16,17
 2 1394 2 1394 -20 1429.07128906 c 0,18,19
 -42 1465 -42 1465 -83 1489.57128906 c 0,20,21
 -124 1515 -124 1515 -181.5 1527.07128906 c 0,22,23
 -239 1540 -239 1540 -308 1534.57128906 c 1,24,-1
 -310 1409.57128906 l 1,25,26
 -299 1412 -299 1412 -271.5 1412.57128906 c 0,27,28
 -244 1414 -244 1414 -215 1410.57128906 c 0,29,30
 -186 1408 -186 1408 -163.5 1397.07128906 c 0,31,32
 -141 1387 -141 1387 -140 1364.57128906 c 0,33,34
 -139 1348 -139 1348 -151 1337.57128906 c 0,35,36
 -163 1328 -163 1328 -180.5 1320.07128906 c 0,37,38
 -198 1313 -198 1313 -219 1306.57128906 c 0,39,40
 -240 1301 -240 1301 -257.5 1292.07128906 c 0,41,42
 -284 1279 -284 1279 -292.64557872 1260 c 0,43,44
 -313 1209 -313 1209 -274.557617188 1165.57128906 c 0,0,-1
EndSplineSet
EndChar
StartChar: uni0394
Encoding: 916 916 156
AltUni2: 0003b4.ffffffff.0
Width: 1454
Flags: W
AnchorPoint: "top" 642 1577 basechar 0
AnchorPoint: "bottomattside" 1113 34 basechar 0
AnchorPoint: "bottom" 724 -41 basechar 0
AnchorPoint: "bottomatt" 717 27 basechar 0
LayerCount: 2
Fore
SplineSet
985 272 m 1,0,-1
 684 938 l 1,1,-1
 435 256 l 1,2,-1
 985 272 l 1,0,-1
1394 33 m 1,3,-1
 0 0 l 1,4,-1
 653 1546 l 1,5,-1
 1394 33 l 1,3,-1
EndSplineSet
EndChar
StartChar: Theta
Encoding: 920 920 157
AltUni2: 0003b8.ffffffff.0
Width: 1595
Flags: W
AnchorPoint: "top" 684 1481 basechar 0
AnchorPoint: "bottom" 778 -51 basechar 0
AnchorPoint: "bottomatt" 758 0 basechar 0
AnchorPoint: "bottomattside" 792 27 basechar 0
LayerCount: 2
Fore
SplineSet
1008 558 m 1,0,-1
 716 553 l 1,1,-1
 511 553 l 1,2,-1
 513 772 l 1,3,-1
 1019 757 l 1,4,-1
 1008 558 l 1,0,-1
EndSplineSet
Refer: 47 79 S 1 0 0 1 0 0 2
EndChar
StartChar: Lambda
Encoding: 923 923 158
AltUni2: 00028c.ffffffff.0 000245.ffffffff.0 0003bb.ffffffff.0
Width: 1581
Flags: W
AnchorPoint: "top" 669 1451 basechar 0
AnchorPoint: "bottomattside" 1147 34 basechar 0
AnchorPoint: "bottom" 765 -14 basechar 0
AnchorPoint: "bottomatt" 771 -7 basechar 0
LayerCount: 2
Fore
SplineSet
0 103 m 1,0,-1
 593 1461 l 1,1,-1
 913 1439 l 1,2,-1
 1481 116 l 1,3,-1
 1152 -7 l 1,4,-1
 754 945 l 1,5,-1
 352 6 l 1,6,-1
 0 103 l 1,0,-1
EndSplineSet
EndChar
StartChar: Xi
Encoding: 926 926 159
AltUni2: 0003be.ffffffff.0
Width: 1270
Flags: W
AnchorPoint: "top" 657 1457 basechar 0
AnchorPoint: "bottomattside" 903 20 basechar 0
AnchorPoint: "bottom" 594 -20 basechar 0
AnchorPoint: "bottomatt" 522 20 basechar 0
LayerCount: 2
Fore
SplineSet
1036 291 m 1025,0,-1
1161 1107 m 1,1,-1
 4.29888268156 1090 l 1,2,-1
 0 1432 l 1,3,-1
 1161 1449 l 1,4,-1
 1161 1107 l 1,1,-1
1036 291 m 1,5,-1
 1044 18 l 1,6,-1
 18 0 l 1,7,-1
 14.7624982549 257.561249943 l 1,8,-1
 1036 291 l 1,5,-1
375 732 m 1,9,-1
 813 738 l 1,10,-1
 813 546 l 1,11,-1
 376 540 l 1,12,-1
 375 732 l 1,9,-1
EndSplineSet
EndChar
StartChar: Sigma
Encoding: 931 931 160
AltUni2: 0003c2.ffffffff.0 0003c3.ffffffff.0 0001a9.ffffffff.0
Width: 1270
Flags: W
AnchorPoint: "top" 657 1457 basechar 0
AnchorPoint: "bottomattside" 903 20 basechar 0
AnchorPoint: "bottom" 594 -20 basechar 0
AnchorPoint: "bottomatt" 522 20 basechar 0
LayerCount: 2
Fore
SplineSet
18 0 m 1,0,-1
 14.7569832402 258 l 1,1,-1
 456 633 l 1,2,-1
 4.29888268156 1090 l 1,3,-1
 0 1432 l 1,4,-1
 1161 1432 l 1,5,-1
 1161 1090 l 1,6,-1
 369 1090 l 1,7,-1
 709.353603604 741 l 1,8,-1
 802 646 l 1,9,-1
 387 270 l 1,10,-1
 1036 291 l 1,11,-1
 1044 18 l 1,12,-1
 18 0 l 1,0,-1
EndSplineSet
EndChar
StartChar: Psi
Encoding: 936 936 161
AltUni2: 0003c8.ffffffff.0
Width: 1389
Flags: W
AnchorPoint: "bottomattside" 652 18 basechar 0
AnchorPoint: "bottomatt" 583 4 basechar 0
AnchorPoint: "bottom" 577 -71 basechar 0
AnchorPoint: "top" 610 1468 basechar 0
LayerCount: 2
Fore
SplineSet
402 647 m 1,0,-1
 416 1444 l 1,1,-1
 802 1437 l 1,2,-1
 786.094726562 639.259765625 l 1,3,4
 956 671 956 671 989 824 c 0,5,6
 1001.96851127 882.857089622 1001.96851127 882.857089622 1003 994 c 2,7,-1
 1007 1425 l 1,8,-1
 1284 1417 l 1,9,-1
 1284 851 l 1,10,11
 1288 625 1288 625 1167 493 c 0,12,13
 1059 375 1059 375 855 358 c 2,14,-1
 783.125976562 352.130859375 l 1,15,-1
 777 0 l 1,16,-1
 391 7 l 1,17,-1
 392 355 l 1,18,-1
 360 362 l 2,19,20
 223.04 391.96 223.04 391.96 124 491 c 0,21,22
 -3 618 -3 618 1 846 c 1,23,-1
 0 1444 l 1,24,-1
 251 1441 l 1,25,-1
 254 1023 l 2,26,27
 254.515457788 951.179548157 254.515457788 951.179548157 271 829 c 0,28,29
 294 660 294 660 402 647 c 1,0,-1
EndSplineSet
EndChar
StartChar: uni03A9
Encoding: 937 937 162
AltUni2: 0003ce.ffffffff.0 00038f.ffffffff.0 0003c9.ffffffff.0
Width: 1707
Flags: W
AnchorPoint: "top" 684 1481 basechar 0
AnchorPoint: "bottom" 778 -51 basechar 0
AnchorPoint: "bottomatt" 778 7 basechar 0
AnchorPoint: "bottomattside" 1174 34 basechar 0
LayerCount: 2
Fore
SplineSet
0 0 m 1,0,-1
 -3.2431640625 258 l 1,1,-1
 162 263 l 1,2,3
 127 307 127 307 101 350 c 0,4,5
 53 431 53 431 26.5 524 c 128,-1,6
 0 617 0 617 0 719 c 128,-1,7
 0 821 0 821 26.5 916 c 128,-1,8
 53 1011 53 1011 101 1093 c 128,-1,9
 149 1175 149 1175 216.5 1243 c 128,-1,10
 284 1311 284 1311 366.5 1359 c 128,-1,11
 449 1407 449 1407 544.5 1433.5 c 128,-1,12
 640 1460 640 1460 743 1460 c 0,13,14
 852 1460 852 1460 951 1433.5 c 128,-1,15
 1050 1407 1050 1407 1134.5 1359 c 128,-1,16
 1219 1311 1219 1311 1288 1243 c 128,-1,17
 1357 1175 1357 1175 1405.5 1093 c 128,-1,18
 1454 1011 1454 1011 1480.5 916 c 128,-1,19
 1507 821 1507 821 1506.5 719.5 c 128,-1,20
 1506 618 1506 618 1474 523 c 0,21,22
 1446 440 1446 440 1384 348.5 c 0,23,24
 1350 298 1350 298 1343.80078125 296.5 c 2,25,-1
 1588 306 l 1,26,-1
 1596 33 l 1,27,-1
 897 18 l 1,28,-1
 887 285 l 1,29,30
 1084 398 1084 398 1141.5 525.5 c 0,31,32
 1174 598 1174 598 1174 678 c 0,33,34
 1174 766 1174 766 1141.5 839.5 c 128,-1,35
 1109 913 1109 913 1051.5 965.5 c 128,-1,36
 994 1018 994 1018 915 1047.5 c 128,-1,37
 836 1077 836 1077 743 1077 c 0,38,39
 658 1077 658 1077 583.5 1047.5 c 128,-1,40
 509 1018 509 1018 453.5 965.5 c 128,-1,41
 398 913 398 913 366 839.5 c 128,-1,42
 334 766 334 766 334 678 c 0,43,44
 334 598 334 598 366 525.5 c 128,-1,45
 398 453 398 453 453.5 397.5 c 0,46,47
 513 338 513 338 583.5 300.5 c 0,48,49
 605 289 605 289 633 277 c 1,50,-1
 645 13 l 1,51,-1
 0 0 l 1,0,-1
EndSplineSet
EndChar
StartChar: upsilondieresistonos
Encoding: 944 944 163
Width: 1510
Flags: W
AnchorPoint: "bottomattside" 872 35 basechar 0
AnchorPoint: "bottomatt" 799 10 basechar 0
AnchorPoint: "bottom" 809 -51 basechar 0
AnchorPoint: "top" 766 1883 basechar 0
LayerCount: 2
Fore
SplineSet
932 700 m 1,0,-1
 971 8 l 1,1,-1
 614 -12 l 1,2,-1
 573 662 l 1,3,-1
 0 1235 l 1,4,-1
 258 1454 l 1,5,-1
 772 899 l 1,6,-1
 1188 1434 l 1,7,-1
 1407 1274 l 1,8,-1
 932 700 l 1,0,-1
EndSplineSet
Refer: 249 836 N 1 0 0 1 987 75 2
EndChar
StartChar: uni0401
Encoding: 1025 1025 96
Width: 1271
GlyphClass: 2
Flags: W
LayerCount: 2
Fore
SplineSet
369 1090 m 1,0,-1
 375 618 l 1,1,-1
 813 618 l 1,2,-1
 813 426 l 1,3,-1
 383 426 l 1,4,-1
 387 270 l 1,5,-1
 1036 291 l 1,6,-1
 1044 18 l 1,7,-1
 18 0 l 1,8,-1
 0 1432 l 1,9,-1
 1161 1432 l 1,10,-1
 1161 1090 l 1,11,-1
 369 1090 l 1,0,-1
EndSplineSet
Refer: 71 168 S 1 0 0 1 355 103 2
EndChar
StartChar: uni0404
Encoding: 1028 1028 188
AltUni2: 000454.ffffffff.0
Width: 1465
Flags: W
AnchorPoint: "bottomattside" 792 27 basechar 0
AnchorPoint: "bottomatt" 758 0 basechar 0
AnchorPoint: "bottom" 683 -68 basechar 0
AnchorPoint: "top" 684 1481 basechar 0
LayerCount: 2
Fore
SplineSet
1334 1071 m 1,0,-1
 1000 878 l 1,1,2
 894 1061 894 1061 692 1060 c 1,3,4
 356 1030 356 1030 346 738 c 1,5,-1
 843 738 l 1,6,-1
 840 508 l 1,7,-1
 339 508 l 1,8,9
 366 233 366 233 706 195 c 1,10,11
 1009 180 1009 180 1173 471 c 1,12,-1
 1365 406 l 1,13,14
 1302 215 1302 215 1143.5 95 c 128,-1,15
 985 -25 985 -25 673.5 -25 c 128,-1,16
 362 -25 362 -25 181 164.5 c 128,-1,17
 0 354 0 354 0 701.5 c 128,-1,18
 0 1049 0 1049 183.5 1236 c 128,-1,19
 367 1423 367 1423 707 1423 c 0,20,21
 1165 1423 1165 1423 1334 1071 c 1,0,-1
EndSplineSet
EndChar
StartChar: uni0407
Encoding: 1031 1031 189
Width: 585
Flags: W
LayerCount: 2
Fore
SplineSet
459 -8 m 1,0,-1
 66 12 l 1,1,-1
 125 1446 l 1,2,-1
 518 1425 l 1,3,-1
 459 -8 l 1,0,-1
EndSplineSet
Refer: 71 168 N 1 0 0 1 71 117 2
EndChar
StartChar: uni0411
Encoding: 1041 1041 97
AltUni2: 000431.ffffffff.0 000182.ffffffff.0 000183.ffffffff.0
Width: 1237
GlyphClass: 2
Flags: W
AnchorPoint: "top" 580 1543 basechar 0
AnchorPoint: "bottom" 553 -72 basechar 0
AnchorPoint: "bottomatt" 481 10 basechar 0
AnchorPoint: "bottomattside" 666 61 basechar 0
LayerCount: 2
Fore
SplineSet
402 573 m 1,0,-1
 394 206 l 1,1,2
 673.427734375 183.772460938 673.427734375 183.772460938 751.5 286.5 c 0,3,4
 780 324 780 324 785 383 c 128,-1,5
 790 442 790 442 767 479.5 c 128,-1,6
 744 517 744 517 705.5 538 c 128,-1,7
 667 559 667 559 619 567 c 128,-1,8
 571 575 571 575 527 576 c 128,-1,9
 483 577 483 577 448.5 575 c 128,-1,10
 414 573 414 573 402 573 c 1,0,-1
412 1140.33189655 m 1,11,-1
 412 883 l 1,12,13
 879 883 879 883 1018 725 c 0,14,15
 1104 627 1104 627 1114.5 497 c 0,16,17
 1118 453 1118 453 1117 399.5 c 128,-1,18
 1116 346 1116 346 1092 285.5 c 128,-1,19
 1068 225 1068 225 1025.5 175.5 c 128,-1,20
 983 126 983 126 926 91 c 128,-1,21
 869 56 869 56 803 41 c 0,22,23
 673 10 673 10 391 0 c 0,24,25
 206 -7 206 -7 20 0 c 5,26,-1
 0 1431 l 1,27,-1
 1088 1404 l 1,28,-1
 1077 1126 l 1,29,-1
 412 1140.33189655 l 1,11,-1
EndSplineSet
EndChar
StartChar: uni0413
Encoding: 1043 1043 98
AltUni2: 000393.ffffffff.0 0003b3.ffffffff.0 000433.ffffffff.0
Width: 1261
GlyphClass: 2
Flags: W
AnchorPoint: "top" 657 1457 basechar 0
AnchorPoint: "bottom" 195 -51 basechar 0
AnchorPoint: "bottomatt" 184 10 basechar 0
AnchorPoint: "bottomattside" 275 6 basechar 0
LayerCount: 2
Fore
SplineSet
1161 1090 m 1,0,-1
 369 1090 l 1,1,-1
 370 3 l 1,2,-1
 18 0 l 1,3,-1
 0 1432 l 1,4,-1
 1161 1432 l 1,5,-1
 1161 1090 l 1,0,-1
EndSplineSet
EndChar
StartChar: uni0414
Encoding: 1044 1044 99
AltUni2: 000434.ffffffff.0
Width: 1522
GlyphClass: 2
Flags: W
AnchorPoint: "top" 771 1563 basechar 0
AnchorPoint: "bottom" 655 -294 basechar 0
AnchorPoint: "bottomatt" 676 0 basechar 0
AnchorPoint: "bottomattside" 1072 -294 basechar 0
LayerCount: 2
Fore
SplineSet
1339 -336 m 1,0,-1
 1057 -328 l 1,1,-1
 1066 -14 l 1,2,-1
 342 5 l 1,3,-1
 334 -309 l 1,4,-1
 52 -302 l 1,5,-1
 0 272 l 1,6,-1
 154 268 l 1,7,8
 293 688 293 688 305 1127 c 2,9,-1
 313 1449 l 1,10,-1
 1264 1424 l 1,11,-1
 1232 232 l 1,12,-1
 1422 227 l 1,13,-1
 1339 -336 l 1,0,-1
575 1013 m 17,14,15
 560 693 560 693 463 268 c 1,16,-1
 823 252 l 1,17,-1
 856 1003 l 9,18,-1
 575 1013 l 17,14,15
EndSplineSet
EndChar
StartChar: uni0416
Encoding: 1046 1046 100
AltUni2: 000436.ffffffff.0
Width: 1802
GlyphClass: 2
Flags: W
AnchorPoint: "top" 860 1529 basechar 0
AnchorPoint: "bottom" 847 -68 basechar 0
AnchorPoint: "bottomatt" 860 7 basechar 0
AnchorPoint: "bottomattside" 1379 55 basechar 0
LayerCount: 2
Fore
SplineSet
1413 -6 m 1,0,-1
 1028 470 l 1,1,-1
 1026 -1 l 1,2,-1
 682 2 l 1,3,-1
 684 470 l 1,4,-1
 242 8 l 1,5,-1
 0 260 l 1,6,-1
 439 735 l 1,7,-1
 17 1213 l 1,8,-1
 299 1471 l 1,9,-1
 685 1001 l 1,10,-1
 685 1421 l 1,11,-1
 1026 1431 l 1,12,-1
 1027 1001 l 1,13,-1
 1405 1418 l 1,14,-1
 1603 1229 l 1,15,-1
 1220 785 l 1,16,-1
 1702 237 l 1,17,-1
 1413 -6 l 1,0,-1
EndSplineSet
EndChar
StartChar: uni0417
Encoding: 1047 1047 101
AltUni2: 000437.ffffffff.0 00025c.ffffffff.0 00a7ab.ffffffff.0
Width: 1265
GlyphClass: 2
Flags: W
AnchorPoint: "bottomattside" 758 68 basechar 0
AnchorPoint: "bottomatt" 573 -7 basechar 0
AnchorPoint: "bottom" 580 -68 basechar 0
AnchorPoint: "top" 553 1516 basechar 0
LayerCount: 2
Fore
SplineSet
159 134 m 1,0,-1
 276 336 l 1,1,2
 466.259541985 213.690294438 466.259541985 213.690294438 602.5 242 c 0,3,4
 676.743509048 257.427222659 676.743509048 257.427222659 703 299 c 0,5,6
 731.483985765 344.099644128 731.483985765 344.099644128 685.5 396.5 c 0,7,8
 621 470 621 470 397 470 c 2,9,-1
 329 470 l 1,10,-1
 327 686 l 1,11,12
 572.666666667 686 572.666666667 686 686 766 c 0,13,14
 737 802 737 802 747.5 848.5 c 128,-1,15
 758 895 758 895 727.5 940.5 c 128,-1,16
 697 986 697 986 643 997.5 c 128,-1,17
 589 1009 589 1009 519.5 994.5 c 0,18,19
 376.224956063 964.608084359 376.224956063 964.608084359 216 846 c 1,20,-1
 0 1186 l 1,21,22
 201.320441989 1356.3480663 201.320441989 1356.3480663 440.5 1408.5 c 0,23,24
 507 1423 507 1423 566 1423 c 128,-1,25
 625 1423 625 1423 684.5 1417.5 c 128,-1,26
 744 1412 744 1412 805 1395.5 c 128,-1,27
 866 1379 866 1379 925 1351 c 128,-1,28
 984 1323 984 1323 1032.5 1278.5 c 0,29,30
 1137.6834572 1181.99146711 1137.6834572 1181.99146711 1158 1025 c 0,31,32
 1180.90712074 831.925696594 1180.90712074 831.925696594 991 680 c 0,33,34
 906 615 906 615 794 573 c 1,35,36
 996.219735124 499.217123671 996.219735124 499.217123671 1011.5 335.5 c 0,37,38
 1015 298 1015 298 1000.5 240.5 c 128,-1,39
 986 183 986 183 936.5 129.5 c 128,-1,40
 887 76 887 76 816 41 c 128,-1,41
 745 6 745 6 660 -7.5 c 128,-1,42
 575 -21 575 -21 486.5 -11 c 0,43,44
 293.984648449 10.7531470679 293.984648449 10.7531470679 159 134 c 1,0,-1
EndSplineSet
EndChar
StartChar: uni0418
Encoding: 1048 1048 102
AltUni2: 000438.ffffffff.0
Width: 1345
GlyphClass: 2
Flags: W
AnchorPoint: "bottom" 666 -41 basechar 0
AnchorPoint: "bottomatt" 614 0 basechar 0
AnchorPoint: "bottomattside" 908 27 basechar 0
AnchorPoint: "top" 701 1434 basechar 0
LayerCount: 2
Fore
SplineSet
365 566 m 1,0,-1
 969 1416 l 1,1,-1
 1239 1395 l 1,2,-1
 1217 2 l 1,3,-1
 887 15 l 1,4,-1
 930 912 l 1,5,-1
 291 0 l 1,6,-1
 0 0 l 1,7,-1
 0 1434 l 1,8,-1
 385 1434 l 1,9,-1
 365 566 l 1,0,-1
EndSplineSet
EndChar
StartChar: uni041B
Encoding: 1051 1051 104
AltUni2: 00043b.ffffffff.0
Width: 1556
GlyphClass: 2
Flags: W
AnchorPoint: "bottomattside" 1147 41 basechar 0
AnchorPoint: "bottomatt" 853 0 basechar 0
AnchorPoint: "bottom" 847 -68 basechar 0
AnchorPoint: "top" 860 1529 basechar 0
LayerCount: 2
Fore
SplineSet
352 1412 m 1,0,-1
 664 1412 l 1,1,-1
 1075 1417 l 1,2,-1
 1413 1430 l 1,3,-1
 1456 33 l 1,4,-1
 1124 18 l 1,5,-1
 1075 1179 l 1,6,-1
 661 1159 l 1,7,8
 669 57 669 57 22 0 c 1,9,-1
 0 304 l 1,10,11
 351 361 351 361 352 1412 c 1,0,-1
EndSplineSet
EndChar
StartChar: uni041F
Encoding: 1055 1055 105
AltUni2: 0003a0.ffffffff.0 0003c0.ffffffff.0 00043f.ffffffff.0
Width: 1556
GlyphClass: 2
Flags: W
AnchorPoint: "top" 717 1461 basechar 0
AnchorPoint: "bottomattside" 1140 34 basechar 0
AnchorPoint: "bottom" 765 -14 basechar 0
AnchorPoint: "bottomatt" 771 0 basechar 0
LayerCount: 2
Fore
SplineSet
1413 1430 m 17,0,-1
 1456 33 l 1,1,-1
 1124 18 l 1,2,-1
 1075 1179 l 1,3,-1
 423 1172 l 1,4,-1
 430 0 l 1,5,-1
 2 0 l 1,6,-1
 0 1399 l 9,7,-1
 1413 1430 l 17,0,-1
EndSplineSet
EndChar
StartChar: uni0423
Encoding: 1059 1059 106
AltUni2: 000443.ffffffff.0
Width: 1404
GlyphClass: 2
Flags: W
AnchorPoint: "bottomattside" 758 109 basechar 0
AnchorPoint: "bottomatt" 492 -14 basechar 0
AnchorPoint: "bottom" 532 -82 basechar 0
AnchorPoint: "top" 651 1451 basechar 0
LayerCount: 2
Fore
SplineSet
970 327 m 2,0,1
 943.2045926 238.751652275 943.2045926 238.751652275 872 127 c 0,2,3
 830 61 830 61 750 19.5 c 128,-1,4
 670 -22 670 -22 521 -24 c 0,5,6
 297.000089969 -27.0067102018 297.000089969 -27.0067102018 61 121 c 1,7,-1
 174 368 l 1,8,9
 312 277 312 277 419 283 c 0,10,11
 571 292 571 292 601 397 c 1,12,-1
 12 1427 l 5,13,-1
 412 1427 l 1,14,-1
 704.67959116 801.507495815 l 1,15,-1
 865 1427 l 1,16,-1
 1304 1427 l 1,17,-1
 970 327 l 2,0,1
EndSplineSet
EndChar
StartChar: uni0424
Encoding: 1060 1060 107
AltUni2: 0003a6.ffffffff.0 0003c6.ffffffff.0 000444.ffffffff.0
Width: 1595
GlyphClass: 2
Flags: W
AnchorPoint: "top" 757 1464 basechar 0
AnchorPoint: "bottom" 724 -75 basechar 0
AnchorPoint: "bottomatt" 730 0 basechar 0
AnchorPoint: "bottomattside" 799 14 basechar 0
LayerCount: 2
Fore
SplineSet
935 1317 m 5,0,1
 1495 1235 1495 1235 1482 717 c 4,2,3
 1469 189 1469 189 905 144 c 5,4,-1
 902 -4 l 5,5,-1
 553 -6 l 5,6,-1
 559 157 l 5,7,8
 0 227 0 227 13.5 750 c 132,-1,9
 27 1273 27 1273 589 1326 c 5,10,-1
 592 1435 l 5,11,-1
 938 1436 l 5,12,-1
 935 1317 l 5,0,1
911 394 m 5,13,14
 1040 421 1040 421 1112.5 496.5 c 132,-1,15
 1185 572 1185 572 1188 678 c 132,-1,16
 1191 784 1191 784 1120.5 868.5 c 132,-1,17
 1050 953 1050 953 926 989 c 5,18,-1
 911 394 l 5,13,14
564 399 m 5,19,-1
 579 990 l 5,20,21
 455 965 455 965 377 883.5 c 132,-1,22
 299 802 299 802 296.5 699 c 132,-1,23
 294 596 294 596 367 515 c 132,-1,24
 440 434 440 434 564 399 c 5,19,-1
EndSplineSet
EndChar
StartChar: uni0426
Encoding: 1062 1062 108
AltUni2: 000446.ffffffff.0
Width: 1435
GlyphClass: 2
Flags: W
AnchorPoint: "top" 587 1488 basechar 0
AnchorPoint: "bottom" 587 -171 basechar 0
AnchorPoint: "bottomatt" 594 0 basechar 0
AnchorPoint: "bottomattside" 1010 -307 basechar 0
LayerCount: 2
Fore
SplineSet
1292 -322 m 1,0,-1
 990 -320 l 1,1,-1
 992 -10 l 1,2,-1
 0 -5 l 1,3,-1
 8 1420 l 1,4,-1
 383 1417 l 1,5,-1
 376 244 l 1,6,-1
 789 235 l 1,7,-1
 776 1415 l 1,8,-1
 1151 1413 l 1,9,-1
 1164 227 l 1,10,-1
 1335 226 l 1,11,12
 1294 32 1294 32 1292 -322 c 1,0,-1
EndSplineSet
EndChar
StartChar: uni0427
Encoding: 1063 1063 109
AltUni2: 000447.ffffffff.0
Width: 1274
GlyphClass: 2
Flags: W
AnchorPoint: "top" 608 1488 basechar 0
AnchorPoint: "bottom" 949 -68 basechar 0
AnchorPoint: "bottomatt" 956 0 basechar 0
AnchorPoint: "bottomattside" 1038 14 basechar 0
LayerCount: 2
Fore
SplineSet
813 1431 m 1,0,-1
 1199 1424 l 1,1,-1
 1149 -10 l 1,2,-1
 763 -3 l 1,3,-1
 781.003315356 513.335084401 l 1,4,-1
 433 525 l 2,5,6
 242.63987656 531.380786261 242.63987656 531.380786261 121 660 c 0,7,8
 -5 793 -5 793 4 1018 c 2,9,-1
 24 1429 l 1,10,-1
 409 1422 l 1,11,-1
 396 1138 l 2,12,13
 390.352626612 1014.62661214 390.352626612 1014.62661214 409 942 c 4,14,15
 440.173363943 818.280711851 440.173363943 818.280711851 791.160589974 804.645720445 c 1,16,-1
 813 1431 l 1,0,-1
EndSplineSet
EndChar
StartChar: uni0428
Encoding: 1064 1064 110
AltUni2: 000448.ffffffff.0
Width: 1577
GlyphClass: 2
Flags: W
AnchorPoint: "top" 771 1488 basechar 0
AnchorPoint: "bottom" 710 -82 basechar 0
AnchorPoint: "bottomatt" 724 -14 basechar 0
AnchorPoint: "bottomattside" 1338 -7 basechar 0
LayerCount: 2
Fore
SplineSet
0 -8 m 1,0,-1
 26 1420 l 1,1,-1
 348 1413 l 1,2,-1
 327 252 l 1,3,-1
 567 250 l 1,4,-1
 599 1406 l 1,5,-1
 899 1397 l 1,6,-1
 871 244 l 1,7,-1
 1094 239 l 1,8,-1
 1113 1404 l 1,9,-1
 1477 1397 l 1,10,-1
 1445 -33 l 1,11,-1
 0 -8 l 1,0,-1
EndSplineSet
EndChar
StartChar: uni0429
Encoding: 1065 1065 111
AltUni2: 000449.ffffffff.0
Width: 1862
GlyphClass: 2
Flags: W
AnchorPoint: "bottomattside" 1461 -266 basechar 0
AnchorPoint: "bottomatt" 724 -14 basechar 0
AnchorPoint: "bottom" 710 -82 basechar 0
AnchorPoint: "top" 771 1488 basechar 0
LayerCount: 2
Fore
SplineSet
0 -10 m 1,0,-1
 17 1418 l 1,1,-1
 339 1413 l 1,2,-1
 325 252 l 1,3,-1
 565 251 l 1,4,-1
 590 1407 l 1,5,-1
 890 1400 l 1,6,-1
 869 246 l 1,7,-1
 1092 244 l 1,8,-1
 1104 1408 l 1,9,-1
 1468 1403 l 1,10,-1
 1451 239 l 1,11,-1
 1762 237 l 1,12,13
 1712 40 1712 40 1702 -277 c 1,14,-1
 1445 -277 l 1,15,-1
 1445 -27 l 1,16,-1
 0 -10 l 1,0,-1
EndSplineSet
EndChar
StartChar: uni042A
Encoding: 1066 1066 112
AltUni2: 00044a.ffffffff.0
Width: 1506
GlyphClass: 2
Flags: W
AnchorPoint: "top" 501 1536 basechar 0
AnchorPoint: "bottom" 822 -72 basechar 0
AnchorPoint: "bottomatt" 750 10 basechar 0
AnchorPoint: "bottomattside" 965 27 basechar 0
LayerCount: 2
Fore
SplineSet
671 573 m 1,0,-1
 663 206 l 1,1,2
 942.427734375 183.772460938 942.427734375 183.772460938 1020.5 286.5 c 0,3,4
 1049 324 1049 324 1054 383 c 128,-1,5
 1059 442 1059 442 1036 479.5 c 128,-1,6
 1013 517 1013 517 974.5 538 c 128,-1,7
 936 559 936 559 888 567 c 128,-1,8
 840 575 840 575 796 576 c 128,-1,9
 752 577 752 577 717.5 575 c 128,-1,10
 683 573 683 573 671 573 c 1,0,-1
682 1431 m 1,11,-1
 681 883 l 1,12,13
 1148 883 1148 883 1287 725 c 0,14,15
 1373 627 1373 627 1383.5 497 c 0,16,17
 1387 453 1387 453 1386 399.5 c 128,-1,18
 1385 346 1385 346 1361 285.5 c 128,-1,19
 1337 225 1337 225 1294.5 175.5 c 128,-1,20
 1252 126 1252 126 1195 91 c 128,-1,21
 1138 56 1138 56 1072 41 c 0,22,23
 942 10 942 10 660 0 c 0,24,25
 469 -7 469 -7 269 0 c 1,26,-1
 301.306769912 1164.74407313 l 1,27,-1
 8 1157 l 1,28,-1
 0 1410 l 1,29,-1
 682 1431 l 1,11,-1
EndSplineSet
EndChar
StartChar: uni042B
Encoding: 1067 1067 113
AltUni2: 00044b.ffffffff.0
Width: 1705
GlyphClass: 2
Flags: W
AnchorPoint: "top" 232 1536 basechar 0
AnchorPoint: "bottom" 553 -72 basechar 0
AnchorPoint: "bottomatt" 481 10 basechar 0
AnchorPoint: "bottomattside" 696 27 basechar 0
LayerCount: 2
Fore
SplineSet
1600 -6 m 1,0,-1
 1207 0 l 1,1,-1
 1212 1434 l 1,2,-1
 1605 1428 l 1,3,-1
 1600 -6 l 1,0,-1
EndSplineSet
Refer: 114 1068 N 1 0 0 1 0 0 2
EndChar
StartChar: uni042C
Encoding: 1068 1068 114
AltUni2: 00044c.ffffffff.0
Width: 1237
GlyphClass: 2
Flags: W
AnchorPoint: "bottomattside" 696 27 basechar 0
AnchorPoint: "bottomatt" 481 10 basechar 0
AnchorPoint: "bottom" 553 -72 basechar 0
AnchorPoint: "top" 232 1536 basechar 0
LayerCount: 2
Fore
SplineSet
402 573 m 1,0,-1
 394 206 l 1,1,2
 673.427734375 183.772460938 673.427734375 183.772460938 751.5 286.5 c 0,3,4
 780 324 780 324 785 383 c 128,-1,5
 790 442 790 442 767 479.5 c 128,-1,6
 744 517 744 517 705.5 538 c 128,-1,7
 667 559 667 559 619 567 c 128,-1,8
 571 575 571 575 527 576 c 128,-1,9
 483 577 483 577 448.5 575 c 128,-1,10
 414 573 414 573 402 573 c 1,0,-1
0 0 m 1,11,-1
 38 1448 l 1,12,-1
 413 1431 l 1,13,-1
 412 883 l 1,14,15
 879 883 879 883 1018 725 c 24,16,17
 1104 627 1104 627 1114.5 497 c 0,18,19
 1118 453 1118 453 1117 399.5 c 128,-1,20
 1116 346 1116 346 1092 285.5 c 128,-1,21
 1068 225 1068 225 1025.5 175.5 c 128,-1,22
 983 126 983 126 926 91 c 128,-1,23
 869 56 869 56 803 41 c 0,24,25
 673 10 673 10 391 0 c 0,26,27
 200 -7 200 -7 0 0 c 1,11,-1
EndSplineSet
EndChar
StartChar: uni042D
Encoding: 1069 1069 115
AltUni2: 00044d.ffffffff.0
Width: 1465
GlyphClass: 2
Flags: W
AnchorPoint: "top" 684 1481 basechar 0
AnchorPoint: "bottom" 683 -68 basechar 0
AnchorPoint: "bottomatt" 758 0 basechar 0
AnchorPoint: "bottomattside" 792 27 basechar 0
LayerCount: 2
Fore
SplineSet
31 1071 m 5,0,1
 200 1423 200 1423 658 1423 c 0,2,3
 998 1423 998 1423 1181.5 1236 c 128,-1,4
 1365 1049 1365 1049 1365 701.5 c 128,-1,5
 1365 354 1365 354 1184 164.5 c 128,-1,6
 1003 -25 1003 -25 691.5 -25 c 128,-1,7
 380 -25 380 -25 221.5 95 c 128,-1,8
 63 215 63 215 0 406 c 1,9,-1
 192 471 l 1,10,11
 356 180 356 180 659 195 c 1,12,13
 999 233 999 233 1026 508 c 1,14,-1
 525 508 l 1,15,-1
 522 738 l 1,16,-1
 1019 738 l 1,17,18
 1009 1030 1009 1030 673 1060 c 1,19,20
 471 1061 471 1061 365 878 c 1,21,-1
 31 1071 l 5,0,1
EndSplineSet
EndChar
StartChar: uni042F
Encoding: 1071 1071 117
AltUni2: 00044f.ffffffff.0
Width: 1222
GlyphClass: 2
Flags: W
AnchorPoint: "top" 600 1539 basechar 0
AnchorPoint: "bottom" 584 -20 basechar 0
AnchorPoint: "bottomatt" 573 0 basechar 0
AnchorPoint: "bottomattside" 812 20 basechar 0
LayerCount: 2
Fore
SplineSet
575 600 m 1,0,-1
 242 0 l 1,1,-1
 4 106 l 1,2,-1
 300 637 l 1,3,4
 300 637 300 637 575 600 c 1,0,-1
717 770 m 1,5,-1
 725 1137 l 1,6,7
 445.572653236 1159.22717531 445.572653236 1159.22717531 367.5 1056.5 c 0,8,9
 339 1019 339 1019 334 960 c 128,-1,10
 329 901 329 901 352 863.5 c 128,-1,11
 375 826 375 826 413.5 805 c 128,-1,12
 452 784 452 784 500 776 c 128,-1,13
 548 768 548 768 592 767 c 128,-1,14
 636 766 636 766 670.5 768 c 128,-1,15
 705 770 705 770 717 770 c 1,5,-1
1.5 953 m 0,16,17
 0 994 0 994 0 1049 c 128,-1,18
 0 1104 0 1104 24 1164.5 c 128,-1,19
 48 1225 48 1225 90.5 1274.5 c 128,-1,20
 133 1324 133 1324 190 1359 c 128,-1,21
 247 1394 247 1394 313 1409 c 128,-1,22
 379 1424 379 1424 438 1432.5 c 128,-1,23
 497 1441 497 1441 548.5 1445 c 0,24,25
 612.875 1450 612.875 1450 725 1450 c 1,26,-1
 1116 1430 l 1,27,-1
 1077 0 l 1,28,-1
 704 20 l 1,29,-1
 704 567 l 1,30,31
 240.991963878 567 240.991963878 567 98 725 c 24,32,33
 6 827 6 827 1.5 953 c 0,16,17
EndSplineSet
EndChar
StartChar: uni0490
Encoding: 1168 1168 200
AltUni2: 000491.ffffffff.0
Width: 1261
Flags: W
AnchorPoint: "bottomattside" 275 6 basechar 0
AnchorPoint: "bottomatt" 184 10 basechar 0
AnchorPoint: "bottom" 195 -51 basechar 0
AnchorPoint: "top" 635 1720 basechar 0
LayerCount: 2
Fore
SplineSet
882.862876254 1432 m 1,0,-1
 882 1690 l 1,1,-1
 1166 1704 l 1,2,-1
 1161 1090 l 1,3,-1
 369 1090 l 1,4,-1
 370 3 l 1,5,-1
 18 0 l 1,6,-1
 0 1432 l 1,7,-1
 882.862876254 1432 l 1,0,-1
EndSplineSet
EndChar
StartChar: uni04E0
Encoding: 1248 1248 312
AltUni2: 0004e1.ffffffff.0
Width: 1187
Flags: W
AnchorPoint: "top" 553 1501 basechar 0
LayerCount: 2
Fore
SplineSet
647 1098 m 1049,0,-1
580 660 m 1,1,2
 723 627 723 627 810 572 c 0,3,4
 920 503 920 503 952.5 406.5 c 0,5,6
 976 337 976 337 962 243 c 0,7,8
 952 177 952 177 896.5 118 c 0,9,10
 849 67 849 67 781 33 c 0,11,12
 644 -36 644 -36 460.08203125 -16.390625 c 0,13,14
 280 3 280 3 152 122.5 c 1,15,-1
 264 315.5 l 1,16,17
 447 198 447 198 576.5 226 c 0,18,19
 647 241 647 241 672.5 280.5 c 0,20,21
 686 301 686 301 684 330.5 c 0,22,23
 681 371 681 371 656 399.5 c 0,24,25
 633 425 633 425 604 437 c 0,26,27
 579 447 579 447 534.5 458 c 0,28,29
 482 470 482 470 380 470 c 2,30,-1
 315 470 l 1,31,-1
 313 677 l 1,32,-1
 647 1098 l 1,33,-1
 0 1098 l 1,34,-1
 0 1436 l 1,35,-1
 1012 1421 l 1,36,-1
 1012 1153 l 1,37,-1
 580 660 l 1,1,2
EndSplineSet
EndChar
StartChar: uni0E01
Encoding: 3585 3585 379
Width: 1396
Flags: W
LayerCount: 2
Fore
SplineSet
152 611 m 5,0,-1
 307 747 l 1,1,-1
 2 846 l 1,2,-1
 3 1196 l 1,3,4
 3 1196 3 1196 677 903 c 1,5,-1
 653 687 l 1,6,-1
 504 549 l 5,7,-1
 494 0 l 5,8,-1
 146 7 l 13,9,-1
 152 611 l 5,0,-1
3 1196 m 1,10,11
 272 1424 272 1424 739 1416 c 0,12,13
 1326.93889817 1406.00103915 1326.93889817 1406.00103915 1305 409 c 2,14,15
 1305 409 1305 409 1296 0 c 1,16,17
 1296 0 1296 0 934 3 c 1,18,19
 939 411 939 411 939 411 c 2,20,21
 947.039216903 1067.00009928 947.039216903 1067.00009928 552 1066 c 0,22,23
 209 1065 209 1065 2 846 c 1,24,25
 2 1021 2 1021 3 1196 c 1,10,11
EndSplineSet
EndChar
StartChar: uni0E02
Encoding: 3586 3586 383
Width: 1528
Flags: W
LayerCount: 2
Fore
SplineSet
1100 1397 m 1,0,1
 1425 1397 1425 1397 1425 1397 c 1,2,3
 1425 789 1425 789 1417 680 c 0,4,5
 1407 537 1407 537 1389.75409836 438.024590164 c 0,6,7
 1373 339 1373 339 1320.5 258.5 c 128,-1,8
 1268 178 1268 178 1186.5 118 c 0,9,10
 1013 -10 1013 -10 770 -10 c 0,11,12
 419 -10 419 -10 216 222 c 0,13,14
 69 390 69 390 78 575 c 4,15,16
 92 870 92 870 320 1003 c 4,17,18
 400 1049 400 1049 398 1091 c 260,19,20
 395.996104996 1149.11295512 395.996104996 1149.11295512 203 1132 c 6,21,22
 198 1133 198 1133 0 1114 c 261,23,24
 0 1114 0 1114 -2 1392 c 5,25,26
 435 1455 435 1455 626 1393 c 4,27,28
 709 1366 709 1366 744 1273 c 4,29,30
 843 1009 843 1009 612 846 c 4,31,32
 408 703 408 703 416 539 c 4,33,34
 421 425 421 425 482 357 c 0,35,36
 549 282 549 282 622.5 250.5 c 0,37,38
 679 226 679 226 788 231 c 0,39,40
 889 236 889 236 952 276 c 128,-1,41
 1015 316 1015 316 1049.5 387.5 c 128,-1,42
 1084 459 1084 459 1096 560.5 c 128,-1,43
 1108 662 1108 662 1109 790 c 128,-1,44
 1110 918 1110 918 1105 1070.5 c 128,-1,45
 1100 1223 1100 1223 1100 1397 c 1,0,1
EndSplineSet
EndChar
StartChar: uni0E03
Encoding: 3587 3587 384
Width: 1528
Flags: W
LayerCount: 2
Fore
SplineSet
12 1420 m 5,0,-1
 190 1408 l 5,1,2
 190 1408 190 1408 314 1321 c 5,3,4
 314 1321 314 1321 536 1388 c 5,5,-1
 609 1174 l 5,6,-1
 262 1096 l 5,7,-1
 258 1016 l 5,8,-1
 -1 1025 l 5,9,-1
 12 1420 l 5,0,-1
1425 1397 m 1,10,11
 1425 789 1425 789 1416 663 c 128,-1,12
 1407 537 1407 537 1390 438 c 0,13,14
 1357 243 1357 243 1184.77374619 116.594168972 c 0,15,16
 1013 -10 1013 -10 770 -10 c 0,17,18
 418 -10 418 -10 216 222 c 0,19,20
 65 396 65 396 62 568 c 0,21,22
 58 886 58 886 320 1003 c 0,23,24
 456 1064 456 1064 451 1362 c 257,25,26
 451 1362 451 1362 536 1388 c 1,27,28
 536 1388 536 1388 763 1388 c 1,29,30
 763 972 763 972 612 846 c 0,31,32
 396 664 396 664 393 540 c 0,33,34
 391 437 391 437 476.5 362 c 0,35,36
 635 223 635 223 788 231 c 0,37,38
 979 240 979 240 1049.5 387.5 c 0,39,40
 1107 506 1107 506 1109 790 c 0,41,42
 1110 918 1110 918 1105 1070.5 c 128,-1,43
 1100 1223 1100 1223 1100 1397 c 1,44,45
 1100 1397 1100 1397 1425 1397 c 1,10,11
EndSplineSet
EndChar
StartChar: uni0E04
Encoding: 3588 3588 385
Width: 1528
Flags: W
LayerCount: 2
Fore
SplineSet
755 657 m 1,0,-1
 756 412 l 5,1,2
 367 428 367 428 363 263 c 1,3,-1
 173 259 l 1,4,5
 178 682 178 682 755 657 c 1,0,-1
0 27 m 1,6,7
 0 635 0 635 8 744 c 0,8,9
 18 887 18 887 35.24609375 985.975585938 c 0,10,11
 52 1085 52 1085 104.5 1165.5 c 128,-1,12
 157 1246 157 1246 238.5 1306 c 0,13,14
 412 1434 412 1434 655 1434 c 0,15,16
 1061 1434 1061 1434 1264 1202.5 c 0,17,18
 1358 1095 1358 1095 1386 964.5 c 0,19,20
 1411 848 1411 848 1416.42382812 651.01171875 c 0,21,22
 1425 348 1425 348 1425 -10 c 1,23,-1
 1024 -10 l 1,24,25
 1024 217 1024 217 1026.5 395 c 128,-1,26
 1029 573 1029 573 1024 708.5 c 128,-1,27
 1019 844 1019 844 1002 938 c 128,-1,28
 985 1032 985 1032 946.5 1090.5 c 128,-1,29
 908 1149 908 1149 843.5 1173.5 c 128,-1,30
 779 1198 779 1198 678 1193 c 128,-1,31
 577 1188 577 1188 514 1148 c 128,-1,32
 451 1108 451 1108 416.5 1036.5 c 128,-1,33
 382 965 382 965 370 863.5 c 128,-1,34
 358 762 358 762 357 634 c 128,-1,35
 356 506 356 506 361 353.5 c 128,-1,36
 366 201 366 201 366 27 c 1,37,-1
 0 27 l 1,6,7
EndSplineSet
EndChar
StartChar: uni0E05
Encoding: 3589 3589 386
Width: 1528
Flags: W
LayerCount: 2
Fore
SplineSet
835 853 m 5,0,1
 835 853 835 853 628 852 c 5,2,3
 621 1382 621 1382 1006 1396 c 4,4,5
 1424 1412 1424 1412 1430 937 c 4,6,7
 1436 467 1436 467 1441 -2 c 5,8,9
 1058.5 -5.1005859375 1058.5 -5.1005859375 1058.5 -5.1005859375 c 5,10,11
 1074 552 1074 552 1047 903 c 4,12,13
 1038 1020 1038 1020 951 1024 c 4,14,15
 831 1030 831 1030 835 853 c 5,0,1
628 852 m 5,16,17
 632 1033 632 1033 515 1031 c 4,18,19
 379 1029 379 1029 371 901 c 4,20,21
 348 529 348 529 362.5 -0.1005859375 c 5,22,23
 362.5 -0.1005859375 362.5 -0.1005859375 2 0 c 5,24,25
 -0 723 -0 723 22 928 c 4,26,27
 75 1406 75 1406 487 1395 c 4,28,29
 842 1386 842 1386 835 853 c 5,30,31
 835 853 835 853 628 852 c 5,16,17
762 1370 m 1049,32,-1
  Spiro
    762 1370 {
    0 0 z
  EndSpiro
755 657 m 1,33,-1
 756 412 l 1,34,35
 356 428 356 428 352 261 c 1,36,-1
 173 259 l 1,37,38
 178 682 178 682 755 657 c 1,33,-1
EndSplineSet
EndChar
StartChar: uni0E06
Encoding: 3590 3590 387
Width: 1528
Flags: W
LayerCount: 2
Fore
SplineSet
63 582 m 1,0,-1
 389 581 l 1,1,-1
 382 -20 l 5,2,-1
 62 -20 l 5,3,-1
 63 582 l 1,0,-1
EndSplineSet
Refer: 384 3587 N 1 0 0 1 0 0 2
EndChar
StartChar: uni0E07
Encoding: 3591 3591 388
Width: 1470
Flags: W
LayerCount: 2
Fore
SplineSet
594 1383 m 1,0,1
 763 1417 763 1417 966 1403 c 0,2,3
 1400.21239087 1372.9853186 1400.21239087 1372.9853186 1379 409 c 2,4,5
 1379 409 1379 409 1370 0 c 1,6,7
 1370 0 1370 0 566 9 c 1,8,9
 566 9 566 9 0 968 c 1,10,11
 0 968 0 968 309 1115 c 1,12,13
 309 1115 309 1115 743 330 c 1,14,15
 743 330 743 330 1011.93382353 324 c 1,16,17
 1011.93382353 324 1011.93382353 324 1013 411 c 2,18,19
 1021 1031 1021 1031 860 1049 c 0,20,21
 736 1063 736 1063 594 1023 c 1,22,23
 594 1203 594 1203 594 1383 c 1,0,1
EndSplineSet
EndChar
StartChar: uni0E08
Encoding: 3592 3592 389
Width: 1470
Flags: W
LayerCount: 2
Fore
SplineSet
232 1369 m 1,0,1
 414 1429 414 1429 737 1424 c 0,2,3
 1401.11487636 1413.99826993 1401.11487636 1413.99826993 1379 409 c 2,4,5
 1379 409 1379 409 1370 0 c 1,6,7
 1370 0 1370 0 566 9 c 1,8,9
 566 9 566 9 214 465 c 1,10,11
 214 465 214 465 0 464 c 1,12,13
 0 464 0 464 -2 733 c 5,14,15
 -2 733 -2 733 425 743 c 5,16,17
 425 743 425 743 743 330 c 1,18,19
 743 330 743 330 1011.93382353 324 c 1,20,21
 1011.93382353 324 1011.93382353 324 1013 411 c 2,22,23
 1021 1041 1021 1041 631 1070 c 0,24,25
 415 1086 415 1086 232 1009 c 1,26,27
 232 1189 232 1189 232 1369 c 1,0,1
EndSplineSet
EndChar
StartChar: uni0E09
Encoding: 3593 3593 390
Width: 1470
Flags: W
LayerCount: 2
Fore
SplineSet
6 710 m 1,0,-1
 317 696 l 1,1,2
 290 121 290 121 1061 360 c 5,3,-1
 1046 51 l 1,4,5
 -105 -198 -105 -198 6 710 c 1,0,-1
1009 10 m 17,6,-1
 1013 411 l 2,7,8
 1019 1041 1019 1041 631 1070 c 0,9,10
 415 1086 415 1086 232 1009 c 1,11,12
 232 1189 232 1189 232 1369 c 1,13,14
 414 1429 414 1429 737 1424 c 0,15,16
 1401.11487636 1413.99826993 1401.11487636 1413.99826993 1379 409 c 2,17,18
 1379 409 1379 409 1370 0 c 1,19,20
 1370 0 1370 0 1009 10 c 17,6,-1
EndSplineSet
EndChar
StartChar: uni0E0A
Encoding: 3594 3594 391
Width: 1501
Flags: W
LayerCount: 2
Fore
SplineSet
1100 1397 m 1,0,-1
 1425 1397 l 1,1,2
 1416 895 1416 895 918 893 c 9,3,-1
 908 1122 l 1,4,5
 1126 1133 1126 1133 1100 1397 c 1,0,-1
1394 645 m 0,6,7
 1400 462 1400 462 1340 334 c 0,8,9
 1271 186 1271 186 1134 79 c 0,10,11
 1020 -10 1020 -10 770 -10 c 0,12,13
 419 -10 419 -10 216 222 c 0,14,15
 69 390 69 390 78 575 c 0,16,17
 92 872 92 872 320 1003 c 0,18,19
 400 1049 400 1049 398 1091 c 256,20,21
 395.996104996 1149.11295512 395.996104996 1149.11295512 203 1132 c 2,22,23
 198 1133 198 1133 0 1114 c 257,24,25
 0 1114 0 1114 -2 1392 c 1,26,27
 435 1455 435 1455 626 1393 c 0,28,29
 709 1366 709 1366 744 1273 c 0,30,31
 834 1034 834 1034 602 872 c 0,32,33
 416 742 416 742 416 539 c 0,34,35
 416 410 416 410 471 342 c 0,36,37
 524 276 524 276 622.5 250.5 c 0,38,39
 710 227 710 227 788 231 c 0,40,41
 889 236 889 236 952 276 c 0,42,43
 1030 326 1030 326 1058 400 c 0,44,45
 1092 487 1092 487 1096 615 c 0,46,47
 1105 854 1105 854 918 893 c 1,48,-1
 908 1122 l 1,49,50
 1380 1086 1380 1086 1394 645 c 0,6,7
EndSplineSet
EndChar
StartChar: uni0E0B
Encoding: 3595 3595 392
Width: 1501
Flags: W
LayerCount: 2
Fore
SplineSet
12 1420 m 1,0,-1
 190 1408 l 1,1,2
 190 1408 190 1408 314 1321 c 1,3,4
 314 1321 314 1321 536 1388 c 1,5,-1
 609 1174 l 1,6,-1
 262 1096 l 1,7,-1
 258 1016 l 1,8,-1
 -1 1025 l 1,9,-1
 12 1420 l 1,0,-1
1100 1397 m 1,10,-1
 1425 1397 l 1,11,12
 1416 895 1416 895 918 893 c 9,13,-1
 908 1122 l 1,14,15
 1126 1133 1126 1133 1100 1397 c 1,10,-1
952 276 m 0,16,17
 1018 321 1018 321 1049.5 387.5 c 0,18,19
 1077 445 1077 445 1096 560.5 c 0,20,21
 1140 830 1140 830 918 893 c 9,22,-1
 908 1122 l 1,23,24
 1380 1086 1380 1086 1394 645 c 0,25,26
 1400 462 1400 462 1340 334 c 0,27,28
 1251 144 1251 144 1110 69 c 0,29,30
 982 0 982 0 770 -10 c 0,31,32
 431 -25 431 -25 216 222 c 0,33,34
 65 396 65 396 62 568 c 0,35,36
 58 884 58 884 320 1003 c 0,37,38
 456 1065 456 1065 451 1351 c 257,39,40
 494 1370 494 1370 536 1388 c 1,41,42
 650 1388 650 1388 763 1388 c 1,43,44
 763 1017 763 1017 602 881 c 0,45,46
 395 707 395 707 393 540 c 0,47,48
 391 414 391 414 482 334 c 0,49,50
 606 226 606 226 788 231 c 0,51,52
 891 234 891 234 952 276 c 0,16,17
EndSplineSet
EndChar
StartChar: uni0E0C
Encoding: 3596 3596 393
Width: 2319
Flags: W
LayerCount: 2
Fore
SplineSet
88 609 m 1,0,-1
 307 747 l 1,1,-1
 2 846 l 1,2,-1
 3 1196 l 1,3,4
 3 1196 3 1196 677 903 c 1,5,-1
 653 687 l 1,6,-1
 440 547 l 1,7,-1
 442 280 l 1,8,9
 442 280 442 280 700 282 c 1,10,11
 700 282 700 282 702 -2 c 1,12,-1
 82 5 l 1,13,-1
 88 609 l 1,0,-1
1285 324 m 1,14,15
 1722 185 1722 185 1800 521 c 0,16,17
 1821.13938373 606.41165142 1821.13938373 606.41165142 1831 1060 c 2,18,19
 1831 1060 1831 1060 1838 1385 c 1,20,-1
 2231 1382 l 1,21,22
 2231 1091.35555556 2231 1091.35555556 2229 1072 c 2,23,24
 2223.98191245 344.377304799 2223.98191245 344.377304799 2139 201 c 0,25,26
 1960 -101 1960 -101 1268 30 c 1,27,28
 1268 30 1268 30 1285 324 c 1,14,15
1285 0.0254237288136 m 1,29,30
 1285 0.0254237288136 1285 0.0254237288136 998 -3 c 1,31,32
 1003 405 1003 405 1003 405 c 2,33,34
 1011 1061 1011 1061 616 1060 c 0,35,36
 203 1059 203 1059 2 846 c 1,37,38
 2 1021 2 1021 3 1196 c 1,39,40
 272 1424 272 1424 739 1416 c 0,41,42
 1326.93889817 1406.00103915 1326.93889817 1406.00103915 1305 409 c 2,43,44
 1305 409 1305 409 1302.29339853 286 c 1,45,46
 1302.29339853 286 1302.29339853 286 1285 0.0254237288136 c 1,29,30
EndSplineSet
EndChar
StartChar: uni0E0D
Encoding: 3597 3597 394
Width: 2292
Flags: W
LayerCount: 2
Fore
SplineSet
2046 766 m 1,0,1
 2191 717 2191 717 2192 355 c 0,2,3
 2193 -37 2193 -37 1624 -66 c 0,4,5
 1221 -86 1221 -86 913 80 c 1,6,7
 913 80 913 80 1030 321 c 5,8,9
 1305 195 1305 195 1535 197 c 0,10,11
 1899 201 1899 201 1899 343 c 0,12,13
 1899 441 1899 441 1842 538 c 1,14,15
 1842 538 1842 538 2046 766 c 1,0,1
88 609 m 1,16,-1
 307 747 l 1,17,-1
 2 846 l 1,18,-1
 3 1196 l 1,19,20
 3 1196 3 1196 677 903 c 1,21,-1
 653 687 l 1,22,-1
 440 547 l 1,23,-1
 442 280 l 1,24,25
 442 280 442 280 700 282 c 1,26,27
 700 282 700 282 702 -2 c 1,28,-1
 82 5 l 1,29,-1
 88 609 l 1,16,-1
1831 1060 m 2,30,-1
 1838 1385 l 1,31,-1
 2174 1382 l 1,32,33
 2174 1079.4109589 2174 1079.4109589 2172 1072 c 2,34,35
 2169 663 2169 663 2026 531 c 0,36,37
 1849 367 1849 367 1553 368 c 0,38,39
 1546 368 1546 368 1540 368.1015625 c 0,40,41
 954 375 954 375 927 744 c 0,42,43
 915 909 915 909 915 909 c 0,44,45
 910 1150 910 1150 552 1109 c 0,46,47
 214 1070 214 1070 2 846 c 1,48,49
 2 1021 2 1021 3 1196 c 1,50,51
 228 1424 228 1424 739 1416 c 0,52,53
 1323 1406 1323 1406 1314 922 c 0,54,55
 1313 871 1313 871 1311 820 c 0,56,57
 1304 679 1304 679 1547 680 c 0,58,59
 1770 681 1770 681 1795 775 c 0,60,61
 1828 899 1828 899 1831 1060 c 2,30,-1
EndSplineSet
EndChar
StartChar: uni0E0E
Encoding: 3598 3598 403
Width: 1396
Flags: W
LayerCount: 2
Fore
SplineSet
931 -154 m 1,0,-1
 939 411 l 1,1,-1
 1305 409 l 1,2,-1
 1288 -419 l 1,3,-1
 23 -409 l 1,4,-1
 23 -139 l 1,5,-1
 931 -154 l 1,0,-1
EndSplineSet
Refer: 378 3616 N 1 0 0 1 0 0 2
EndChar
StartChar: uni0E0F
Encoding: 3599 3599 404
Width: 1396
Flags: W
LayerCount: 2
Fore
SplineSet
931 -154 m 1,0,-1
 939 411 l 1,1,-1
 1305 409 l 1,2,-1
 1288 -419 l 1,3,-1
 932 -416.185770751 l 1,4,-1
 662 -320 l 1,5,-1
 564 -487 l 1,6,-1
 9 -401 l 1,7,-1
 53 -137 l 1,8,-1
 458 -204 l 1,9,-1
 558 -40 l 1,10,-1
 931 -154 l 1,0,-1
EndSplineSet
Refer: 378 3616 N 1 0 0 1 0 0 2
EndChar
StartChar: uni0E10
Encoding: 3600 3600 405
Width: 1652
Flags: W
LayerCount: 2
Fore
SplineSet
1084 -185 m 1,0,-1
 1084 -52 l 1,1,-1
 1363 -54 l 1,2,-1
 1354 -450 l 1,3,-1
 1085 -447.185546875 l 1,4,-1
 731 -331 l 1,5,-1
 633 -498 l 1,6,-1
 78 -412 l 1,7,-1
 122 -148 l 1,8,-1
 527 -215 l 1,9,-1
 627 -51 l 1,10,-1
 1084 -185 l 1,0,-1
888 1282 m 1,11,-1
 1494 1450 l 1,12,-1
 1595 1050 l 1,13,-1
 991 988 l 1,14,-1
 888 1282 l 1,11,-1
EndSplineSet
Refer: 389 3592 N 1 0 0 1 0 0 2
EndChar
StartChar: uni0E11
Encoding: 3601 3601 406
Width: 1428
Flags: W
LayerCount: 2
Fore
SplineSet
13 1449 m 1,0,-1
 191 1437 l 1,1,2
 191 1437 191 1437 315 1350 c 1,3,4
 315 1350 315 1350 537 1417 c 1,5,-1
 876 1407 l 1,6,7
 876 1407 876 1407 610 1203 c 1,8,-1
 263 1125 l 1,9,-1
 259 1045 l 1,10,-1
 0 1054 l 1,11,-1
 13 1449 l 1,0,-1
362.5 -0.1005859375 m 1,12,13
 362.5 -0.1005859375 362.5 -0.1005859375 2 0 c 1,14,15
 2 0 2 0 0 321 c 2,16,17
 -1 482 -1 482 158 776 c 4,18,19
 505 1418 505 1418 876 1407 c 0,20,21
 1358.33784076 1393.58893778 1358.33784076 1393.58893778 1337 409 c 2,22,23
 1337 409 1337 409 1328 0 c 1,24,25
 1328 0 1328 0 966 3 c 1,26,27
 966 3 966 3 971 411 c 2,28,29
 979 1089 979 1089 842 1093 c 0,30,31
 749.619221891 1095.46348742 749.619221891 1095.46348742 502 692 c 0,32,33
 369 475 369 475 366 265 c 2,34,35
 366 265 366 265 362.5 -0.1005859375 c 1,12,13
EndSplineSet
EndChar
StartChar: uni0E12
Encoding: 3602 3602 412
Width: 2425
Flags: W
LayerCount: 2
Fore
SplineSet
1387 324 m 1,0,1
 1824 185 1824 185 1902 521 c 0,2,3
 1923.13964844 606.412109375 1923.13964844 606.412109375 1933 1060 c 2,4,-1
 1940 1385 l 1,5,-1
 2333 1382 l 1,6,7
 2333 1091.35546875 2333 1091.35546875 2331 1072 c 2,8,9
 2325.98144531 344.376953125 2325.98144531 344.376953125 2241 201 c 0,10,11
 2062 -101 2062 -101 1370 30 c 1,12,-1
 1387 324 l 1,0,1
EndSplineSet
Refer: 408 3605 N 1 0 0 1 0 0 2
EndChar
StartChar: uni0E13
Encoding: 3603 3603 413
Width: 2259
Flags: W
LayerCount: 2
Fore
SplineSet
1831 1060 m 1,0,-1
 2172 1072 l 1,1,-1
 2161 4 l 1,2,-1
 1807 0 l 1,3,-1
 1831 1060 l 1,0,-1
88 609 m 1,4,-1
 307 747 l 1,5,-1
 2 846 l 1,6,-1
 3 1196 l 1,7,8
 3 1196 3 1196 677 903 c 1,9,-1
 653 687 l 1,10,-1
 440 547 l 1,11,-1
 442 280 l 1,12,13
 442 280 442 280 700 282 c 1,14,15
 700 282 700 282 702 -2 c 1,16,-1
 82 5 l 1,17,-1
 88 609 l 1,4,-1
1831 1060 m 2,18,-1
 1838 1385 l 1,19,-1
 2174 1382 l 1,20,21
 2174 1129 2174 1129 2172 1072 c 2,22,23
 2168.16709102 477.899108848 2168.16709102 477.899108848 2147 364 c 0,24,25
 2077 -7 2077 -7 1553 -6 c 0,26,27
 1546 -6 1546 -6 1540 -5.8984375 c 0,28,29
 942 1 942 1 927 506 c 0,30,31
 915 909 915 909 915 909 c 0,32,33
 910 1150 910 1150 552 1109 c 0,34,35
 214 1070 214 1070 2 846 c 1,36,37
 2 1021 2 1021 3 1196 c 1,38,39
 228 1424 228 1424 739 1416 c 0,40,41
 1316 1406 1316 1406 1314 922 c 0,42,43
 1313 648 1313 648 1311 582 c 0,44,45
 1300 232 1300 232 1550 233 c 0,46,47
 1806 234 1806 234 1815 512 c 0,48,49
 1827 894 1827 894 1831 1060 c 2,18,-1
EndSplineSet
EndChar
StartChar: uni0E14
Encoding: 3604 3604 407
Width: 1528
Flags: W
LayerCount: 2
Fore
SplineSet
733 0 m 1,0,1
 353 0 353 0 194 78 c 0,2,3
 33 157 33 157 0.710147575891 345 c 0,4,5
 -14 432 -14 432 8 744 c 0,6,7
 18 887 18 887 35.24609375 985.975585938 c 0,8,9
 52 1085 52 1085 104.5 1165.5 c 128,-1,10
 157 1246 157 1246 238.5 1306 c 0,11,12
 412 1434 412 1434 655 1434 c 4,13,14
 1061 1434 1061 1434 1264 1202.5 c 0,15,16
 1358 1095 1358 1095 1386 964.5 c 0,17,18
 1411 848 1411 848 1416.42382812 651.01171875 c 0,19,20
 1425 348 1425 348 1425 -10 c 1,21,-1
 1024 -10 l 1,22,23
 1024 217 1024 217 1026.5 395 c 128,-1,24
 1029 573 1029 573 1024 708.5 c 128,-1,25
 1019 844 1019 844 1002 938 c 128,-1,26
 985 1032 985 1032 946.5 1090.5 c 128,-1,27
 908 1149 908 1149 843.5 1173.5 c 128,-1,28
 779 1198 779 1198 678 1193 c 128,-1,29
 577 1188 577 1188 514 1148 c 128,-1,30
 451 1108 451 1108 416.5 1036.5 c 0,31,32
 379 959 379 959 370 863.5 c 0,33,34
 357 731 357 731 357 634 c 0,35,36
 356 438 356 438 426 370 c 0,37,38
 519 281 519 281 734 281 c 1,39,-1
 733 0 l 1,0,1
EndSplineSet
EndChar
StartChar: uni0E15
Encoding: 3605 3605 408
Width: 1528
Flags: W
LayerCount: 2
Fore
SplineSet
833 823 m 5,0,1
 833 823 833 823 626 822 c 5,2,3
 619 1382 619 1382 1006 1396 c 0,4,5
 1424 1412 1424 1412 1430 937 c 0,6,7
 1436 467 1436 467 1441 -2 c 1,8,9
 1058.5 -5.1005859375 1058.5 -5.1005859375 1058.5 -5.1005859375 c 1,10,11
 1074 508 1074 508 1045 873 c 0,12,13
 1036 990 1036 990 949 994 c 4,14,15
 829 1000 829 1000 833 823 c 5,0,1
19 346 m 0,16,17
 -10 582 -10 582 22 928 c 0,18,19
 66 1406 66 1406 487 1395 c 0,20,21
 840 1386 840 1386 833 823 c 5,22,23
 833 823 833 823 626 822 c 5,24,25
 630 1002 630 1002 513 1001 c 0,26,27
 387 1000 387 1000 369 871 c 0,28,29
 316 482 316 482 426 370 c 0,30,31
 514 281 514 281 734 281 c 1,32,33
 733 0 733 0 733 0 c 1,34,35
 353 0 353 0 194 78 c 0,36,37
 43 153 43 153 19 346 c 0,16,17
762 1370 m 1049,38,-1
  Spiro
    762 1370 {
    0 0 z
  EndSpiro
EndSplineSet
EndChar
StartChar: uni0E16
Encoding: 3606 3606 409
Width: 1396
Flags: W
LayerCount: 2
Fore
SplineSet
698 -7 m 1,0,-1
 146 7 l 1,1,-1
 149 263 l 1,2,-1
 703 261 l 1,3,-1
 698 -7 l 1,0,-1
EndSplineSet
Refer: 379 3585 N 1 0 0 1 0 0 2
EndChar
StartChar: uni0E17
Encoding: 3607 3607 373
Width: 1428
Flags: W
LayerCount: 2
Fore
SplineSet
2 0 m 1,0,-1
 0 1430 l 1,1,-1
 337 1438.09960938 l 1,2,-1
 362.5 -0.1005859375 l 1,3,-1
 2 0 l 1,0,-1
362.5 -0.1005859375 m 5,4,5
 362.5 -0.1005859375 362.5 -0.1005859375 2 0 c 5,6,7
 45 1426 45 1426 708 1416 c 4,8,9
 1358.93889596 1406.00093862 1358.93889596 1406.00093862 1337 409 c 6,10,11
 1337 409 1337 409 1328 0 c 5,12,13
 1328 0 1328 0 966 3 c 5,14,15
 966 3 966 3 971 411 c 6,16,17
 979 1049 979 1049 660 1067 c 4,18,19
 366 1083 366 1083 362.5 -0.1005859375 c 5,4,5
EndSplineSet
EndChar
StartChar: uni0E18
Encoding: 3608 3608 398
Width: 1188
Flags: W
LayerCount: 2
Fore
SplineSet
36.75 15 m 25,0,-1
 0 628 l 1,1,-1
 299 640 l 25,2,-1
 330 176 l 1,3,-1
 36.75 15 l 25,0,-1
804.299804688 1126 m 1,4,5
 437 1207 437 1207 343.047851562 1125.2578125 c 1,6,7
 297 1051 297 1051 505.967773438 974.852539062 c 0,8,9
 564 954 564 954 623.481445312 933.592773438 c 0,10,11
 779 881 779 881 802.609375 868.05078125 c 0,12,13
 826 855 826 855 850.036132812 844.3359375 c 0,14,15
 874 834 874 834 905.572265625 813.614257812 c 0,16,17
 938 794 938 794 973.751953125 764.318359375 c 0,18,19
 1010 735 1010 735 1040.45605469 694.516601562 c 0,20,21
 1110 602 1110 602 1111.64550781 500.887695312 c 0,22,23
 1113 400 1113 400 1075.69824219 323.584960938 c 0,24,25
 1038 247 1038 247 973.662109375 184.2734375 c 0,26,27
 814.41175922 29.00096433 814.41175922 29.00096433 628.297851562 0.443359375 c 0,28,29
 270 -53 270 -53 36.75 15 c 1,30,-1
 138.95703125 387.983398438 l 1,31,32
 323 282 323 282 520.856445312 313.797851562 c 0,33,34
 648 334 648 334 688.6484375 418.709960938 c 0,35,36
 710 463 710 463 696.150390625 520.758789062 c 0,37,38
 682 579 682 579 647.953125 614.237304688 c 0,39,40
 613 650 613 650 566.301757812 675.188476562 c 0,41,42
 519 701 519 701 463.018554688 719.958984375 c 0,43,44
 406 739 406 739 348.8359375 758.940429688 c 0,45,46
 291 779 291 779 235.23828125 803.748046875 c 0,47,48
 180 829 180 829 133.201171875 865.870117188 c 0,49,50
 30 948 30 948 12.599609375 1053 c 128,-1,51
 -5 1158 -5 1158 16.640625 1216.74609375 c 0,52,53
 39.4499625299 1276.17230804 39.4499625299 1276.17230804 83.357421875 1318.421875 c 0,54,55
 206 1435 206 1435 519.75 1445 c 2,56,57
 519.75 1445 519.75 1445 762.299804688 1453 c 1,58,59
 804.299804688 1126 804.299804688 1126 804.299804688 1126 c 1,4,5
EndSplineSet
EndChar
StartChar: uni0E19
Encoding: 3609 3609 381
Width: 1753
Flags: W
LayerCount: 2
Fore
SplineSet
1177 311 m 1,0,-1
 1660 428 l 1,1,-1
 1648 0 l 1,2,-1
 768 -10 l 1,3,-1
 1177 311 l 1,0,-1
EndSplineSet
Refer: 380 3610 N 1 0 0 1 0 0 2
EndChar
StartChar: uni0E1B
Encoding: 3611 3611 395
Width: 1528
Flags: W
LayerCount: 2
Fore
SplineSet
1093 1830 m 1,0,-1
 1426 1828 l 5,1,-1
 1424.5 1117.5 l 1,2,-1
 1105 1070.5 l 1,3,-1
 1093 1830 l 1,0,-1
EndSplineSet
Refer: 380 3610 N 1 0 0 1 0 0 2
EndChar
StartChar: uni0E1C
Encoding: 3612 3612 401
Width: 1849
Flags: W
LayerCount: 2
Fore
SplineSet
1307 509 m 1,0,-1
 1361 1411 l 1,1,-1
 1717 1395 l 1,2,-1
 1610 5 l 1,3,-1
 1266 27 l 1,4,-1
 881 578 l 1,5,-1
 484 27 l 1,6,-1
 84 2 l 1,7,-1
 2 1423 l 1,8,-1
 584 1445 l 1,9,-1
 590 1123 l 1,10,-1
 400.618164062 1107 l 1,11,-1
 446 485 l 1,12,-1
 776 939 l 1,13,-1
 986 925 l 1,14,-1
 1307 509 l 1,0,-1
EndSplineSet
EndChar
StartChar: uni0E1E
Encoding: 3614 3614 399
Width: 1966
Flags: W
LayerCount: 2
Fore
SplineSet
1303 481 m 1,0,-1
 1540 1423 l 1,1,-1
 1878 1362 l 1,2,-1
 1516 14 l 1,3,-1
 1198 49 l 1,4,-1
 989 846 l 1,5,-1
 690 -2 l 1,6,-1
 338 -2 l 1,7,-1
 0 1389 l 1,8,-1
 397 1436 l 1,9,-1
 590 573 l 1,10,-1
 856 1436 l 1,11,-1
 1067 1419 l 1,12,-1
 1303 481 l 1,0,-1
EndSplineSet
EndChar
StartChar: uni0E1F
Encoding: 3615 3615 400
Width: 1966
Flags: W
LayerCount: 2
Fore
SplineSet
1279 590 m 1,0,-1
 1483 1892 l 5,1,-1
 1876 1820 l 1,2,-1
 1516 14 l 1,3,-1
 1212 33 l 1,4,-1
 989 846 l 1,5,-1
 690 -2 l 1,6,-1
 338 -2 l 1,7,-1
 0 1389 l 1,8,-1
 397 1436 l 1,9,-1
 590 573 l 1,10,-1
 856 1436 l 1,11,-1
 1067 1419 l 1,12,-1
 1279 590 l 1,0,-1
EndSplineSet
EndChar
StartChar: uni0E20
Encoding: 3616 3616 378
Width: 1396
Flags: W
LayerCount: 2
Fore
SplineSet
494 0 m 17,0,-1
 0 10 l 1,1,-1
 0 263 l 1,2,-1
 492 261 l 1,3,-1
 494 0 l 17,0,-1
EndSplineSet
Refer: 379 3585 N 1 0 0 1 0 0 2
EndChar
StartChar: uni0E21
Encoding: 3617 3617 382
Width: 1528
Flags: W
LayerCount: 2
Fore
SplineSet
0 1434 m 5,0,-1
 332 1434 l 5,1,-1
 318 -14 l 29,2,-1
 -1 -8 l 5,3,-1
 0 1434 l 5,0,-1
EndSplineSet
Refer: 380 3610 N 1 0 0 1 0 0 2
EndChar
StartChar: uni0E22
Encoding: 3618 3618 375
Width: 1474
Flags: W
LayerCount: 2
Fore
SplineSet
1004 298 m 25,0,-1
 1016 1397 l 1,1,-1
 1361 1397 l 1,2,3
 1344 698 1344 698 1326 0 c 1,4,-1
 0 12 l 1,5,-1
 0 208 l 2,6,7
 0 456 0 456 286 551 c 1,8,9
 58 655 58 655 66 973 c 0,10,11
 77 1418 77 1418 552 1418 c 0,12,13
 698 1418 698 1418 828 1373 c 1,14,15
 828 1373 828 1373 732 1050 c 1,16,17
 367 1178 367 1178 376 892 c 0,18,19
 383 673 383 673 688 683 c 1,20,-1
 686 462 l 1,21,22
 404 471 404 471 396 310 c 1,23,24
 396 310 396 310 1004 298 c 25,0,-1
EndSplineSet
EndChar
StartChar: uni0E24
Encoding: 3620 3620 410
Width: 1396
Flags: W
LayerCount: 2
Fore
SplineSet
939 411 m 5,0,-1
 1305 409 l 5,1,-1
 1291 -394 l 5,2,-1
 924 -380 l 5,3,-1
 939 411 l 5,0,-1
EndSplineSet
Refer: 409 3606 N 1 0 0 1 0 0 2
EndChar
StartChar: uni0E25
Encoding: 3621 3621 418
Width: 1371
Flags: W
LayerCount: 2
Fore
SplineSet
374 414 m 1,0,-1
 374 242 l 1,1,-1
 546 242 l 1,2,-1
 546 10 l 1,3,-1
 83 10 l 1,4,-1
 83 723 l 1,5,6
 946 740 946 740 946 740 c 1,7,8
 948 661 948 661 955 425 c 25,9,-1
 374 414 l 1,0,-1
893 514 m 2,10,11
 893 740 893 740 801.5 871.5 c 0,12,13
 766 922 766 922 714.5 959 c 0,14,15
 664 995 664 995 584.06640625 1028 c 128,-1,16
 504 1061 504 1061 412 1061 c 1,17,18
 348 1068 348 1068 284.5 1062 c 0,19,20
 98 1044 98 1044 9 985 c 1,21,22
 9 985 9 985 9 1350 c 1,23,24
 34 1372 34 1372 151 1404.5 c 0,25,26
 210 1421 210 1421 287 1433.5 c 128,-1,27
 364 1446 364 1446 475 1446 c 128,-1,28
 586 1446 586 1446 699.5 1417 c 0,29,30
 1063.32202351 1323.66083259 1063.32202351 1323.66083259 1178 1049 c 0,31,32
 1259.4032597 853.029189619 1259.4032597 853.029189619 1260 657 c 2,33,34
 1262 647 1262 647 1262 0 c 1,35,-1
 892 0 l 1,36,-1
 893 514 l 2,10,11
EndSplineSet
EndChar
StartChar: uni0E26
Encoding: 3622 3622 411
Width: 1396
Flags: W
LayerCount: 2
Fore
SplineSet
939 411 m 5,0,-1
 1305 409 l 5,1,-1
 1291 -394 l 5,2,-1
 924 -380 l 5,3,-1
 939 411 l 5,0,-1
EndSplineSet
Refer: 378 3616 N 1 0 0 1 0 0 2
EndChar
StartChar: uni0E28
Encoding: 3624 3624 419
Width: 1528
Flags: W
LayerCount: 2
Fore
SplineSet
983 1221 m 1,0,-1
 1229 1564 l 1,1,-1
 1407 1366 l 1,2,-1
 1067 1119 l 1,3,-1
 983 1221 l 1,0,-1
EndSplineSet
Refer: 385 3588 N 1 0 0 1 0 0 2
EndChar
StartChar: uni0E29
Encoding: 3625 3625 377
Width: 1600
Flags: W
LayerCount: 2
Fore
SplineSet
732 957 m 1,0,-1
 1536 969 l 1,1,-1
 1539 669 l 1,2,-1
 741 660 l 1,3,-1
 732 957 l 1,0,-1
EndSplineSet
Refer: 380 3610 N 1 0 0 1 0 0 2
EndChar
StartChar: uni0E2A
Encoding: 3626 3626 420
Width: 1371
Flags: W
LayerCount: 2
Fore
SplineSet
916 1260 m 1,0,-1
 1162 1603 l 1,1,-1
 1340 1405 l 1,2,-1
 1000 1158 l 1,3,-1
 916 1260 l 1,0,-1
EndSplineSet
Refer: 418 3621 S 1 0 0 1 0 0 2
EndChar
StartChar: uni0E2B
Encoding: 3627 3627 417
Width: 1257
Flags: W
LayerCount: 2
Fore
SplineSet
892 14 m 257,0,1
 892 14 892 14 885 332 c 258,2,3
 878 655 878 655 594 892 c 1,4,5
 594 892 594 892 829 1114 c 1,6,7
 1176.32245329 932.831803906 1176.32245329 932.831803906 1195.5703125 367 c 258,8,9
 1196 366 1196 366 1207 31 c 257,10,-1
 892 14 l 257,0,1
426 512 m 1,11,-1
 467 20 l 1,12,-1
 78 0 l 1,13,-1
 0 1423 l 1,14,-1
 389 1442 l 1,15,-1
 410 936 l 1,16,-1
 869 1480 l 1,17,-1
 1123 1246 l 9,18,-1
 426 512 l 1,11,-1
EndSplineSet
EndChar
StartChar: uni0E2C
Encoding: 3628 3628 416
Width: 1966
Flags: W
LayerCount: 2
Fore
SplineSet
1303 481 m 1,0,-1
 1491.44267516 1230 l 1,1,2
 1491.44267516 1230 1491.44267516 1230 1297 1508 c 1,3,-1
 1651 1918 l 1,4,5
 1651 1918 1651 1918 1925 1726 c 1,6,7
 1925 1726 1925 1726 1693 1524 c 1,8,9
 1693 1524 1693 1524 1878 1362 c 1,10,-1
 1516 14 l 1,11,-1
 1198 49 l 1,12,-1
 989 846 l 1,13,-1
 690 -2 l 1,14,-1
 338 -2 l 1,15,-1
 0 1389 l 1,16,-1
 397 1436 l 1,17,-1
 590 573 l 1,18,-1
 856 1436 l 1,19,-1
 1067 1419 l 1,20,-1
 1303 481 l 1,0,-1
EndSplineSet
EndChar
StartChar: uni0E2D
Encoding: 3629 3629 414
Width: 1371
Flags: W
LayerCount: 2
Fore
SplineSet
412 1061 m 1,0,1
 348 1068 348 1068 284.5 1062 c 0,2,3
 98.078125 1044.38574219 98.078125 1044.38574219 9 985 c 1,4,5
 9 985 9 985 9 1350 c 1,6,7
 33.83984375 1371.73535156 33.83984375 1371.73535156 151 1404.5 c 0,8,9
 210 1421 210 1421 287 1433.5 c 128,-1,10
 364 1446 364 1446 475 1446 c 128,-1,11
 586 1446 586 1446 699.5 1417 c 0,12,13
 1033.45117188 1331.67285156 1033.45117188 1331.67285156 1178 1049 c 0,14,15
 1270.00390625 869.081054688 1270.00390625 869.081054688 1260 657 c 1,16,17
 1260 561 1260 561 1229.5 475 c 0,18,19
 1138.40429688 218.138671875 1138.40429688 218.138671875 860.5 86.5 c 0,20,21
 682.111328125 2 682.111328125 2 490 2 c 1,22,23
 1074.06152344 0.3974609375 1074.06152344 0.3974609375 84 2 c 1,24,25
 84 2 84 2 84 80 c 1,26,-1
 84 369 l 1,27,-1
 84 715 l 1,28,-1
 547 715 l 1,29,-1
 547 483 l 1,30,-1
 375 483 l 1,31,-1
 375 311 l 1,32,33
 543.775390625 296.044921875 543.775390625 296.044921875 679.5 368.5 c 0,34,35
 827.416992188 447.462890625 827.416992188 447.462890625 856 598 c 0,36,37
 883.518554688 755.774414062 883.518554688 755.774414062 801.5 871.5 c 0,38,39
 765 923 765 923 714.5 959 c 128,-1,40
 664 995 664 995 584.06640625 1028 c 128,-1,41
 504.133789062 1061 504.133789062 1061 412 1061 c 1,0,1
EndSplineSet
EndChar
StartChar: uni0E2E
Encoding: 3630 3630 415
Width: 1371
Flags: W
LayerCount: 2
Fore
SplineSet
889 1252 m 5,0,-1
 1135 1595 l 5,1,-1
 1313 1397 l 5,2,-1
 973 1150 l 5,3,-1
 889 1252 l 5,0,-1
EndSplineSet
Refer: 414 3629 N 1 0 0 1 0 0 2
EndChar
StartChar: uni0E2F
Encoding: 3631 3631 421
Width: 1265
Flags: W
LayerCount: 2
Fore
SplineSet
621 1436 m 1,0,1
 621 1436 621 1436 610 1141 c 1,2,3
 576 1152 576 1152 490 1149 c 0,4,5
 340 1145 340 1145 335 1013 c 0,6,7
 331 899 331 899 472 876 c 4,8,9
 692 840 692 840 915 944 c 5,10,11
 915 944 915 944 907 729 c 5,12,13
 842 654 842 654 489.08203125 650.00390625 c 4,14,15
 43 645 43 645 10 934 c 0,16,17
 -42 1392 -42 1392 369 1434 c 0,18,19
 495 1447 495 1447 603 1438.9208903 c 0,20,21
 614 1438 614 1438 621 1436 c 1,0,1
1139 -8 m 5,22,-1
 746 12 l 5,23,-1
 805 1446 l 5,24,-1
 1198 1425 l 5,25,-1
 1139 -8 l 5,22,-1
EndSplineSet
EndChar
StartChar: uni0E30
Encoding: 3632 3632 428
Width: 1020
Flags: W
LayerCount: 2
Fore
SplineSet
306 1420 m 257,0,1
 306 1420 306 1420 301.079101562 1098 c 1,2,3
 301.079101562 1098 301.079101562 1098 920 1106 c 1,4,-1
 923.590820312 813.1328125 l 1,5,6
 923.590820312 813.1328125 923.590820312 813.1328125 4.2216796875 808.228515625 c 257,7,8
 4.2216796875 808.228515625 4.2216796875 808.228515625 7.3583984375 1419.64453125 c 257,9,10
 7.3583984375 1419.64453125 7.3583984375 1419.64453125 306 1420 c 257,0,1
306 618 m 257,11,12
 306 618 306 618 301.079101562 296 c 1,13,14
 301.079101562 296 301.079101562 296 920 304 c 1,15,-1
 923.590820312 11.1328125 l 1,16,17
 923.590820312 11.1328125 923.590820312 11.1328125 4.2216796875 6.228515625 c 257,18,19
 4.2216796875 6.228515625 4.2216796875 6.228515625 7.3583984375 617.64453125 c 257,20,21
 7.3583984375 617.64453125 7.3583984375 617.64453125 306 618 c 257,11,12
EndSplineSet
EndChar
StartChar: uni0E31
Encoding: 3633 3633 430
Width: 0
Flags: W
LayerCount: 2
Fore
SplineSet
-570.079101562 1859.19042969 m 257,0,1
 -570.079101562 1859.19042969 -570.079101562 1859.19042969 -575 1679 c 1,2,3
 -575 1679 -575 1679 30 1681 c 1,4,-1
 21.5908203125 1500.1328125 l 1,5,6
 21.5908203125 1500.1328125 21.5908203125 1500.1328125 -781.778320312 1505.22851562 c 257,7,8
 -781.778320312 1505.22851562 -781.778320312 1505.22851562 -778.641601562 1858.83496094 c 257,9,10
 -778.641601562 1858.83496094 -778.641601562 1858.83496094 -570.079101562 1859.19042969 c 257,0,1
EndSplineSet
EndChar
StartChar: uni0E32
Encoding: 3634 3634 376
Width: 1242
Flags: W
LayerCount: 2
Fore
SplineSet
1 1164 m 1,0,1
 302 1420 302 1420 585 1416 c 0,2,3
 1172.93847656 1406.00097656 1172.93847656 1406.00097656 1151 409 c 2,4,5
 1151 409 1151 409 1142 0 c 1,6,7
 1142 0 1142 0 780 3 c 1,8,9
 785 411 785 411 785 411 c 2,10,11
 793.100585938 1072.00585938 793.100585938 1072.00585938 540 1057 c 0,12,13
 401 1049 401 1049 189 824 c 1,14,15
 95 994 95 994 1 1164 c 1,0,1
EndSplineSet
EndChar
StartChar: uni0E34
Encoding: 3636 3636 431
Width: 0
Flags: W
LayerCount: 2
Fore
SplineSet
-993 1687 m 5,0,1
 -993 1687 -993 1687 -195 1679 c 1,2,-1
 -203.409179688 1498.1328125 l 1,3,4
 -203.409179688 1498.1328125 -203.409179688 1498.1328125 -999.778320312 1506.22851562 c 261,5,6
 -999.778320312 1506.22851562 -999.778320312 1506.22851562 -993 1687 c 5,0,1
EndSplineSet
EndChar
StartChar: uni0E35
Encoding: 3637 3637 432
Width: 0
Flags: W
LayerCount: 2
Fore
SplineSet
-993 1687 m 1,0,1
 -993 1687 -993 1687 -381 1680.86466165 c 1,2,3
 -381 1680.86466165 -381 1680.86466165 -374 1832 c 5,4,5
 -374 1832 -374 1832 -188 1827 c 5,6,-1
 -203.409179688 1498.1328125 l 1,7,8
 -203.409179688 1498.1328125 -203.409179688 1498.1328125 -999.778320312 1506.22851562 c 257,9,10
 -999.778320312 1506.22851562 -999.778320312 1506.22851562 -993 1687 c 1,0,1
EndSplineSet
EndChar
StartChar: uni0E36
Encoding: 3638 3638 438
Width: 0
Flags: W
LayerCount: 2
Fore
SplineSet
-364 1501 m 1,0,-1
 -999.778320312 1506.22851562 l 257,1,-1
 -993 1687 l 1,2,-1
 -500 1682 l 1,3,-1
 -364 1501 l 1,0,-1
EndSplineSet
Refer: 443 3661 S 1 0 0 1 0 0 2
EndChar
StartChar: uni0E37
Encoding: 3639 3639 433
Width: 0
Flags: W
LayerCount: 2
Fore
SplineSet
-680 1841 m 1049,0,-1
-993 1687 m 1,2,3
 -993 1687 -993 1687 -688 1684 c 1,4,5
 -688 1684 -688 1684 -680 1841 c 1,6,7
 -680 1841 -680 1841 -509 1836 c 1,8,9
 -509 1836 -509 1836 -515 1683 c 1,10,11
 -515 1683 -515 1683 -367 1681 c 5,12,13
 -367 1681 -367 1681 -360 1832.13574219 c 5,14,15
 -360 1832.13574219 -360 1832.13574219 -188 1827 c 1,16,-1
 -203.409179688 1498.1328125 l 1,17,18
 -203.409179688 1498.1328125 -203.409179688 1498.1328125 -999.778320312 1506.22851562 c 257,19,20
 -999.778320312 1506.22851562 -999.778320312 1506.22851562 -993 1687 c 1,2,3
EndSplineSet
EndChar
StartChar: uni0E38
Encoding: 3640 3640 435
Width: 0
Flags: W
LayerCount: 2
Fore
SplineSet
-308.268554688 -354.409179688 m 5,0,1
 -308.268554688 -354.409179688 -308.268554688 -354.409179688 -300.1328125 -198.409179688 c 5,2,3
 -300.1328125 -198.409179688 -300.1328125 -198.409179688 -451.268554688 -191.409179688 c 5,4,5
 -451.268554688 -191.409179688 -451.268554688 -191.409179688 -445 -64 c 5,6,-1
 -116.1328125 -79.4091796875 l 5,7,8
 -116.1328125 -79.4091796875 -116.1328125 -79.4091796875 -127.497070312 -361.1875 c 261,9,10
 -127.497070312 -361.1875 -127.497070312 -361.1875 -308.268554688 -354.409179688 c 5,0,1
EndSplineSet
EndChar
StartChar: uni0E39
Encoding: 3641 3641 436
Width: 0
Flags: W
LayerCount: 2
Fore
SplineSet
-478 -195 m 1,0,-1
 -583 -192 l 1,1,2
 -583 -192 -583 -192 -582 -69 c 1,3,-1
 -370.635742188 -76.2216796875 l 1,4,5
 -370.635742188 -76.2216796875 -370.635742188 -76.2216796875 -373 -141 c 2,6,7
 -376 -229 -376 -229 -278 -235 c 256,8,9
 -178 -241 -178 -241 -169 -72 c 1,10,-1
 -68 -71 l 5,11,12
 -63 -333 -63 -333 -279 -328 c 0,13,14
 -478 -321.69347075 -478 -321.69347075 -478 -195 c 1,0,-1
EndSplineSet
EndChar
StartChar: uni0E3F
Encoding: 3647 3647 427
Width: 762
Flags: W
LayerCount: 2
Fore
SplineSet
234 320 m 25,0,-1
 344 334 l 25,1,-1
 370 56 l 25,2,-1
 214 60 l 25,3,-1
 234 320 l 25,0,-1
260 1111 m 25,4,-1
 236 1377 l 25,5,-1
 382 1379 l 25,6,-1
 364 1103 l 25,7,-1
 260 1111 l 25,4,-1
EndSplineSet
Refer: 34 66 N 0.6 0 0 0.6 2.04608 279.8 2
EndChar
StartChar: uni0E40
Encoding: 3648 3648 423
Width: 708
Flags: W
LayerCount: 2
Fore
SplineSet
436 1412 m 1,0,1
 436 1412 436 1412 410 284 c 1,2,3
 410 284 410 284 590 282 c 1,4,-1
 575 0 l 1,5,6
 575 0 575 0 2 9 c 257,7,8
 2 9 2 9 56 1421 c 257,9,10
 56 1421 56 1421 436 1412 c 1,0,1
EndSplineSet
EndChar
StartChar: uni0E42
Encoding: 3650 3650 422
Width: 978
Flags: W
LayerCount: 2
Fore
SplineSet
-9 1807 m 1,0,-1
 911 1834 l 1,1,-1
 915 1557 l 1,2,-1
 -4 1521 l 1,3,-1
 -9 1807 l 1,0,-1
616 952 m 258,4,5
 617 951 617 951 599 284 c 1,6,-1
 779 282 l 1,7,-1
 764 0 l 1,8,-1
 191 9 l 257,9,-1
 233 912 l 2,10,11
 252.639648438 1334.26171875 252.639648438 1334.26171875 -4 1521 c 1,12,-1
 -9 1807 l 1,13,14
 632.62109375 1605.11914062 632.62109375 1605.11914062 616 952 c 258,4,5
EndSplineSet
EndChar
StartChar: uni0E43
Encoding: 3651 3651 429
Width: 926
Flags: W
LayerCount: 2
Fore
SplineSet
217 912 m 2,0,1
 217 912 217 912 175 9 c 257,2,3
 748 0 748 0 748 0 c 129,-1,4
 748 0 748 0 763 282 c 1,5,-1
 583 284 l 1,6,7
 583 914.2578125 583 914.2578125 600 952 c 2,8,9
 604 1091 604 1091 759 1305 c 0,10,11
 829 1401 829 1401 809 1585 c 0,12,13
 775 1892 775 1892 465 1877 c 0,14,15
 260 1867 260 1867 -11 1798 c 1,16,17
 -11 1798 -11 1798 50 1504 c 257,18,19
 226 1552 226 1552 226 1552 c 2,20,21
 457 1615 457 1615 475 1553 c 256,22,23
 494 1487 494 1487 380 1356 c 0,24,25
 230 1181 230 1181 217 912 c 2,0,1
EndSplineSet
EndChar
StartChar: uni0E44
Encoding: 3652 3652 374
Width: 987
Flags: W
LayerCount: 2
Fore
SplineSet
0 1807 m 1,0,-1
 920 1834 l 1,1,-1
 924 1557 l 1,2,-1
 5 1521 l 1,3,-1
 0 1807 l 1,0,-1
242 912 m 258,4,5
 274.740234375 1615.91210938 274.740234375 1615.91210938 920 1834 c 1,6,-1
 924 1557 l 1,7,8
 634 1314 634 1314 625 952 c 2,9,10
 623.999023438 949.975585938 623.999023438 949.975585938 608 284 c 1,11,12
 608 284 608 284 788 282 c 1,13,-1
 773 0 l 1,14,15
 773 0 773 0 200 9 c 257,16,17
 200 9 200 9 242 912 c 258,4,5
EndSplineSet
EndChar
StartChar: uni0E45
Encoding: 3653 3653 426
Width: 1242
Flags: W
LayerCount: 2
Fore
SplineSet
1 1164 m 1,0,1
 302 1420 302 1420 585 1416 c 0,2,3
 1162 1406 1162 1406 1151 409 c 2,4,5
 1153.00596468 405.431084033 1153.00596468 405.431084033 1142 -390 c 5,6,7
 1142 -390 1142 -390 780 -387 c 5,8,9
 785 411 785 411 785 411 c 2,10,11
 789.141657479 1072.00853358 789.141657479 1072.00853358 540 1057 c 0,12,13
 401 1049 401 1049 189 824 c 1,14,15
 95 994 95 994 1 1164 c 1,0,1
EndSplineSet
EndChar
StartChar: uni0E46
Encoding: 3654 3654 425
Width: 1508
Flags: W
LayerCount: 2
Fore
SplineSet
814 882 m 1,0,1
 814 882 814 882 607 881 c 1,2,3
 600 1382 600 1382 986 1396 c 0,4,5
 1404 1412 1404 1412 1410 937 c 0,6,7
 1416 467 1416 467 1421 -2 c 1,8,9
 1038.5 -5.1005859375 1038.5 -5.1005859375 1038.5 -5.1005859375 c 1,10,11
 1054 572 1054 572 1026 932 c 0,12,13
 1017 1049 1017 1049 930 1053 c 0,14,15
 810 1059 810 1059 814 882 c 1,0,1
55 618 m 0,16,17
 -2.5615234375 718.177734375 -2.5615234375 718.177734375 2 928 c 0,18,19
 13 1407 13 1407 467 1395 c 0,20,21
 821 1386 821 1386 814 882 c 1,22,23
 814 882 814 882 607 881 c 1,24,25
 611 1061 611 1061 494 1060 c 0,26,27
 370 1059 370 1059 350 930 c 0,28,29
 330 805 330 805 409 726 c 24,30,31
 469 665 469 665 725 665 c 1,32,33
 724 384 724 384 724 384 c 1,34,35
 375.819335938 384 375.819335938 384 255 439 c 0,36,37
 121 500 121 500 55 618 c 0,16,17
742 1370 m 1049,38,-1
  Spiro
    742 1370 {
    0 0 z
  EndSpiro
EndSplineSet
EndChar
StartChar: uni0E47
Encoding: 3655 3655 439
Width: 0
Flags: W
LayerCount: 2
Fore
SplineSet
-780 1752 m 0,1,2
 -782 1649 -782 1649 -684 1650 c 0,3,4
 -596 1651 -596 1651 -585 1746 c 1,5,6
 -585 1746 -585 1746 -461 1738 c 1,7,8
 -478 1496 -478 1496 -773 1504 c 0,9,10
 -949 1509 -949 1509 -938 1754 c 0,11,12
 -928.018605718 1966.60369822 -928.018605718 1966.60369822 -715 1963 c 2,13,-1
 -183 1954 l 1,14,-1
 -192 1822 l 1,15,-1
 -672 1847 l 2,16,17
 -778 1853 -778 1853 -780 1752 c 0,1,2
-318 1501 m 2,18,19
 -580.0044449 1494.22402298 -580.0044449 1494.22402298 -585 1746 c 1,20,21
 -585 1746 -585 1746 -461 1738 c 1,22,23
 -465.007205353 1639.82346886 -465.007205353 1639.82346886 -325 1641 c 2,24,25
 -325 1641 -325 1641 -206 1642 c 1,26,-1
 -202 1504 l 1,27,-1
 -318 1501 l 2,18,19
EndSplineSet
EndChar
StartChar: uni0E48
Encoding: 3656 3656 440
Width: 0
Flags: W
LayerCount: 2
Fore
SplineSet
-352.315429688 1812.95214844 m 1,0,1
 -352.315429688 1812.95214844 -352.315429688 1812.95214844 -164 1800 c 1,2,-1
 -205 1486 l 1,3,4
 -205 1486 -205 1486 -338 1500 c 257,5,6
 -338 1500 -338 1500 -352.315429688 1812.95214844 c 1,0,1
EndSplineSet
EndChar
